if (_typeface_js && _typeface_js.loadFace) _typeface_js.loadFace({"glyphs":{"0":{"ha":0,"x_min":0,"x_max":0,"o":""},"1":{"ha":0,"x_min":0,"x_max":0,"o":""},"2":{"ha":0,"x_min":0,"x_max":0,"o":""},"3":{"ha":0,"x_min":0,"x_max":0,"o":""},"4":{"ha":0,"x_min":0,"x_max":0,"o":""},"5":{"ha":0,"x_min":0,"x_max":0,"o":""},"6":{"ha":0,"x_min":0,"x_max":0,"o":""},"7":{"ha":0,"x_min":0,"x_max":0,"o":""},"8":{"ha":0,"x_min":0,"x_max":0,"o":""},"9":{"ha":-57,"x_min":0,"x_max":0,"o":"m 143 647 "},"\u0000":{"ha":-510,"x_min":0,"x_max":0,"o":""},"\u0001":{"ha":-510,"x_min":0,"x_max":0,"o":""},"\u0002":{"ha":-510,"x_min":0,"x_max":0,"o":""},"\u0003":{"ha":-510,"x_min":0,"x_max":0,"o":""},"\u0004":{"ha":-510,"x_min":0,"x_max":0,"o":""},"\u0005":{"ha":-510,"x_min":0,"x_max":0,"o":""},"\u0006":{"ha":-510,"x_min":0,"x_max":0,"o":""},"\u0007":{"ha":-510,"x_min":0,"x_max":0,"o":""},"\b":{"ha":-510,"x_min":0,"x_max":0,"o":""},"\t":{"ha":-510,"x_min":0,"x_max":0,"o":""},"\n":{"ha":-510,"x_min":0,"x_max":0,"o":""},"\u000b":{"ha":-510,"x_min":0,"x_max":0,"o":""},"\f":{"ha":-510,"x_min":0,"x_max":0,"o":""},"\r":{"ha":-510,"x_min":0,"x_max":0,"o":""},"\u000e":{"ha":-510,"x_min":0,"x_max":0,"o":""},"\u000f":{"ha":-510,"x_min":0,"x_max":0,"o":""},"\u0010":{"ha":-510,"x_min":0,"x_max":0,"o":""},"\u0011":{"ha":-510,"x_min":0,"x_max":0,"o":""},"\u0012":{"ha":-510,"x_min":0,"x_max":0,"o":""},"\u0013":{"ha":-510,"x_min":0,"x_max":0,"o":""},"\u0014":{"ha":-510,"x_min":0,"x_max":0,"o":""},"\u0015":{"ha":-510,"x_min":0,"x_max":0,"o":""},"\u0016":{"ha":-510,"x_min":0,"x_max":0,"o":""},"\u0017":{"ha":-510,"x_min":0,"x_max":0,"o":""},"\u0018":{"ha":-510,"x_min":0,"x_max":0,"o":""},"\u0019":{"ha":-510,"x_min":0,"x_max":0,"o":""},"\u001a":{"ha":-510,"x_min":0,"x_max":0,"o":""},"\u001b":{"ha":-510,"x_min":0,"x_max":0,"o":""},"\u001c":{"ha":-510,"x_min":0,"x_max":0,"o":""},"\u001d":{"ha":-510,"x_min":0,"x_max":0,"o":""},"\u001e":{"ha":-510,"x_min":0,"x_max":0,"o":""},"\u001f":{"ha":-510,"x_min":0,"x_max":0,"o":""}," ":{"ha":-510,"x_min":0,"x_max":0,"o":""}," ":{"ha":-510,"x_min":0,"x_max":0,"o":""},"!":{"ha":0,"x_min":0,"x_max":0,"o":""},"\"":{"ha":0,"x_min":0,"x_max":0,"o":""},"#":{"ha":0,"x_min":0,"x_max":0,"o":""},"$":{"ha":0,"x_min":0,"x_max":0,"o":""},"%":{"ha":0,"x_min":0,"x_max":0,"o":""},"&":{"ha":0,"x_min":0,"x_max":0,"o":""},"'":{"ha":-478,"x_min":0,"x_max":0,"o":""},"(":{"ha":0,"x_min":0,"x_max":0,"o":""},")":{"ha":0,"x_min":0,"x_max":0,"o":""},"*":{"ha":0,"x_min":0,"x_max":0,"o":""},"+":{"ha":0,"x_min":0,"x_max":0,"o":""},",":{"ha":0,"x_min":0,"x_max":0,"o":""},"-":{"ha":0,"x_min":0,"x_max":0,"o":""},".":{"ha":-478,"x_min":0,"x_max":0,"o":""},"/":{"ha":-378,"x_min":0,"x_max":0,"o":"m 443 978 b 463 997 449 992 449 997 l 500 997 b 510 978 514 997 515 992 l 97 -143 b 78 -162 92 -157 92 -162 l 40 -162 b 31 -143 29 -162 25 -157 z "},":":{"ha":-478,"x_min":0,"x_max":0,"o":"m 161 765 z m 161 139 z "},";":{"ha":-478,"x_min":0,"x_max":0,"o":"m 161 765 "},"<":{"ha":0,"x_min":0,"x_max":0,"o":""},"=":{"ha":10,"x_min":0,"x_max":0,"o":""},">":{"ha":0,"x_min":0,"x_max":0,"o":""},"?":{"ha":0,"x_min":0,"x_max":0,"o":""},"@":{"ha":0,"x_min":0,"x_max":0,"o":""},"A":{"ha":0,"x_min":0,"x_max":0,"o":""},"B":{"ha":0,"x_min":0,"x_max":0,"o":"l -57 0 l -57 649 l 99 649 b 242 592 306 649 210 729 "},"C":{"ha":0,"x_min":0,"x_max":0,"o":""},"D":{"ha":111,"x_min":0,"x_max":0,"o":"m 301 -60 b 906 454 696 -57 903 114 b 381 968 906 775 747 968 z m 1075 1482 b -83 951 1075 1253 86 951 b -621 NaN -243 951 -621 NaN l -729 NaN l -729 NaN l -544 NaN b -74 NaN -219 NaN -74 NaN z "},"E":{"ha":-99,"x_min":0,"x_max":0,"o":""},"F":{"ha":0,"x_min":0,"x_max":0,"o":"l 0 -200 l 185 -200 l 185 -240 l 1176 -240 l 1661 -240 l 1661 -686 l 1239 -686 l 1239 -260 l 813 -260 "},"G":{"ha":0,"x_min":0,"x_max":0,"o":""},"H":{"ha":0,"x_min":0,"x_max":0,"o":"l 0 111 l 872 111 l 872 71 l 1358 71 l 1358 -542 l 872 -542 b 853 -561 872 -556 867 -561 l 833 -561 l 833 -542 "},"I":{"ha":-562,"x_min":0,"x_max":0,"o":"m 210 -40 b 197 -60 210 -54 211 -60 l 171 -60 z "},"J":{"ha":0,"x_min":0,"x_max":0,"o":""},"K":{"ha":0,"x_min":0,"x_max":0,"o":""},"L":{"ha":0,"x_min":0,"x_max":0,"o":""},"M":{"ha":447,"x_min":0,"x_max":0,"o":"m 211 928 l 615 -33 b 635 -53 621 -46 621 -53 l 701 -53 b 721 -33 715 -53 715 -46 l 1124 928 l 1124 -40 l 2115 -40 l 2115 -107 b 2092 -125 2101 -107 2097 -111 l 1688 -1092 l 1283 -126 b 1260 -107 1278 -112 1274 -107 "},"N":{"ha":111,"x_min":0,"x_max":0,"o":"m 860 -60 l 860 932 l -83 932 l -679 1875 b -703 1894 -686 1888 -689 1894 l -703 1849 l -1694 1849 l -1694 2789 l -1103 1849 b -1075 1829 -1094 1836 -1089 1829 z "},"O":{"ha":0,"x_min":0,"x_max":0,"o":"b 1124 538 0 194 1008 538 b 1657 NaN 1410 538 1657 NaN "},"P":{"ha":0,"x_min":0,"x_max":0,"o":""},"Q":{"ha":0,"x_min":0,"x_max":0,"o":""},"R":{"ha":0,"x_min":0,"x_max":0,"o":""},"S":{"ha":-142,"x_min":0,"x_max":0,"o":"m 135 21 b 106 6 121 29 111 21 l 97 -15 b 114 -44 94 -31 100 -39 b 678 211 328 -137 675 -67 b 156 721 679 478 156 488 b 604 906 156 910 431 985 b 628 918 617 900 624 906 l 632 936 b 618 960 635 949 631 956 b 97 724 424 1033 97 978 b 619 211 97 429 619 446 b 135 21 619 -33 293 -76 z "},"T":{"ha":0,"x_min":0,"x_max":0,"o":"l 0 -142 l 47 -142 l 47 774 l 725 774 l 725 464 l -231 464 l -231 1419 "},"U":{"ha":0,"x_min":0,"x_max":0,"o":""},"V":{"ha":0,"x_min":0,"x_max":0,"o":""},"W":{"ha":0,"x_min":0,"x_max":0,"o":""},"X":{"ha":0,"x_min":0,"x_max":0,"o":""},"Y":{"ha":0,"x_min":0,"x_max":0,"o":""},"Z":{"ha":0,"x_min":0,"x_max":0,"o":""},"[":{"ha":0,"x_min":0,"x_max":0,"o":""},"\\":{"ha":0,"x_min":0,"x_max":0,"o":""},"]":{"ha":0,"x_min":0,"x_max":0,"o":""},"^":{"ha":0,"x_min":0,"x_max":0,"o":""},"_":{"ha":-142,"x_min":0,"x_max":0,"o":""},"`":{"ha":0,"x_min":0,"x_max":0,"o":""},"a":{"ha":0,"x_min":0,"x_max":0,"o":""},"b":{"ha":0,"x_min":0,"x_max":0,"o":"b 129 -340 -57 0 129 -122 b 382 -682 129 -561 240 -682 "},"c":{"ha":0,"x_min":0,"x_max":0,"o":""},"d":{"ha":0,"x_min":0,"x_max":0,"o":"b 608 -340 -57 0 608 -122 b 356 -682 608 -561 497 -682 "},"e":{"ha":0,"x_min":0,"x_max":0,"o":""},"f":{"ha":0,"x_min":0,"x_max":0,"o":""},"g":{"ha":0,"x_min":0,"x_max":0,"o":"l -57 406 l 15 296 l -211 115 l -283 -4 l -312 3 l -436 NaN "},"h":{"ha":0,"x_min":0,"x_max":0,"o":""},"i":{"ha":0,"x_min":0,"x_max":0,"o":""},"j":{"ha":0,"x_min":0,"x_max":0,"o":""},"k":{"ha":0,"x_min":0,"x_max":0,"o":""},"l":{"ha":0,"x_min":0,"x_max":0,"o":""},"m":{"ha":0,"x_min":0,"x_max":0,"o":"b 558 253 363 0 558 192 b NaN NaN 558 117 444 NaN b NaN NaN NaN NaN NaN NaN l NaN NaN b NaN NaN NaN NaN NaN NaN b NaN NaN NaN NaN NaN NaN b NaN NaN NaN NaN NaN NaN l NaN NaN "},"n":{"ha":-57,"x_min":0,"x_max":0,"o":"m 194 425 l 194 522 l 290 522 l 290 656 l 442 656 l 442 818 l 503 818 l 503 1278 "},"o":{"ha":0,"x_min":0,"x_max":0,"o":""},"p":{"ha":0,"x_min":0,"x_max":0,"o":"b 121 340 -57 0 121 129 b 374 682 121 561 232 682 "},"q":{"ha":0,"x_min":0,"x_max":0,"o":"b 617 340 -57 0 617 129 b 364 682 617 561 506 682 "},"r":{"ha":0,"x_min":0,"x_max":0,"o":""},"s":{"ha":-310,"x_min":0,"x_max":0,"o":"m 82 -58 b 532 133 244 -107 532 -96 b 139 504 532 365 135 346 b 358 801 144 672 358 676 b 201 550 358 756 201 807 b -12 NaN 201 528 -12 NaN b 381 NaN -12 NaN 382 NaN b 6 NaN 379 NaN 143 NaN b -17 NaN -8 NaN -14 NaN l -22 NaN b -4 NaN -24 NaN -11 NaN z "},"t":{"ha":0,"x_min":0,"x_max":0,"o":""},"u":{"ha":558,"x_min":0,"x_max":0,"o":"l 0 -57 l 665 -57 l 665 -500 b 939 -811 665 -700 742 -811 b 1208 -631 1099 -811 1181 -696 l 1069 -615 l 1067 -461 "},"v":{"ha":0,"x_min":0,"x_max":0,"o":""},"w":{"ha":0,"x_min":0,"x_max":0,"o":""},"x":{"ha":0,"x_min":0,"x_max":0,"o":""},"y":{"ha":0,"x_min":0,"x_max":0,"o":""},"z":{"ha":0,"x_min":0,"x_max":0,"o":""},"{":{"ha":0,"x_min":0,"x_max":0,"o":""},"|":{"ha":0,"x_min":0,"x_max":0,"o":""},"}":{"ha":0,"x_min":0,"x_max":0,"o":""},"~":{"ha":10,"x_min":0,"x_max":0,"o":"m 172 381 b 296 483 215 438 261 483 b 442 422 336 483 364 460 b 613 364 521 388 578 364 b 778 461 683 364 736 386 b 778 504 792 486 793 483 l 772 510 b 744 508 757 531 760 529 b 622 425 704 453 660 425 b 471 478 599 425 546 440 b 300 539 396 513 339 539 b 136 436 232 539 181 506 b 132 390 125 415 119 408 l 142 376 b 172 381 154 358 158 361 z "},"₩":{"ha":443,"x_min":0,"x_max":0,"o":"m 1251 478 b 1267 493 1261 478 1267 483 l 1282 493 l 1282 344 l 1367 708 b NaN NaN 1381 708 1385 NaN l NaN NaN b NaN NaN NaN NaN NaN NaN l NaN NaN l NaN NaN l NaN NaN b NaN NaN NaN NaN NaN NaN l NaN NaN b NaN NaN NaN NaN NaN NaN l NaN NaN l NaN NaN l NaN NaN b NaN NaN NaN NaN NaN NaN l NaN NaN b NaN NaN NaN NaN NaN NaN l NaN NaN l NaN NaN l NaN NaN l NaN NaN l NaN NaN b NaN NaN NaN NaN NaN NaN l NaN NaN b NaN NaN NaN NaN NaN NaN l NaN NaN l NaN NaN l NaN NaN b NaN NaN NaN NaN NaN NaN l NaN NaN b NaN NaN NaN NaN NaN NaN l NaN NaN z m NaN NaN l NaN NaN l NaN NaN z m NaN NaN l NaN NaN l NaN NaN z m NaN NaN l NaN NaN l NaN NaN z "},"‐":{"ha":-290,"x_min":0,"x_max":0,"o":"m 575 413 l 575 454 l 33 454 l 33 413 z "},"©":{"ha":289,"x_min":0,"x_max":0,"o":"m 882 300 l 828 300 b 593 74 817 182 701 74 b 329 408 411 74 329 249 b 593 744 329 572 411 744 b 821 556 718 744 794 668 l 876 556 b 593 792 861 699 739 792 b 271 408 375 792 271 613 b 593 25 271 203 378 25 b 882 300 743 25 864 151 z m 1092 414 b 596 -81 1092 128 883 -81 b 103 414 313 -81 103 128 b 596 908 103 700 313 908 b 1092 414 883 908 1092 700 z m 1147 414 b 596 963 1147 732 913 963 b 46 414 281 963 46 732 b 596 -135 46 96 281 -135 b 1147 414 913 -135 1147 96 z "},"　":{"ha":0,"x_min":0,"x_max":0,"o":""},"ㅤ":{"ha":0,"x_min":0,"x_max":0,"o":""},"、":{"ha":0,"x_min":0,"x_max":0,"o":"m 86 -21 l 353 -215 l 353 -103 l 86 8 z "},"。":{"ha":0,"x_min":0,"x_max":0,"o":""},"·":{"ha":-496,"x_min":0,"x_max":0,"o":""},"・":{"ha":-496,"x_min":0,"x_max":0,"o":""},"‥":{"ha":285,"x_min":0,"x_max":0,"o":"m 626 0 z "},"…":{"ha":181,"x_min":0,"x_max":0,"o":"m 417 0 z m 836 0 z "},"⋯":{"ha":181,"x_min":0,"x_max":0,"o":"m 417 0 z m 836 0 z "},"¨":{"ha":-149,"x_min":0,"x_max":0,"o":"m 122 913 z m 494 913 z "},"〃":{"ha":0,"x_min":0,"x_max":0,"o":"m 638 619 l 522 619 l 349 190 l 369 190 z m 888 619 l 772 619 l 599 190 l 619 190 z "},"­":{"ha":-329,"x_min":0,"x_max":0,"o":"m 488 408 l 488 458 l 82 458 l 82 408 z "},"–":{"ha":-329,"x_min":0,"x_max":0,"o":"m 488 408 l 488 458 l 82 458 l 82 408 z "},"—":{"ha":301,"x_min":0,"x_max":0,"o":"m 1197 408 l 1197 458 l 3 458 l 3 408 z "},"―":{"ha":301,"x_min":0,"x_max":0,"o":"m 1197 408 l 1197 458 l 3 458 l 3 408 z "},"‖":{"ha":0,"x_min":0,"x_max":0,"o":"m 560 -250 l 501 -250 l 501 1083 l 560 1083 z m 803 -250 l 744 -250 l 744 1083 l 803 1083 z "},"＼":{"ha":0,"x_min":0,"x_max":0,"o":"m 1219 -178 l 114 1046 l 79 1007 l 1183 -214 z "},"∼":{"ha":0,"x_min":0,"x_max":0,"o":"m 1051 471 l 1010 499 b 842 396 975 447 910 396 b 667 449 768 396 726 417 b 478 511 607 481 557 511 b 268 388 397 511 308 454 l 311 358 b 478 453 346 410 410 453 b 653 389 551 453 604 415 b 842 340 713 357 763 340 b 1051 471 922 340 1011 404 z "},"〜":{"ha":0,"x_min":0,"x_max":0,"o":"m 1051 471 l 1010 499 b 842 396 975 447 910 396 b 667 449 768 396 726 417 b 478 511 607 481 557 511 b 268 388 397 511 308 454 l 311 358 b 478 453 346 410 410 453 b 653 389 551 453 604 415 b 842 340 713 357 763 340 b 1051 471 922 340 1011 404 z "},"～":{"ha":0,"x_min":0,"x_max":0,"o":"m 1051 471 l 1010 499 b 842 396 975 447 910 396 b 667 449 768 396 726 417 b 478 511 607 481 557 511 b 268 388 397 511 308 454 l 311 358 b 478 453 346 410 410 453 b 653 389 551 453 604 415 b 842 340 713 357 763 340 b 1051 471 922 340 1011 404 z "},"‘":{"ha":-642,"x_min":0,"x_max":0,"o":"m 126 842 z "},"’":{"ha":-642,"x_min":0,"x_max":0,"o":"m 128 890 "},"“":{"ha":-412,"x_min":0,"x_max":0,"o":"m 154 842 z m 343 842 z "},"”":{"ha":-412,"x_min":0,"x_max":0,"o":"m 321 892 z m 132 892 "},"〔":{"ha":-421,"x_min":0,"x_max":0,"o":"m 110 3 l 110 826 l 411 1003 l 389 1039 l 63 854 l 63 -24 l 389 -203 l 414 -164 z "},"〕":{"ha":-401,"x_min":0,"x_max":0,"o":"m 378 3 l 378 826 l 76 1003 l 99 1039 l 425 854 l 425 -24 l 99 -203 l 74 -164 z "},"〈":{"ha":-250,"x_min":0,"x_max":0,"o":"m 579 -154 l 129 417 l 579 988 l 539 1017 l 69 417 l 540 -183 z "},"〉":{"ha":-236,"x_min":0,"x_max":0,"o":"m 586 417 l 115 1017 l 76 988 l 526 417 l 76 -154 l 117 -183 z "},"《":{"ha":-254,"x_min":0,"x_max":0,"o":""},"》":{"ha":-254,"x_min":0,"x_max":0,"o":""},"「":{"ha":-411,"x_min":0,"x_max":0,"o":"m 444 1013 l 38 1013 l 38 418 l 96 418 l 96 958 l 444 958 z "},"」":{"ha":-411,"x_min":0,"x_max":0,"o":"m 38 -176 l 444 -176 l 444 418 l 386 418 l 386 -124 l 38 -124 z "},"『":{"ha":-404,"x_min":0,"x_max":0,"o":"m 404 918 l 163 918 l 163 460 l 90 460 l 90 976 l 404 976 z m 446 881 l 446 1014 l 49 1014 l 49 422 l 204 422 l 204 881 z "},"』":{"ha":-404,"x_min":0,"x_max":0,"o":"m 404 -143 l 90 -143 l 90 -85 l 332 -85 l 332 374 l 404 374 z m 446 -181 l 446 411 l 290 411 l 290 -47 l 49 -47 l 49 -181 z "},"【":{"ha":-379,"x_min":0,"x_max":0,"o":"m 35 -183 l 457 -183 b 804 -508 457 -379 583 -508 b 1314 -92 1056 -508 1185 -287 l 892 -92 z "},"】":{"ha":-368,"x_min":0,"x_max":0,"o":"m 490 -183 l 490 1017 l 68 1017 b 393 415 264 888 393 667 b 68 -183 393 164 264 -57 z "},"±":{"ha":-290,"x_min":0,"x_max":0,"o":"l 0 -111 l 74 -111 l 74 399 l 364 399 l 364 699 l 64 699 l 64 988 l 64 968 l 64 679 l -237 679 l -237 981 "},"×":{"ha":-76,"x_min":0,"x_max":0,"o":"m 686 739 b 713 739 696 749 703 749 l 726 725 b 726 697 736 715 736 708 l 456 426 l 726 156 b 726 128 736 146 736 138 l 713 115 b 686 115 703 104 696 104 l 414 385 l 143 115 b 117 115 133 104 126 104 l 103 128 b 103 156 93 138 93 146 l 374 426 l 103 697 b 103 725 93 708 93 715 l 117 739 b 143 739 126 749 133 749 l 414 467 z "},"÷":{"ha":4,"x_min":0,"x_max":0,"o":"m 847 436 b 828 456 847 457 849 456 l 74 456 b 54 436 53 456 54 457 l 54 425 b 74 406 54 404 53 406 l 828 406 b 847 425 849 406 847 404 z m 449 774 z m 449 201 z "},"≠":{"ha":0,"x_min":0,"x_max":0,"o":"m 303 -11 l 351 -24 l 425 264 l 857 264 l 857 314 l 438 314 l 499 553 l 857 553 l 857 603 l 513 603 l 582 871 l 533 882 l 461 603 l 42 603 l 42 553 l 449 553 l 386 314 l 42 314 l 42 264 l 374 264 z "},"≤":{"ha":35,"x_min":0,"x_max":0,"o":"m 892 -51 l 892 -8 l 42 -8 l 42 -51 z m 57 481 l 57 522 l 847 924 l 868 888 l 115 501 l 868 115 l 847 79 z "},"≥":{"ha":35,"x_min":0,"x_max":0,"o":"m 42 -51 l 42 -8 l 892 -8 l 892 -51 z m 876 481 l 876 522 l 86 924 l 65 888 l 818 501 l 65 115 l 86 79 z "},"∞":{"ha":231,"x_min":0,"x_max":0,"o":"m 550 435 b 293 639 504 522 428 639 b 93 436 172 639 93 557 b 292 233 93 314 165 233 b 550 435 426 233 506 349 z m 586 435 b 844 233 631 349 710 233 b 1043 436 971 233 1043 314 b 843 639 1043 557 964 639 b 586 435 708 639 632 522 z m 568 486 b 851 688 615 574 700 688 b 1093 436 975 688 1093 597 b 850 185 1093 269 971 185 b 568 383 697 185 617 297 b 286 185 519 297 439 185 b 43 436 165 185 43 269 b 285 688 43 597 161 688 b 568 486 436 688 521 574 z "},"∴":{"ha":0,"x_min":0,"x_max":0,"o":"m 357 171 b 301 226 357 201 332 226 b 246 171 269 226 246 201 b 301 115 246 139 269 115 b 357 171 332 115 357 139 z m 1060 171 b 1004 226 1060 201 1036 226 b 949 171 974 226 949 201 b 1004 115 949 139 974 115 b 1060 171 1036 115 1060 139 z m 708 761 b 653 817 708 793 685 817 b 597 761 621 817 597 793 b 653 706 597 731 621 706 b 708 761 685 706 708 731 z "},"°":{"ha":0,"x_min":0,"x_max":0,"o":""},"′":{"ha":-261,"x_min":0,"x_max":0,"o":"m 428 1013 l 347 1013 l 201 686 l 218 686 z "},"″":{"ha":-232,"x_min":0,"x_max":0,"o":"m 338 1013 l 257 1013 l 111 686 l 128 686 z m 539 1013 l 458 1013 l 313 686 l 329 686 z "},"℃":{"ha":194,"x_min":0,"x_max":0,"o":"m 985 260 l 932 260 b 651 -26 914 111 817 -26 b 325 388 401 -26 325 217 b 653 801 325 558 397 801 b 921 575 782 801 890 717 l 972 575 b 651 842 954 742 806 842 b 274 388 394 842 274 626 b 653 -68 274 151 400 -68 b 985 260 847 -68 968 74 "},"Å":{"ha":19,"x_min":0,"x_max":0,"o":"m 621 239 l 296 239 l 458 631 z m 815 -83 l 501 675 l 417 675 l 103 -83 l 161 -83 l 278 196 l 640 196 l 757 -83 "},"¢":{"ha":0,"x_min":0,"x_max":0,"o":"m 426 -107 l 458 -122 l 524 21 b 672 -8 567 3 617 -8 b 1004 319 867 -8 988 133 l 951 319 b 671 33 933 171 836 33 b 542 60 621 33 578 43 l 876 786 b 956 635 921 747 950 694 l 1006 635 b 894 826 1000 706 958 775 l 958 964 l 922 978 l 863 847 b 671 901 810 881 743 901 b 293 447 414 901 293 686 b 492 38 293 275 360 114 z m 344 447 b 672 861 344 618 417 861 b 846 810 738 861 797 842 l 510 76 b 344 447 386 154 344 321 z "},"￠":{"ha":0,"x_min":0,"x_max":0,"o":"m 426 -107 l 458 -122 l 524 21 b 672 -8 567 3 617 -8 b 1004 319 867 -8 988 133 l 951 319 b 671 33 933 171 836 33 b 542 60 621 33 578 43 l 876 786 b 956 635 921 747 950 694 l 1006 635 b 894 826 1000 706 958 775 l 958 964 l 922 978 l 863 847 b 671 901 810 881 743 901 b 293 447 414 901 293 686 b 492 38 293 275 360 114 z m 344 447 b 672 861 344 618 417 861 b 846 810 738 861 797 842 l 510 76 b 344 447 386 154 344 321 z "},"£":{"ha":0,"x_min":0,"x_max":0,"o":"m 538 118 b 411 -18 538 13 478 -18 b 319 71 356 -18 319 18 b 418 164 319 124 371 164 b 538 118 469 164 503 143 z m 1032 151 l 988 165 b 835 -7 960 6 897 -7 b 592 147 768 -7 665 92 b 565 390 597 214 586 301 l 976 390 l 976 440 l 550 440 b 493 672 521 529 493 604 b 707 882 493 822 601 882 b 904 661 844 882 904 783 l 957 661 b 714 926 957 835 851 926 b 440 676 547 926 440 832 b 493 440 440 603 469 506 l 299 440 l 299 390 l 508 390 b 538 178 524 332 538 238 b 428 207 500 199 467 207 b 274 72 339 207 274 156 b 411 -62 274 -12 329 -62 b 588 92 511 -62 576 17 b 835 -53 683 14 774 -53 b 1032 151 957 -53 1001 21 z "},"￡":{"ha":0,"x_min":0,"x_max":0,"o":"m 538 118 b 411 -18 538 13 478 -18 b 319 71 356 -18 319 18 b 418 164 319 124 371 164 b 538 118 469 164 503 143 z m 1032 151 l 988 165 b 835 -7 960 6 897 -7 b 592 147 768 -7 665 92 b 565 390 597 214 586 301 l 976 390 l 976 440 l 550 440 b 493 672 521 529 493 604 b 707 882 493 822 601 882 b 904 661 844 882 904 783 l 957 661 b 714 926 957 835 851 926 b 440 676 547 926 440 832 b 493 440 440 603 469 506 l 299 440 l 299 390 l 508 390 b 538 178 524 332 538 238 b 428 207 500 199 467 207 b 274 72 339 207 274 156 b 411 -62 274 -12 329 -62 b 588 92 511 -62 576 17 b 835 -53 683 14 774 -53 b 1032 151 957 -53 1001 21 z "},"¥":{"ha":0,"x_min":0,"x_max":0,"o":"m 1026 343 l 686 343 l 793 525 l 1026 525 l 1026 564 l 817 564 l 1031 921 l 967 921 l 754 564 l 550 564 l 339 921 l 275 921 l 489 564 l 279 564 l 279 525 l 513 525 l 619 343 l 279 343 l 279 304 l 622 304 l 622 -54 l 683 -54 l 683 304 l 1026 304 z m 731 525 l 653 392 l 575 525 z "},"￥":{"ha":0,"x_min":0,"x_max":0,"o":"m 1026 343 l 686 343 l 793 525 l 1026 525 l 1026 564 l 817 564 l 1031 921 l 967 921 l 754 564 l 550 564 l 339 921 l 275 921 l 489 564 l 279 564 l 279 525 l 513 525 l 619 343 l 279 343 l 279 304 l 622 304 l 622 -54 l 683 -54 l 683 304 l 1026 304 z m 731 525 l 653 392 l 575 525 z "},"♂":{"ha":0,"x_min":0,"x_max":0,"o":"m 840 72 b 651 264 840 176 757 264 b 463 72 546 264 463 176 b 651 -119 463 -32 546 -119 b 840 72 757 -119 840 -32 z m 674 925 l 674 310 b 889 72 792 299 889 193 b 651 -165 889 -58 781 -165 b 414 72 521 -165 414 -58 b 629 310 414 193 511 299 l 629 925 l 351 565 l 319 590 l 651 1011 l 983 590 l 951 565 z "},"♀":{"ha":0,"x_min":0,"x_max":0,"o":"m 842 769 b 653 578 842 665 758 578 b 464 769 547 578 464 665 b 653 961 464 874 547 961 b 842 769 758 961 842 874 z m 1056 314 l 1056 350 l 678 350 l 678 533 b 890 769 796 544 890 649 b 653 1008 890 900 782 1008 b 415 769 522 1008 415 900 b 628 533 415 649 510 544 l 628 350 l 250 350 l 250 314 l 628 314 l 628 -164 l 678 -164 l 678 314 z "},"∠":{"ha":0,"x_min":0,"x_max":0,"o":"m 1074 33 l 288 33 l 932 783 l 904 807 l 232 25 l 232 0 l 1074 0 z "},"⊥":{"ha":0,"x_min":0,"x_max":0,"o":"m 1094 36 l 675 36 l 675 785 l 632 785 l 632 36 l 213 36 l 213 0 l 1094 0 z "},"⌒":{"ha":0,"x_min":0,"x_max":0,"o":"m 988 713 b 653 911 917 828 813 911 b 313 713 489 911 383 828 l 363 713 b 656 878 414 801 511 878 b 944 713 790 878 886 800 z "},"∂":{"ha":-210,"x_min":0,"x_max":0,"o":"m 481 436 l 479 436 b 382 244 456 344 426 301 b 249 167 347 203 303 167 b 172 243 208 167 172 194 b 411 446 172 367 290 446 b 481 436 435 446 463 442 z m 564 492 b 374 710 564 621 496 710 b 161 600 271 710 203 650 l 192 579 b 360 664 243 633 289 664 b 483 467 492 664 488 504 b 393 485 465 476 431 485 b 111 260 274 485 111 410 b 247 139 111 182 174 139 b 564 492 421 139 564 303 z "},"∇":{"ha":0,"x_min":0,"x_max":0,"o":""},"≡":{"ha":140,"x_min":0,"x_max":0,"o":"m 964 681 z m 964 490 z m 964 300 z "},"≒":{"ha":140,"x_min":0,"x_max":0,"o":"m 319 750 z m 856 103 b 785 174 856 139 826 174 b 714 103 749 174 714 139 b 785 32 714 67 749 32 b 856 103 826 32 856 67 z m 964 565 z m 964 371 z "},"§":{"ha":-418,"x_min":0,"x_max":0,"o":"m 338 442 b 308 263 382 385 413 263 b 144 386 271 263 211 300 b 157 569 90 451 72 569 b 338 442 217 569 267 533 z m 432 353 b 236 631 432 454 322 549 b 140 840 165 697 140 763 b 236 949 140 911 181 949 b 338 846 299 949 338 906 l 400 846 b 242 985 400 922 342 985 b 79 808 142 985 79 931 b 178 596 79 729 118 650 b 49 474 93 608 49 564 b 250 204 49 376 161 286 b 325 14 306 154 325 79 b 229 -101 325 -65 283 -101 b 126 0 181 -101 126 -68 l 63 0 b 231 -146 63 -89 135 -146 b 400 43 332 -146 400 -74 b 324 235 400 115 378 175 b 432 353 394 233 432 275 z "},"※":{"ha":0,"x_min":0,"x_max":0,"o":"m 265 11 l 640 386 l 1017 11 l 1044 39 l 668 414 l 1044 790 l 1017 818 l 640 442 l 265 818 l 238 790 l 613 414 l 238 39 z m 711 767 z m 711 49 z m 350 413 z m 1072 413 z "},"☆":{"ha":0,"x_min":0,"x_max":0,"o":"m 1092 528 l 822 325 l 933 15 l 653 208 l 372 15 l 483 325 l 214 528 l 554 528 l 653 829 l 751 528 z m 1221 571 l 789 571 l 653 964 l 517 571 l 85 571 l 431 313 l 288 -101 l 653 154 l 1018 -101 l 875 313 z "},"★":{"ha":0,"x_min":0,"x_max":0,"o":"m 1211 568 l 786 568 l 653 954 l 519 568 l 94 568 l 433 314 l 293 -92 l 653 158 l 1011 -92 l 872 314 z "},"○":{"ha":0,"x_min":0,"x_max":0,"o":"m 1171 417 b 653 936 1171 704 939 932 b 133 417 365 932 136 704 b 653 -100 133 132 367 -100 b 1171 417 939 -100 1171 132 z m 1121 417 b 653 -54 1121 160 911 -54 b 185 417 390 -54 185 160 b 653 885 185 678 390 885 b 1121 417 911 885 1121 678 z "},"●":{"ha":0,"x_min":0,"x_max":0,"o":"m 1167 417 b 653 933 1165 704 939 925 b 136 417 367 926 142 703 b 653 -97 138 135 368 -94 b 1167 417 939 -94 1165 135 z "},"◎":{"ha":0,"x_min":0,"x_max":0,"o":"m 958 417 b 653 110 958 247 824 110 b 347 417 486 110 347 247 b 653 722 347 588 486 722 b 958 417 824 722 958 588 z m 1006 417 b 653 769 1006 611 847 769 b 265 735 460 769 265 576 b 617 771 265 576 458 771 b 968 NaN 775 771 968 NaN z m 1118 NaN b 615 NaN 1118 NaN 889 NaN b 115 NaN 338 NaN 115 NaN b 615 NaN 115 NaN 338 NaN b 1118 NaN 889 NaN 1118 NaN z m 1163 NaN b 615 NaN 1163 NaN 917 NaN b 68 NaN 314 NaN 68 NaN b 615 NaN 68 NaN 314 NaN b 1163 NaN 917 NaN 1163 NaN z "},"◇":{"ha":0,"x_min":0,"x_max":0,"o":"m 1186 415 l 653 -119 l 118 415 l 653 949 z m 1267 415 l 653 1029 l 39 415 l 653 -199 z "},"◆":{"ha":0,"x_min":0,"x_max":0,"o":"m 1264 414 l 651 1025 l 42 414 l 653 -196 z "},"□":{"ha":0,"x_min":0,"x_max":0,"o":"m 1072 -1 l 233 -1 l 233 838 l 1072 838 z m 1125 -54 l 1125 890 l 181 890 l 181 -54 z "},"■":{"ha":0,"x_min":0,"x_max":0,"o":"m 1122 -46 l 1122 892 l 183 892 l 183 -46 z "},"△":{"ha":0,"x_min":0,"x_max":0,"o":"m 1108 43 l 197 43 l 651 769 z m 1193 0 l 651 858 l 113 0 z "},"▲":{"ha":0,"x_min":0,"x_max":0,"o":"m 1193 -1 l 650 856 l 113 -1 z "},"▽":{"ha":0,"x_min":0,"x_max":0,"o":""},"▼":{"ha":0,"x_min":0,"x_max":0,"o":"m 1190 826 l 115 826 l 650 -24 z "},"→":{"ha":0,"x_min":0,"x_max":0,"o":"m 1278 417 l 1026 643 l 1149 433 l 28 433 l 28 400 l 1149 400 l 1026 190 z "},"←":{"ha":0,"x_min":0,"x_max":0,"o":"l 29 417 l 256 294 l 46 NaN l 1167 NaN l 1167 NaN l 46 NaN l 168 NaN "},"↑":{"ha":-254,"x_min":0,"x_max":0,"o":"m 322 1110 l 96 858 l 306 981 l 306 -278 l 339 -278 l 339 981 l 549 858 z "},"↓":{"ha":-254,"x_min":0,"x_max":0,"o":"m 322 -276 l 96 -25 l 306 -147 l 306 1111 l 339 1111 l 339 -147 l 549 -25 z "},"↔":{"ha":0,"x_min":0,"x_max":0,"o":"m 1279 417 l 1035 638 l 1150 432 l 157 432 l 272 638 l 26 417 l 272 196 l 157 401 l 1150 401 l 1035 196 z "},"〓":{"ha":0,"x_min":0,"x_max":0,"o":"m 1103 271 l 1103 317 l 203 317 l 203 271 z m 1103 550 l 1103 596 l 203 596 l 203 550 z "},"«":{"ha":0,"x_min":0,"x_max":0,"o":"b 214 NaN 189 419 203 426 b -108 NaN -132 NaN -119 NaN "},"≪":{"ha":0,"x_min":0,"x_max":0,"o":"b 214 NaN 189 419 203 426 b -108 NaN -132 NaN -119 NaN "},"»":{"ha":1119,"x_min":0,"x_max":0,"o":""},"≫":{"ha":1119,"x_min":0,"x_max":0,"o":""},"√":{"ha":218,"x_min":0,"x_max":0,"o":"m 1094 810 l 1094 850 l 522 850 l 256 17 l 122 264 l 15 169 l 38 140 l 111 199 l 264 -87 l 554 810 z "},"∽":{"ha":203,"x_min":0,"x_max":0,"o":"m 1069 439 b 818 694 1069 572 965 694 b 551 482 679 694 606 592 b 276 222 511 394 428 222 b 72 439 165 222 72 324 b 278 653 72 558 143 653 b 413 611 317 653 371 635 l 435 644 b 268 694 388 674 326 694 b 29 439 149 694 29 589 b 269 181 29 282 153 181 b 571 436 443 181 526 346 l 582 457 b 821 656 646 579 701 656 b 1026 439 929 656 1026 560 b 819 218 1026 333 949 218 b 682 272 775 218 722 242 l 656 236 b 819 179 710 200 761 179 b 1069 439 965 179 1069 300 z "},"∝":{"ha":103,"x_min":0,"x_max":0,"o":"m 281 218 b 68 439 185 218 68 301 b 281 657 68 561 176 657 b 546 435 417 657 496 531 b 281 218 485 306 431 218 z m 972 640 b 821 694 924 675 872 694 b 564 488 699 694 622 593 b 289 694 511 575 429 694 b 29 439 163 694 29 603 b 290 181 29 267 167 181 b 567 389 439 181 514 301 b 821 179 610 293 708 179 b 953 207 864 179 908 183 l 939 246 b 821 218 903 229 857 218 b 583 436 715 218 632 315 b 821 654 638 560 708 654 b 951 606 857 654 911 632 z "},"∵":{"ha":0,"x_min":0,"x_max":0,"o":"m 357 742 b 301 686 357 711 332 686 b 246 742 269 686 246 711 b 301 797 246 774 269 797 b 357 742 332 797 357 774 z m 1060 742 b 1004 686 1060 711 1036 686 b 949 742 974 686 949 711 b 1004 797 949 774 974 797 b 1060 742 1036 797 1060 774 z m 708 151 b 653 96 708 119 685 96 b 597 151 621 96 597 119 b 653 207 597 182 621 207 b 708 151 685 207 708 182 z "},"∫":{"ha":-193,"x_min":0,"x_max":0,"o":"m 585 899 b 515 439 540 793 519 635 b 392 -101 508 104 446 -101 b 311 -47 354 -101 324 -74 l 276 -65 b 388 -132 293 -100 332 -132 b 506 -21 439 -132 479 -86 b 574 439 550 85 568 243 z "},"∬":{"ha":-51,"x_min":0,"x_max":0,"o":"m 717 899 l 754 917 b 640 988 736 956 692 988 z m 978 988 l 939 942 l 874 914 l 931 1121 l 985 1158 l 1003 NaN b 889 NaN 983 NaN 939 NaN z "},"∈":{"ha":0,"x_min":0,"x_max":0,"o":"m 569 772 b 210 1094 326 772 215 892 l 1136 1094 l 1136 1133 l 210 1133 b 569 1456 215 1335 326 1456 z "},"∋":{"ha":0,"x_min":0,"x_max":0,"o":"m 735 772 b 1094 1094 976 772 1088 892 l 168 1094 l 168 1133 l 1094 1133 b 735 1456 1088 1335 976 1456 z "},"⊆":{"ha":0,"x_min":0,"x_max":0,"o":"m 168 525 b 569 854 168 764 290 854 l 1136 854 l 1136 815 l 569 815 b 210 525 319 815 210 739 b 569 235 210 311 319 235 l 1136 235 l 1136 196 l 569 196 b 168 525 290 196 168 286 z m 168 -6 l 168 33 l 1142 33 l 1142 -6 z "},"⊇":{"ha":0,"x_min":0,"x_max":0,"o":"m 1138 525 b 736 854 1138 764 1015 854 l 169 854 l 169 815 l 736 815 b 1096 525 986 815 1096 739 b 736 235 1096 311 986 235 l 169 235 l 169 196 l 736 196 b 1138 525 1015 196 1138 286 z m 1138 -6 l 1138 33 l 164 33 l 164 -6 z "},"⊂":{"ha":0,"x_min":0,"x_max":0,"o":"m 210 431 b 569 772 210 644 319 772 b 210 1114 319 772 210 900 z "},"⊃":{"ha":0,"x_min":0,"x_max":0,"o":"m 1094 431 b 735 772 1094 644 985 772 b 1094 1114 985 772 1094 900 z "},"∪":{"ha":-1,"x_min":0,"x_max":0,"o":"m 450 -40 b 792 326 664 -40 792 76 l 792 893 l 831 893 l 831 326 b 450 -75 831 47 689 -75 b 69 326 211 -75 69 47 l 69 893 l 108 893 l 108 326 b 450 -40 108 76 236 -40 z "},"∩":{"ha":-1,"x_min":0,"x_max":0,"o":"m 450 894 b 792 528 664 894 792 778 l 792 -39 l 831 -39 l 831 528 b 450 929 831 807 689 929 b 69 528 211 929 69 807 l 69 -39 l 108 -39 l 108 528 b 450 894 108 778 236 894 z "},"∧":{"ha":0,"x_min":0,"x_max":0,"o":"m 639 815 l 667 815 l 1076 24 l 1043 7 l 653 761 l 263 7 l 229 24 z "},"∨":{"ha":0,"x_min":0,"x_max":0,"o":"m 639 4 l 667 4 l 1076 796 l 1043 813 l 653 58 l 263 813 l 229 796 z "},"¬":{"ha":0,"x_min":0,"x_max":0,"o":"m 1251 193 l 54 193 l 54 154 l 1213 154 l 1213 -222 l 1251 -222 z "},"￢":{"ha":0,"x_min":0,"x_max":0,"o":"m 1251 193 l 54 193 l 54 154 l 1213 154 l 1213 -222 l 1251 -222 z "},"⇒":{"ha":0,"x_min":0,"x_max":0,"o":"l 1278 0 l 1278 415 l 232 415 l 232 375 l 1318 375 l 1428 267 l 1318 158 l 232 158 l 232 118 l 1279 118 l 1106 -54 l 1135 -83 "},"⇔":{"ha":0,"x_min":0,"x_max":0,"o":"m 1222 415 l 1113 307 l 192 307 l 82 415 l 192 524 l 1113 524 l 1276 524 l 1276 415 l 436 415 l 608 586 l 579 615 l 232 267 l 579 -83 l 608 -54 l 435 118 l 1278 118 l 1104 -54 l 1133 -83 z "},"∀":{"ha":0,"x_min":0,"x_max":0,"o":"m 674 -56 l 632 -56 l 265 936 l 304 936 l 418 628 l 886 628 l 1001 936 l 1040 936 z m 653 -1 l 872 589 l 433 589 z "},"∃":{"ha":0,"x_min":0,"x_max":0,"o":"m 979 -54 l 979 935 l 335 935 l 335 896 l 929 896 l 929 479 l 368 479 l 368 442 l 929 442 l 929 -15 l 325 -15 l 325 -54 z "},"´":{"ha":-449,"x_min":0,"x_max":0,"o":"m 242 1013 z "},"˜":{"ha":351,"x_min":0,"x_max":0,"o":"m 969 933 l 947 953 b 756 899 886 910 826 899 b 626 943 711 899 669 917 b 488 986 586 969 542 986 b 281 893 419 986 342 950 l 300 874 b 489 936 360 922 411 936 b 610 899 538 936 567 925 b 757 849 661 864 703 849 b 969 933 840 849 904 876 z "},"ˇ":{"ha":-185,"x_min":0,"x_max":0,"o":"m 640 963 l 617 1003 l 357 875 l 97 1003 l 74 963 l 357 819 z "},"˘":{"ha":-182,"x_min":0,"x_max":0,"o":"m 647 972 l 606 999 b 358 868 544 908 469 868 b 111 999 247 868 174 908 l 69 972 b 358 819 142 865 232 819 b 647 972 485 819 575 863 z "},"˝":{"ha":-249,"x_min":0,"x_max":0,"o":"m 228 1013 z m 385 1013 z "},"˚":{"ha":0,"x_min":0,"x_max":0,"o":""},"˙":{"ha":-546,"x_min":0,"x_max":0,"o":"m 258 857 b 176 939 258 904 224 939 b 94 857 129 939 94 904 b 176 776 94 810 129 776 b 258 857 224 776 258 810 z "},"¸":{"ha":-458,"x_min":0,"x_max":0,"o":"m 356 -168 b 264 -74 356 -118 318 -74 b 194 -90 232 -74 215 -81 l 236 17 l 192 17 l 136 -126 l 146 -132 b 199 -121 158 -126 172 -125 b 307 -172 250 -112 307 -115 b 203 -231 307 -224 251 -231 b 101 -204 157 -231 128 -221 l 85 -239 b 199 -275 108 -256 156 -275 b 356 -168 294 -275 356 -240 z "},"˛":{"ha":-485,"x_min":0,"x_max":0,"o":"m 324 -169 l 299 -150 b 179 -222 272 -179 238 -222 b 133 -172 153 -222 133 -199 b 211 -50 133 -125 171 -89 l 189 -28 b 90 -167 124 -74 90 -124 b 186 -264 90 -218 121 -264 b 324 -169 243 -264 285 -224 z "},"¡":{"ha":-479,"x_min":0,"x_max":0,"o":"m 163 882 b 163 931 163 908 183 931 b 110 886 136 931 110 908 b NaN NaN 110 908 136 NaN z m NaN NaN l NaN NaN l NaN NaN z "},"¿":{"ha":-149,"x_min":0,"x_max":0,"o":"m 128 164 b 413 -100 128 -8 247 -100 b 611 -71 472 -100 538 -89 b 629 -47 624 -68 629 -60 l 628 -18 b 606 -6 628 -6 621 -1 b 418 -40 528 -32 467 -39 b 196 164 269 -46 196 53 b 228 296 196 213 206 257 b 324 408 246 328 281 364 b 410 518 367 451 393 489 b 449 699 436 564 449 639 b 431 718 449 719 449 718 l 401 718 b 383 697 383 718 383 718 b 349 536 383 647 374 579 b 256 422 331 504 299 467 b 167 313 213 376 182 339 b 128 164 140 268 128 218 z m 464 882 b 417 929 464 908 443 929 b 368 882 390 929 368 908 b 417 833 368 856 390 833 b 464 882 443 833 464 856 z "},"ː":{"ha":0,"x_min":0,"x_max":0,"o":"m 756 143 l 651 247 l 549 143 z m 756 693 l 547 693 l 651 588 z "},"∶":{"ha":0,"x_min":0,"x_max":0,"o":"m 756 143 l 651 247 l 549 143 z m 756 693 l 547 693 l 651 588 z "},"∮":{"ha":0,"x_min":0,"x_max":0,"o":"m 683 219 b 871 447 793 236 871 338 b 696 615 871 551 785 606 b 997 736 910 638 953 765 b 735 NaN 929 718 842 707 l 731 NaN b 543 NaN 622 NaN 543 NaN b 711 NaN 543 NaN 624 NaN b 600 NaN 689 NaN 642 NaN b 519 NaN 563 NaN 532 NaN l 485 NaN b 596 NaN 501 NaN 540 NaN b 714 NaN 647 NaN 688 NaN b 769 NaN 742 NaN 760 NaN b 783 NaN 774 NaN 779 NaN z m 924 NaN b 776 NaN 925 NaN 864 NaN l 774 NaN b 782 NaN 778 NaN 781 NaN b 792 NaN 783 NaN 788 NaN b 924 NaN 860 NaN 921 NaN z m 724 NaN b 715 NaN 722 NaN 719 NaN b 592 NaN 651 NaN 597 NaN b 731 NaN 588 NaN 647 NaN b 724 NaN 726 NaN 725 NaN z "},"∑":{"ha":15,"x_min":0,"x_max":0,"o":"m 815 -54 l 815 -7 l 193 -7 l 593 450 l 199 888 l 810 888 l 810 935 l 111 935 l 111 876 l 501 454 l 99 -10 l 99 -54 z "},"∏":{"ha":149,"x_min":0,"x_max":0,"o":"m 969 886 l 969 935 l 78 935 l 78 886 l 285 886 l 285 -54 l 344 -54 l 344 886 l 703 886 l 703 -54 l 763 -54 l 763 886 z "},"¤":{"ha":265,"x_min":0,"x_max":0,"o":"m 58 -22 l 225 125 b 124 417 157 203 124 306 b 217 699 124 521 154 619 l 65 832 l 93 858 l 240 724 b 571 863 326 817 443 863 b 910 713 704 863 825 804 l 1074 856 l 1101 831 l 935 683 b 1018 415 992 608 1018 517 b 926 138 1018 313 989 215 l 1090 -11 l 1068 -36 l 901 108 b 571 -32 818 24 701 -32 b 250 99 444 -32 332 19 l 82 -51 z m 571 822 b 165 417 344 822 165 647 b 571 8 165 197 338 8 b 978 415 801 8 978 197 b 571 822 978 643 796 822 z "},"℉":{"ha":0,"x_min":0,"x_max":0,"o":"m 1100 832 l 1100 879 l 550 879 l 550 -54 l 610 -54 l 610 408 l 1051 408 l 1051 457 l 610 457 l 610 832 "},"‰":{"ha":157,"x_min":0,"x_max":0,"o":"m 792 197 b 674 -24 792 76 754 -24 b 560 197 596 -24 560 76 b 674 418 560 318 596 418 b 792 197 754 418 792 318 z m 361 665 b 246 444 361 544 326 444 b 131 665 167 444 131 544 b 246 886 131 786 167 886 b 361 665 326 886 361 786 z m 1174 197 b 1060 -24 1174 76 1139 -24 b 943 197 981 -24 943 76 b 1060 418 943 318 981 418 b 1174 197 1139 418 1174 318 z m 839 197 z m 410 665 z m 1222 197 z m 185 -106 b -29 -218 138 -3 19 -115 b -25 -362 -186 -375 -137 -478 b 285 -424 25 -260 182 -308 b -90 -581 169 -472 67 -629 b 21 -256 -193 -465 -82 -412 b -192 -371 -28 -153 -142 -268 b -183 -521 -349 -528 -299 -631 b 278 292 -131 -418 72 -64 b NaN NaN 481 649 NaN NaN l NaN NaN b NaN NaN NaN NaN NaN NaN z "},"◁":{"ha":0,"x_min":0,"x_max":0,"o":"m 1038 -37 l 311 417 l 1038 874 z m 1082 -122 l 1082 958 l 224 417 z "},"◀":{"ha":0,"x_min":0,"x_max":0,"o":"m 1079 -117 l 1079 953 l 226 415 z "},"▷":{"ha":0,"x_min":0,"x_max":0,"o":"m 994 417 l 268 -37 l 268 874 z m 1082 417 l 224 958 l 224 -122 z "},"▶":{"ha":0,"x_min":0,"x_max":0,"o":"m 1079 415 l 226 953 l 226 -117 z "},"♤":{"ha":0,"x_min":0,"x_max":0,"o":"m 1071 278 b 917 107 1071 193 1017 107 b 735 182 829 107 754 182 b 699 113 696 182 690 163 b 753 -94 710 47 726 -7 b 713 -122 758 -112 746 -121 b 593 -122 678 -126 628 -126 b 553 -94 554 -122 547 -112 b 608 119 579 -7 599 54 b 571 182 615 169 610 182 b 389 113 549 182 476 113 b 235 278 289 113 235 193 b 653 943 235 426 481 736 b 1071 278 825 736 1071 426 z m 1106 279 b 653 999 1106 442 863 736 b 200 279 443 736 200 442 b 393 71 200 160 276 71 b 576 150 447 71 503 103 b 504 -124 569 76 542 -47 b 524 -154 496 -142 503 -151 b 782 -154 590 -164 713 -164 b 801 -124 803 -151 810 -142 b 729 150 764 -54 733 81 b 913 71 800 104 858 71 b 1106 279 1029 71 1106 160 z "},"♠":{"ha":0,"x_min":0,"x_max":0,"o":"m 1101 279 b 653 990 1101 442 858 732 b 204 279 447 732 204 442 b 397 75 204 164 281 75 b 563 140 451 75 492 100 b 490 -115 556 67 528 -43 b 510 -146 482 -133 489 -143 b 653 -153 549 -150 599 -153 b 796 -146 701 -153 758 -150 b 815 -115 817 -143 824 -133 b 743 140 778 -50 747 71 b 908 75 814 100 854 75 b 1101 279 1025 75 1101 164 z "},"♡":{"ha":0,"x_min":0,"x_max":0,"o":"m 1104 663 b 656 -78 1104 433 874 132 b 207 663 457 106 207 433 b 435 904 207 800 281 904 b 611 717 519 904 588 796 b 614 706 613 714 613 710 b 656 644 621 675 629 644 b 700 717 679 644 692 686 b 876 904 722 796 788 904 b 1104 663 1028 904 1104 800 z m 1140 663 b 897 932 1140 817 1031 932 b 660 682 781 932 700 860 l 651 682 b 415 932 611 860 531 932 b 171 663 281 932 171 817 b 656 -128 171 399 456 65 b 1140 663 856 65 1140 399 z "},"♥":{"ha":0,"x_min":0,"x_max":0,"o":"m 1133 657 b 888 924 1133 813 1024 924 b 653 679 775 924 693 857 b 418 924 613 857 531 924 b 172 657 282 924 172 813 b 653 -119 172 397 458 68 b 1133 657 847 68 1133 397 z "},"♧":{"ha":0,"x_min":0,"x_max":0,"o":"m 1167 292 b 979 75 1167 188 1094 75 b 804 161 890 75 842 124 b 738 203 781 183 760 203 b 717 174 719 203 717 193 b 735 82 717 143 725 113 b 761 -100 747 38 761 -15 b 739 -122 761 -112 753 -121 b 656 -126 717 -125 678 -126 b 574 -122 633 -126 594 -125 b 550 -100 558 -121 550 -112 b 578 82 550 -15 564 38 b 594 174 586 113 594 143 b 575 203 594 193 592 203 b 506 160 550 203 529 182 b 332 75 468 122 421 75 b 144 292 217 75 144 188 b 325 497 144 386 217 497 b 468 450 385 497 431 472 l 467 450 b 538 421 494 435 517 421 b 608 494 583 421 608 451 b 550 578 608 528 582 550 b 449 774 504 617 449 667 b 656 956 449 883 558 956 b 863 774 756 956 863 883 b 761 578 863 667 807 617 b 703 494 729 550 703 528 b 774 421 703 451 728 421 b 844 450 794 421 817 435 l 843 450 b 986 497 881 472 926 497 b 1167 292 1094 497 1167 386 z m 1207 292 b 982 538 1207 419 1114 538 b 797 475 922 538 850 501 b 751 482 781 467 758 469 l 751 481 b 764 526 740 499 753 515 b 904 768 850 603 904 668 b 656 989 904 904 786 989 b 408 768 525 989 408 904 b 551 528 408 668 465 604 b 564 482 563 517 576 500 l 564 483 b 518 476 557 471 535 468 b 329 538 465 503 389 538 b 104 292 197 538 104 419 b 336 36 104 160 194 36 b 557 151 433 36 515 106 l 563 147 b 508 -136 533 85 508 -35 b 529 -154 508 -146 519 -153 b 656 -158 574 -158 614 -158 b 782 -154 733 -158 740 -158 b 803 -136 792 -153 803 -146 b 749 147 803 -35 775 85 l 754 151 b 975 36 796 106 878 36 b 1207 292 1117 36 1207 160 z "},"♣":{"ha":0,"x_min":0,"x_max":0,"o":"m 1196 293 b 972 542 1196 422 1106 542 b 808 490 911 542 857 517 b 768 494 793 483 774 485 b 779 535 758 510 769 525 b 899 761 863 607 899 661 b 653 981 899 899 785 981 b 407 761 521 981 407 899 b 526 535 407 661 443 607 b 538 494 536 525 547 510 b 497 490 532 485 513 483 b 333 542 449 517 394 542 b 110 293 200 542 110 422 b 340 40 110 164 197 40 b 557 154 438 40 515 108 b 503 -122 528 92 503 -26 b 528 -144 503 -135 515 -143 b 653 -149 574 -149 610 -149 b 778 -144 732 -149 732 -149 b 803 -122 790 -143 803 -135 b 749 154 803 -26 775 92 b 965 40 790 108 868 40 b 1196 293 1108 40 1196 164 z "},"⊙":{"ha":0,"x_min":0,"x_max":0,"o":"m 868 415 b 653 631 868 535 772 631 b 438 415 536 631 438 535 b 653 200 438 296 536 200 b 868 415 772 200 868 296 z m 1174 417 b 663 929 1174 697 942 929 b 151 417 382 929 151 697 b 663 -93 151 138 382 -93 b 1174 417 942 -93 1174 138 z m 1210 417 b 663 -131 1210 114 965 -131 b 115 417 364 -131 115 114 b 663 964 115 721 364 964 b 1210 417 965 964 1210 721 z "},"◉":{"ha":0,"x_min":0,"x_max":0,"o":"m 868 415 b 653 631 868 535 772 631 b 438 415 536 631 438 535 b 653 200 438 296 536 200 b 868 415 772 200 868 296 z m 1174 417 b 663 929 1174 697 942 929 b 151 417 382 929 151 697 b 663 -93 151 138 382 -93 b 1174 417 942 -93 1174 138 z m 1210 417 b 663 -131 1210 114 965 -131 b 115 417 364 -131 115 114 b 663 964 115 721 364 964 b 1210 417 965 964 1210 721 z "},"◈":{"ha":0,"x_min":0,"x_max":0,"o":"m 654 36 l 1029 413 l 654 789 l 276 413 z m 651 -129 l 104 413 l 654 956 l 1197 414 l 654 -129 z m 653 -176 l 1244 414 l 654 1004 l 57 413 z "},"▣":{"ha":0,"x_min":0,"x_max":0,"o":"m 978 738 l 328 738 l 328 88 l 978 88 z m 178 -56 l 178 882 l 1122 882 l 1122 -56 z m 1158 918 l 142 918 l 142 -92 l 1158 -92 z "},"◐":{"ha":0,"x_min":0,"x_max":0,"o":"m 1151 415 b 651 -82 1151 143 925 -82 l 651 914 b 1151 415 925 914 1151 686 z m 1197 415 b 656 957 1197 714 956 957 b 114 415 360 957 114 714 b 656 -128 114 115 360 -128 b 1197 415 956 -128 1197 115 z "},"◑":{"ha":0,"x_min":0,"x_max":0,"o":"m 160 415 b 660 -82 160 143 386 -82 l 660 914 b 160 415 386 914 160 686 z m 114 415 b 656 957 114 714 356 957 b 1197 415 951 957 1197 714 b 656 -128 1197 115 951 -128 b 114 415 356 -128 114 115 z "},"▒":{"ha":131,"x_min":0,"x_max":0,"o":"m 297 26 b 264 61 297 47 285 61 b 228 26 243 61 228 47 b 264 -10 228 6 243 -10 b 297 26 285 -10 297 6 z m 428 26 b 393 61 428 47 411 61 b 357 26 372 61 357 47 b 393 -10 357 6 372 -10 b 428 26 411 -10 428 6 z m 297 157 b 264 190 297 175 285 190 b 228 157 243 190 228 175 b 264 121 228 136 243 121 b 297 157 285 121 297 136 z m 428 157 b 393 190 428 175 411 190 b 357 157 372 190 357 175 b 393 121 357 136 372 121 b 428 157 411 121 428 136 z m 167 417 b 200 274 167 286 188 274 b 236 NaN 215 274 236 NaN z m 497 NaN b 461 NaN 497 NaN 482 NaN b 426 NaN 440 NaN 426 NaN b 463 NaN 426 NaN 442 NaN b 497 NaN 481 NaN 497 NaN z m 757 NaN b 722 NaN 757 NaN 743 NaN b 688 NaN 704 NaN 688 NaN b 722 NaN 688 NaN 704 NaN b 757 NaN 743 NaN 757 NaN z m 367 NaN b 333 NaN 367 NaN 354 NaN b 367 NaN 354 NaN 367 NaN z m 757 NaN b 722 NaN 757 NaN 743 NaN b 688 NaN 704 NaN 688 NaN b 722 NaN 688 NaN 704 NaN b 757 NaN 743 NaN 757 NaN z m 626 NaN b 739 NaN 626 NaN 756 NaN b 735 NaN 753 NaN 735 NaN b NaN NaN 735 NaN 753 NaN z m NaN NaN b NaN NaN NaN NaN NaN NaN b NaN NaN NaN NaN NaN NaN b NaN NaN NaN NaN NaN NaN b NaN NaN NaN NaN NaN NaN z m NaN NaN b NaN NaN NaN NaN NaN NaN z m NaN NaN b NaN NaN NaN NaN NaN NaN b NaN NaN NaN NaN NaN NaN b NaN NaN NaN NaN NaN NaN b NaN NaN NaN NaN NaN NaN b NaN NaN NaN NaN NaN NaN b NaN NaN NaN NaN NaN NaN b NaN NaN NaN NaN NaN NaN z m NaN NaN b NaN NaN NaN NaN NaN NaN z m NaN NaN b NaN NaN NaN NaN NaN NaN b NaN NaN NaN NaN NaN NaN b NaN NaN NaN NaN NaN NaN b NaN NaN NaN NaN NaN NaN z m NaN NaN b NaN NaN NaN NaN NaN NaN b NaN NaN NaN NaN NaN NaN b NaN NaN NaN NaN NaN NaN b NaN NaN NaN NaN NaN NaN z m NaN NaN b NaN NaN NaN NaN NaN NaN b NaN NaN NaN NaN NaN NaN b NaN NaN NaN NaN NaN NaN b NaN NaN NaN NaN NaN NaN z m NaN NaN b NaN NaN NaN NaN NaN NaN b NaN NaN NaN NaN NaN NaN b NaN NaN NaN NaN NaN NaN b NaN NaN NaN NaN NaN NaN b NaN NaN NaN NaN NaN NaN b NaN NaN NaN NaN NaN NaN z m NaN NaN b NaN NaN NaN NaN NaN NaN b NaN NaN NaN NaN NaN NaN b NaN NaN NaN NaN NaN NaN b NaN NaN NaN NaN NaN NaN z m NaN NaN b NaN NaN NaN NaN NaN NaN b NaN NaN NaN NaN NaN NaN b NaN NaN NaN NaN NaN NaN b NaN NaN NaN NaN NaN NaN z m NaN NaN b NaN NaN NaN NaN NaN NaN b NaN NaN NaN NaN NaN NaN z m NaN NaN b NaN NaN NaN NaN NaN NaN b NaN NaN NaN NaN NaN NaN b NaN NaN NaN NaN NaN NaN b NaN NaN NaN NaN NaN NaN z m NaN NaN b NaN NaN NaN NaN NaN NaN b NaN NaN NaN NaN NaN NaN b NaN NaN NaN NaN NaN NaN b NaN NaN NaN NaN NaN NaN z m NaN NaN b NaN NaN NaN NaN NaN NaN z m NaN NaN b NaN NaN NaN NaN NaN NaN b NaN NaN NaN NaN NaN NaN b NaN NaN NaN NaN NaN NaN b NaN NaN NaN NaN NaN NaN b NaN NaN NaN NaN NaN NaN b NaN NaN NaN NaN NaN NaN z m NaN NaN b NaN NaN NaN NaN NaN NaN b NaN NaN NaN NaN NaN NaN b NaN NaN NaN NaN NaN NaN z m NaN NaN b NaN NaN NaN NaN NaN NaN z m NaN NaN b NaN NaN NaN NaN NaN NaN b NaN NaN NaN NaN NaN NaN b NaN NaN NaN NaN NaN NaN b NaN NaN NaN NaN NaN NaN z m NaN NaN b NaN NaN NaN NaN NaN NaN b NaN NaN NaN NaN NaN NaN b NaN NaN NaN NaN NaN NaN b NaN NaN NaN NaN NaN NaN z m NaN NaN b NaN NaN NaN NaN NaN NaN b NaN NaN NaN NaN NaN NaN b NaN NaN NaN NaN NaN NaN b NaN NaN NaN NaN NaN NaN b NaN NaN NaN NaN NaN NaN b NaN NaN NaN NaN NaN NaN z m NaN NaN b NaN NaN NaN NaN NaN NaN b NaN NaN NaN NaN NaN NaN b NaN NaN NaN NaN NaN NaN z m NaN NaN b NaN NaN NaN NaN NaN NaN b NaN NaN NaN NaN NaN NaN b NaN NaN NaN NaN NaN NaN z m NaN NaN b NaN NaN NaN NaN NaN NaN b NaN NaN NaN NaN NaN NaN b NaN NaN NaN NaN NaN NaN z m NaN NaN b NaN NaN NaN NaN NaN NaN b NaN NaN NaN NaN NaN NaN z m NaN NaN b NaN NaN NaN NaN NaN NaN b NaN NaN NaN NaN NaN NaN z m NaN NaN "},"▤":{"ha":0,"x_min":0,"x_max":0,"o":"m 1124 -57 "},"▥":{"ha":0,"x_min":0,"x_max":0,"o":"m 276 -57 l 182 -57 l 182 883 l 276 883 z m 422 -57 l 321 -57 l 321 883 l 422 883 z m 558 -57 l 467 -57 l 467 883 l 558 883 z m 701 -57 l 603 -57 l 603 883 l 701 883 z m 846 -57 l 746 -57 l 746 883 l 846 883 z m 985 -57 l 890 -57 l 890 883 l 985 883 z m 1124 -57 "},"▨":{"ha":0,"x_min":0,"x_max":0,"o":"m 1089 883 l 182 -24 l 182 140 l 926 883 z m 860 883 l 182 207 l 182 371 l 696 883 z m 629 883 l 182 438 l 182 603 l 464 883 z m 397 883 l 182 669 l 182 883 z m 1124 -57 l 907 -57 l 1124 160 z m 1124 226 l 840 -57 l 676 -57 l 1124 390 z m 1124 457 l 610 -57 l 446 -57 l 1124 621 z m 1124 688 l 379 -57 l 215 -57 l 1124 851 z m 1169 -103 l 1169 929 l 136 929 l 136 -103 z "},"▧":{"ha":0,"x_min":0,"x_max":0,"o":"m 399 -57 l 182 -57 l 182 160 z m 629 -57 l 465 -57 l 182 226 l 182 390 z m 860 -57 l 696 -57 l 182 457 l 182 621 z m 1090 -57 l 926 -57 l 182 688 l 182 851 z m 1124 -24 l 217 883 l 379 883 l 1124 140 z m 1124 207 l 446 883 l 610 883 l 1124 371 z m 1124 438 l 676 883 l 842 883 l 1124 603 z m 1124 669 l 908 883 "},"▦":{"ha":281,"x_min":0,"x_max":0,"o":"m 0 42 z m 0 83 z m -140 125 l -197 125 l -197 265 l -436 265 l -436 546 l -815 546 l -815 967 l -1335 967 l -1335 868 l -1236 868 l -1236 967 z m -1376 1008 l -815 1008 l -815 349 l -914 349 l -914 447 l -815 447 z m -956 489 l -1054 489 l -1054 588 l -956 588 z m -1096 629 z m -1236 671 l -535 671 l -535 -129 l 308 -129 l 308 -1069 l 210 -1069 l 210 -971 l 308 -971 z m 167 -789 z m 25 -607 z m 25 -565 "},"▩":{"ha":-82,"x_min":0,"x_max":0,"o":"m 399 -57 l 211 -57 l 304 38 z m 271 71 l 182 -18 l 182 160 z m 513 60 l 432 -24 l 338 71 l 249 160 l 331 242 z m 663 -90 l 497 -90 l 581 -8 z m 297 275 l 215 194 l 215 357 z m 778 25 l 696 -57 l 614 25 l 696 107 z m 663 140 l 579 58 l 486 153 l 569 235 z m 535 268 z m 501 301 l 419 213 l 508 131 l 426 NaN l 426 NaN z m 1104 NaN l 940 NaN l 1022 NaN z m 1219 NaN z m 1058 NaN l 976 NaN l 894 NaN l 814 NaN l 724 NaN l 806 NaN z m 772 NaN z m 1219 NaN l 1138 NaN l 1056 NaN l 972 NaN l 881 NaN l 963 NaN z m 575 NaN l 493 NaN l 493 NaN z m 1401 NaN l 1238 NaN l 1319 NaN z m 1435 NaN l 1353 NaN l 1435 NaN z m 690 NaN l 608 NaN l 528 NaN z m 921 NaN l 840 NaN l 757 NaN l 838 NaN z m 1401 NaN l 1319 NaN l 1238 NaN l 1156 NaN l 1236 NaN z m 1076 NaN l 996 NaN l 907 NaN l 988 NaN z m 839 NaN l 757 NaN l 675 NaN l 756 NaN z m 1204 NaN l 1121 NaN l 1029 NaN l 1110 NaN z m 1468 NaN l 1386 NaN l 1468 NaN z m 954 NaN l 872 NaN l 790 NaN z m 1435 NaN l 1353 NaN l 1269 NaN l 1351 NaN z m 1318 NaN l 1236 NaN l 1144 NaN l 1054 NaN l 1136 NaN z m 1104 NaN l 1021 NaN l 939 NaN l 1021 NaN z m 1501 NaN l 1418 NaN l 1501 NaN z m 1221 NaN l 1138 NaN l 1054 NaN z m 1342 NaN l 1260 NaN l 1169 NaN l 1253 NaN z m 1468 NaN l 1385 NaN l 1292 NaN l 1376 NaN z m 1465 NaN l 1375 NaN l 1286 NaN z m 1501 NaN l 1408 NaN l 1501 NaN z m 1547 NaN l 1547 NaN l 514 NaN l 514 NaN z "},"♨":{"ha":0,"x_min":0,"x_max":0,"o":"m 1206 140 b 967 335 1206 263 1021 328 b 961 313 949 339 939 319 b 1121 160 1011 297 1121 236 b 661 -11 1121 54 882 -11 b 200 131 439 -11 200 36 b 390 322 200 240 375 315 b 388 347 414 329 408 354 b 99 103 311 325 99 251 b 660 -150 99 -46 367 -150 b 1206 140 951 -150 1206 -31 z m 553 363 b 496 703 538 501 474 622 b 510 911 528 814 519 883 b 490 910 506 922 494 925 b 458 826 485 883 474 853 b 428 479 403 722 375 607 b 418 182 469 378 438 235 b 419 47 397 122 408 71 b 443 47 429 31 442 32 b 476 133 444 64 453 89 b 553 363 522 221 558 307 z m 750 397 b 694 747 721 542 647 611 b 690 975 728 839 708 936 b 669 972 683 990 669 993 b 638 843 669 943 664 897 b 608 504 600 765 535 675 b 610 203 622 472 665 332 b 599 32 578 126 586 61 b 622 33 604 19 621 17 b 664 135 624 51 636 83 b 750 397 692 186 765 315 z m 933 414 b 871 707 918 553 853 579 b 854 906 886 813 869 876 b 835 903 844 926 835 919 b 817 807 835 879 829 839 b 817 483 776 710 754 625 b 781 176 857 388 815 260 b 775 39 763 133 764 64 b 794 39 781 22 790 29 b 833 140 799 56 810 94 b 933 414 863 200 944 275 z "},"☏":{"ha":0,"x_min":0,"x_max":0,"o":"m 32 0 b -204 236 32 129 -75 236 b -440 0 -333 236 -440 129 b -204 -236 -440 -129 -333 -236 b 32 0 -75 -236 32 -129 z m 258 -289 l -667 -289 b -651 -200 -678 -289 -683 -218 b -589 -6 -651 -154 -640 -53 b -442 174 -503 76 -468 106 b -406 411 -407 268 -400 351 l -340 411 l -340 294 l -68 294 l -68 411 l -3 411 b 33 174 -8 351 -1 268 b 181 -6 60 106 94 76 b 243 -200 232 -53 243 -154 b 258 -289 275 -218 269 -289 z m 347 181 b 122 238 278 174 172 207 b 131 378 100 253 153 326 b -53 440 111 415 72 440 b -117 433 -74 440 -96 438 b -204 422 -149 426 -172 422 b -292 433 -236 422 -260 426 b -356 440 -312 438 -335 440 b -539 378 -479 440 -524 417 b -531 238 -561 326 -508 253 b -756 181 -581 207 -686 174 b -685 411 -776 185 -792 326 b -204 525 -603 478 -396 525 b 276 411 -58 525 194 478 b 347 181 381 325 371 185 "},"☎":{"ha":0,"x_min":0,"x_max":0,"o":""},"☜":{"ha":0,"x_min":0,"x_max":0,"o":"m 1147 271 l 1147 568 l 1053 568 l 1053 528 l 1038 528 b 978 535 1021 528 1000 529 b 668 610 890 615 775 610 b 157 554 296 610 157 614 b 313 500 157 503 242 504 b 529 492 406 493 451 492 b 533 481 531 488 532 485 b 429 431 460 481 429 468 b 475 389 429 401 451 393 b 461 356 467 381 461 369 b 508 310 461 326 485 310 b 489 281 496 301 489 293 b 694 221 489 221 583 221 b 1015 297 871 221 961 265 l 1051 297 l 1051 271 z m 1053 313 l 1028 313 b 1031 324 1029 317 1031 319 b 1028 326 1031 325 1029 326 b 1021 324 1026 326 1024 325 b 742 243 969 290 885 243 b 722 244 735 243 728 243 b 739 281 731 253 739 261 b 699 322 739 301 725 314 b 718 353 708 331 718 338 b 678 397 718 376 706 390 b 694 433 688 406 694 418 b 610 481 694 465 668 481 b 629 497 617 486 622 492 b 682 489 639 493 658 490 b 711 493 692 489 701 489 b 925 396 731 469 803 396 b 947 403 938 396 947 399 b 831 431 947 418 897 408 b 731 496 776 449 742 481 b 750 521 740 504 750 514 b 746 526 750 524 749 526 b 682 504 738 526 718 504 b 644 510 669 504 653 507 b 650 NaN 644 514 650 NaN b 644 NaN 650 NaN 647 NaN b 558 NaN 636 NaN 597 NaN b 546 NaN 549 NaN 546 NaN b 600 NaN 546 NaN 588 NaN b 719 NaN 636 NaN 676 NaN b 917 NaN 778 NaN 874 NaN b 999 NaN 958 NaN 994 NaN b 1000 NaN 1000 NaN 1000 NaN b 996 NaN 1000 NaN 997 NaN b 1033 NaN 1006 NaN 1021 NaN b 1051 NaN 1040 NaN 1047 NaN z m 618 NaN b 542 NaN 579 NaN 549 NaN b 306 NaN 474 NaN 408 NaN b 176 NaN 211 NaN 176 NaN b 306 NaN 176 NaN 224 NaN b 618 NaN 421 NaN 535 NaN z m 1126 NaN l 1071 NaN l 1071 NaN l 1126 NaN z m 696 NaN b 657 NaN 694 NaN 672 NaN l 560 NaN b 481 NaN 499 NaN 481 NaN b 588 NaN 481 NaN 517 NaN l 643 NaN b 696 NaN 683 NaN 696 NaN z m 717 NaN l 717 NaN b 624 NaN 717 NaN 675 NaN b 511 NaN 576 NaN 511 NaN b 603 NaN 511 NaN 560 NaN b 717 NaN 644 NaN 714 NaN z m 667 NaN b 563 NaN 667 NaN 610 NaN l 500 NaN b 449 NaN 467 NaN 449 NaN b 543 NaN 449 NaN 508 NaN b 667 NaN 579 NaN 667 NaN z "},"☞":{"ha":0,"x_min":0,"x_max":0,"o":"m 1147 554 b 597 610 1147 617 999 610 b 326 535 501 610 403 606 b 265 528 304 529 283 528 l 251 528 l 251 568 l 157 568 l 157 271 l 253 271 l 253 297 l 289 297 b 608 221 342 265 432 221 b 815 281 724 221 815 221 b NaN NaN 815 268 824 NaN b NaN NaN NaN NaN NaN NaN b NaN NaN NaN NaN NaN NaN b NaN NaN NaN NaN NaN NaN b NaN NaN NaN NaN NaN NaN b NaN NaN NaN NaN NaN NaN b NaN NaN NaN NaN NaN NaN b NaN NaN NaN NaN NaN NaN z m NaN NaN b NaN NaN NaN NaN NaN NaN b NaN NaN NaN NaN NaN NaN b NaN NaN NaN NaN NaN NaN b NaN NaN NaN NaN NaN NaN b NaN NaN NaN NaN NaN NaN b NaN NaN NaN NaN NaN NaN b NaN NaN NaN NaN NaN NaN b NaN NaN NaN NaN NaN NaN b NaN NaN NaN NaN NaN NaN b NaN NaN NaN NaN NaN NaN b NaN NaN NaN NaN NaN NaN b NaN NaN NaN NaN NaN NaN b NaN NaN NaN NaN NaN NaN b NaN NaN NaN NaN NaN NaN b NaN NaN NaN NaN NaN NaN b NaN NaN NaN NaN NaN NaN b NaN NaN NaN NaN NaN NaN b NaN NaN NaN NaN NaN NaN b NaN NaN NaN NaN NaN NaN b NaN NaN NaN NaN NaN NaN b NaN NaN NaN NaN NaN NaN b NaN NaN NaN NaN NaN NaN b NaN NaN NaN NaN NaN NaN b NaN NaN NaN NaN NaN NaN b NaN NaN NaN NaN NaN NaN b NaN NaN NaN NaN NaN NaN b NaN NaN NaN NaN NaN NaN b NaN NaN NaN NaN NaN NaN b NaN NaN NaN NaN NaN NaN l NaN NaN l NaN NaN b NaN NaN NaN NaN NaN NaN b NaN NaN NaN NaN NaN NaN b NaN NaN NaN NaN NaN NaN b NaN NaN NaN NaN NaN NaN b NaN NaN NaN NaN NaN NaN b NaN NaN NaN NaN NaN NaN b NaN NaN NaN NaN NaN NaN b NaN NaN NaN NaN NaN NaN z m NaN NaN b NaN NaN NaN NaN NaN NaN b NaN NaN NaN NaN NaN NaN b NaN NaN NaN NaN NaN NaN b NaN NaN NaN NaN NaN NaN b NaN NaN NaN NaN NaN NaN z m NaN NaN l NaN NaN l NaN NaN l NaN NaN z m NaN NaN b NaN NaN NaN NaN NaN NaN l NaN NaN b NaN NaN NaN NaN NaN NaN b NaN NaN NaN NaN NaN NaN l NaN NaN b NaN NaN NaN NaN NaN NaN z m NaN NaN b NaN NaN NaN NaN NaN NaN b NaN NaN NaN NaN NaN NaN b NaN NaN NaN NaN NaN NaN b NaN NaN NaN NaN NaN NaN b NaN NaN NaN NaN NaN NaN z m NaN NaN b NaN NaN NaN NaN NaN NaN l NaN NaN b NaN NaN NaN NaN NaN NaN b NaN NaN NaN NaN NaN NaN b NaN NaN NaN NaN NaN NaN z "},"¶":{"ha":-58,"x_min":0,"x_max":0,"o":"m 447 -153 l 481 -153 l 481 963 l 697 963 l 697 -153 l 728 -153 l 728 992 l 390 992 b 111 721 172 992 111 853 b 378 469 111 542 244 469 l 447 469 z "},"†":{"ha":-132,"x_min":0,"x_max":0,"o":"m 365 -17 l 403 -17 l 403 538 l 683 538 l 683 572 l 403 572 l 403 889 l 365 889 l 365 572 l 83 572 l 83 538 l 365 538 z "},"‡":{"ha":-132,"x_min":0,"x_max":0,"o":"m 683 446 l 683 481 l 403 481 l 403 672 l 683 672 l 683 707 l 403 707 l 403 889 l 365 889 l 365 707 l 83 707 l 83 672 l 365 672 l 365 481 l 83 481 l 83 446 l 365 446 l 365 -17 l 403 -17 l 403 446 z "},"↕":{"ha":-282,"x_min":0,"x_max":0,"o":"m 308 1108 l 88 864 l 88 -262 l -118 -147 l 103 -393 l 324 -147 l 118 -262 l 118 864 l 324 749 z "},"↗":{"ha":0,"x_min":0,"x_max":0,"o":"m 1257 746 l 1257 1083 l 922 1046 l 1147 983 l 49 -237 l 72 -261 l 1171 958 z "},"↙":{"ha":0,"x_min":0,"x_max":0,"o":"m 1257 1068 l 1233 1092 l 135 -128 l 49 85 l 49 -253 l 383 -215 l 158 -153 z "},"↖":{"ha":0,"x_min":0,"x_max":0,"o":"m 1257 -237 l 158 983 l 383 1046 l 49 1083 l 49 746 l 135 958 l 1233 -261 z "},"↘":{"ha":0,"x_min":0,"x_max":0,"o":"m 1257 -253 l 1257 85 l 1171 -128 l 72 1092 l 49 1068 l 1147 -153 l 922 -215 z "},"♭":{"ha":-181,"x_min":0,"x_max":0,"o":"m 476 318 l 475 318 b 225 33 475 115 333 40 l 225 331 b 376 494 225 396 272 494 b 476 318 438 494 476 417 z m 581 369 b 419 565 581 488 508 565 b 225 433 293 565 247 492 l 225 889 l 138 889 l 138 -35 b 581 369 324 -24 581 54 z "},"♩":{"ha":-360,"x_min":0,"x_max":0,"o":"m 400 160 l 400 919 l 349 919 l 349 163 z "},"♪":{"ha":-150,"x_min":0,"x_max":0,"o":"m 665 471 b 444 781 665 556 604 643 b 347 879 394 824 371 851 b 304 913 325 906 317 913 b 292 857 292 913 292 881 l 292 163 l 292 118 l 285 118 l 285 79 l 272 79 l 272 44 l 251 44 l 251 -21 l 211 -21 l 211 -79 l 121 -79 l 121 -26 l 64 -26 l 64 446 b 306 253 146 419 306 376 b 168 -15 306 126 217 33 b 182 -32 153 -31 161 -44 b 331 111 232 -3 293 56 b 385 285 369 171 385 229 z "},"♬":{"ha":64,"x_min":0,"x_max":0,"o":"m 831 675 l 349 572 l 349 653 l 831 756 z m 886 265 l 886 896 l 293 776 l 293 157 l 603 157 l 1085 261 z "},"㉿":{"ha":0,"x_min":0,"x_max":0,"o":"m 1243 418 b 1239 489 1243 442 1242 465 l 871 489 l 871 389 l 1142 389 b 989 60 1135 260 1085 150 b 651 -74 896 -29 783 -74 b 354 29 539 -74 439 -39 b 185 289 269 96 213 182 l 76 288 b 282 -40 107 156 175 46 b 651 -172 392 -128 514 -172 b 1069 0 814 -172 953 -115 b 1243 418 1185 115 1243 256 z m 950 117 l 644 449 l 906 740 l 761 740 l 561 508 l 561 746 l 444 746 l 444 117 l 561 117 l 561 374 l 567 381 l 796 117 z m 1096 614 l 1206 614 b 993 897 1163 732 1092 826 b 651 1007 892 971 778 1007 b 235 833 488 1006 349 947 b 63 418 119 718 63 581 l 63 389 l 336 389 l 336 489 l 164 489 b 329 789 183 610 239 710 b 651 910 424 871 531 911 b 922 825 753 910 840 879 b 1096 614 1000 772 1058 701 z "},"㈜":{"ha":53,"x_min":0,"x_max":0,"o":"m 1006 831 l 293 831 l 293 792 l 631 792 b 267 500 643 644 471 529 l 283 463 b 656 706 525 511 629 622 b 1032 464 693 622 803 513 l 1050 497 b 678 792 878 524 665 644 l 1006 792 l 1267 792 l 1267 417 l 1214 417 l 1214 654 l 1110 654 l 1110 617 b 1250 -29 1224 396 1250 189 b NaN -468 1250 -247 1224 -468 l NaN -468 z m NaN -1114 b NaN -679 NaN -876 NaN -654 b NaN NaN NaN -474 NaN NaN b NaN NaN NaN NaN NaN NaN l NaN NaN b NaN NaN NaN NaN NaN NaN z m NaN NaN l NaN NaN l NaN NaN l NaN NaN l NaN NaN l NaN NaN l NaN NaN l NaN NaN l NaN NaN l NaN NaN l NaN NaN l NaN NaN z "},"№":{"ha":0,"x_min":0,"x_max":0,"o":"m 129 -60 l 129 322 b 132 879 129 540 132 735 l 135 879 b 306 451 186 743 263 554 l 518 -60 l 574 -60 l 574 938 l 535 938 l 535 539 b 536 -1 535 369 531 171 l 533 -1 b 351 447 492 111 400 331 l 149 938 l 90 938 l 90 -60 "},"㏇":{"ha":0,"x_min":0,"x_max":0,"o":"m 629 308 l 592 308 b 367 -31 582 133 492 -31 b 113 440 185 -31 113 224 b 367 910 113 654 185 910 b 583 643 469 910 561 792 l 619 643 b 367 956 606 829 488 956 b 68 440 171 956 68 724 b 367 -75 68 157 169 -75 b 629 308 513 -75 614 90 "},"™":{"ha":0,"x_min":0,"x_max":0,"o":"m 567 958 l 567 993 l 86 993 l 86 958 l 308 958 l 308 568 l 344 568 l 344 958 z m 935 568 l 893 568 l 643 958 l 643 568 l 610 568 l 610 993 l 660 993 l 914 596 l 1168 993 l 1218 993 l 1218 568 l 1185 568 l 1185 958 z "},"㏂":{"ha":126,"x_min":0,"x_max":0,"o":"m 443 -50 l 443 -12 b 426 -18 438 -17 433 -18 b 399 57 406 -18 399 24 l 399 451 b 250 657 399 593 329 657 b 85 442 156 657 88 574 l 119 442 b 242 615 124 558 185 615 b 356 460 307 615 356 567 b 286 368 356 379 329 381 b 68 117 163 326 68 303 b 204 -76 68 -18 128 -76 b 367 69 286 -76 351 -15 b 410 -56 367 -8 385 -56 b 443 -50 422 -56 433 -54 z m 75 -742 b 101 -826 69 -742 101 -768 b 311 -778 101 -865 153 -778 b 397 -601 378 -778 397 -644 b 449 -567 414 -596 442 -589 l 449 -712 b 294 -961 449 -861 411 -961 z m 624 -983 l 624 -899 l 564 -899 l 564 -983 z m 1321 -983 l 1321 -899 l 1263 -899 l 1263 -983 z "},"㏘":{"ha":439,"x_min":0,"x_max":0,"o":"m 74 -276 l 113 -276 l 113 49 l 115 49 b 246 -51 136 7 186 -51 b 422 314 331 -51 422 40 b 260 682 422 574 350 682 b 115 574 201 682 146 632 l 115 661 l 74 661 z m 113 417 b 250 644 113 528 178 644 b 385 311 354 644 385 474 b 240 -11 385 156 350 -11 b 118 136 226 -11 157 1 b 113 203 114 160 113 178 z m 63 -511 l 63 -769 l 108 -769 l 108 -810 l 193 -810 l 193 -869 l 108 -869 z m 890 -869 l 890 -785 l 832 -785 l 832 -869 z "},"℡":{"ha":0,"x_min":0,"x_max":0,"o":"m 999 338 l 578 338 b 788 636 582 486 667 636 b 999 338 915 636 999 479 z m 675 886 l 675 935 l 113 935 l 113 886 l 371 886 l 371 -54 l 414 -54 l 414 886 z m 579 294 l 1036 294 b 788 681 1036 492 965 681 b 542 303 624 681 542 499 b 790 -75 542 78 636 -75 b 1029 179 921 -75 997 32 l 990 179 b 790 -31 971 82 899 -31 b 579 294 663 -31 576 117 z m 1194 -54 l 1194 935 l 1157 935 l 1157 -54 z "},"！":{"ha":0,"x_min":0,"x_max":0,"o":""},"＂":{"ha":0,"x_min":0,"x_max":0,"o":""},"＃":{"ha":0,"x_min":0,"x_max":0,"o":""},"＄":{"ha":0,"x_min":0,"x_max":0,"o":""},"％":{"ha":0,"x_min":0,"x_max":0,"o":""},"＆":{"ha":0,"x_min":0,"x_max":0,"o":""},"＇":{"ha":682,"x_min":0,"x_max":0,"o":""},"（":{"ha":0,"x_min":0,"x_max":0,"o":""},"）":{"ha":0,"x_min":0,"x_max":0,"o":""},"＊":{"ha":0,"x_min":0,"x_max":0,"o":""},"＋":{"ha":0,"x_min":0,"x_max":0,"o":""},"，":{"ha":0,"x_min":0,"x_max":0,"o":""},"－":{"ha":0,"x_min":0,"x_max":0,"o":""},"．":{"ha":49,"x_min":0,"x_max":0,"o":""},"／":{"ha":0,"x_min":0,"x_max":0,"o":"m 818 978 b 838 997 824 992 824 997 l 882 997 b 892 978 896 997 897 992 l 486 -143 b 467 -162 481 -157 481 -162 l 422 -162 b 413 -143 411 -162 407 -157 z "},"０":{"ha":0,"x_min":0,"x_max":0,"o":""},"１":{"ha":0,"x_min":0,"x_max":0,"o":""},"２":{"ha":0,"x_min":0,"x_max":0,"o":""},"３":{"ha":0,"x_min":0,"x_max":0,"o":""},"４":{"ha":0,"x_min":0,"x_max":0,"o":""},"５":{"ha":0,"x_min":0,"x_max":0,"o":""},"６":{"ha":0,"x_min":0,"x_max":0,"o":""},"７":{"ha":0,"x_min":0,"x_max":0,"o":""},"８":{"ha":0,"x_min":0,"x_max":0,"o":""},"９":{"ha":0,"x_min":0,"x_max":0,"o":"m 372 647 "},"：":{"ha":0,"x_min":0,"x_max":0,"o":"m 593 765 z m 593 139 z "},"；":{"ha":0,"x_min":0,"x_max":0,"o":"m 615 765 "},"＜":{"ha":0,"x_min":0,"x_max":0,"o":""},"＝":{"ha":296,"x_min":0,"x_max":0,"o":""},"＞":{"ha":0,"x_min":0,"x_max":0,"o":""},"？":{"ha":0,"x_min":0,"x_max":0,"o":""},"＠":{"ha":0,"x_min":0,"x_max":0,"o":""},"Ａ":{"ha":0,"x_min":0,"x_max":0,"o":""},"Ｂ":{"ha":0,"x_min":0,"x_max":0,"o":"l 867 0 l 867 126 b 1053 69 1103 126 1021 207 "},"Ｃ":{"ha":0,"x_min":0,"x_max":0,"o":""},"Ｄ":{"ha":-229,"x_min":0,"x_max":0,"o":"m 435 -60 b 1039 450 829 -57 1036 110 b 514 968 1039 771 881 968 z m 1054 1867 b 1154 856 1054 878 1154 801 b 986 NaN 1154 717 986 NaN b 439 NaN 986 NaN 817 NaN l 331 NaN l 331 NaN l 515 NaN b 832 NaN 639 NaN 751 NaN z "},"Ｅ":{"ha":893,"x_min":0,"x_max":0,"o":""},"Ｆ":{"ha":0,"x_min":0,"x_max":0,"o":"l 0 449 l -40 449 l -40 1440 l 444 1440 l 444 994 l 22 994 l 22 1421 l -404 1421 "},"Ｇ":{"ha":0,"x_min":0,"x_max":0,"o":""},"Ｈ":{"ha":0,"x_min":0,"x_max":0,"o":"l 0 1017 l -40 1017 l -40 1503 l -653 1503 l -653 1017 b -672 997 -653 1003 -658 997 l -692 997 l -692 1017 "},"Ｉ":{"ha":0,"x_min":0,"x_max":0,"o":"m 681 -40 b 668 -60 681 -54 682 -60 l 642 -60 z "},"Ｊ":{"ha":0,"x_min":0,"x_max":0,"o":""},"Ｋ":{"ha":0,"x_min":0,"x_max":0,"o":""},"Ｌ":{"ha":0,"x_min":0,"x_max":0,"o":""},"Ｍ":{"ha":0,"x_min":0,"x_max":0,"o":"m 196 907 l 596 -33 b 615 -53 601 -46 601 -53 l 690 -53 b 710 -33 704 -53 704 -46 l 1108 907 l 1108 -40 l 2100 -40 l 2100 -106 b 2076 -124 2086 -106 2082 -110 b 732 -529 1671 -124 718 -529 b 708 -524 726 -529 722 -524 "},"Ｎ":{"ha":0,"x_min":0,"x_max":0,"o":"m 914 -40 b 942 -60 922 -53 928 -60 l 942 3 l 1933 3 l 1933 -951 l 1344 3 b 1321 22 1338 15 1335 22 l 1321 -31 l 329 -31 l 329 910 z "},"Ｏ":{"ha":0,"x_min":0,"x_max":0,"o":"b 629 1474 0 1111 343 1226 "},"Ｐ":{"ha":0,"x_min":0,"x_max":0,"o":""},"Ｑ":{"ha":0,"x_min":0,"x_max":0,"o":""},"Ｒ":{"ha":0,"x_min":0,"x_max":0,"o":""},"Ｓ":{"ha":0,"x_min":0,"x_max":0,"o":"m 400 21 b 371 6 385 28 376 21 l 363 -15 b 379 -44 360 -31 365 -39 b 601 -82 458 -71 519 -82 b 943 211 779 -82 943 28 b 693 472 943 354 825 404 b 421 721 601 519 421 597 b 697 936 421 842 529 936 b 869 906 774 936 818 929 b 893 918 882 900 889 906 l 897 936 b 883 960 900 949 896 956 b 693 989 818 981 765 989 b 363 724 525 989 363 900 b 735 388 363 528 606 468 b 885 211 833 338 885 296 b 607 -29 885 76 742 -29 b 400 21 522 -29 465 -14 z "},"Ｔ":{"ha":0,"x_min":0,"x_max":0,"o":"l 0 314 l 915 314 l 915 992 l 606 992 l 606 36 l 1561 36 "},"Ｕ":{"ha":0,"x_min":0,"x_max":0,"o":""},"Ｖ":{"ha":0,"x_min":0,"x_max":0,"o":""},"Ｗ":{"ha":0,"x_min":0,"x_max":0,"o":""},"Ｘ":{"ha":0,"x_min":0,"x_max":0,"o":""},"Ｙ":{"ha":0,"x_min":0,"x_max":0,"o":""},"Ｚ":{"ha":0,"x_min":0,"x_max":0,"o":""},"［":{"ha":0,"x_min":0,"x_max":0,"o":""},"￦":{"ha":0,"x_min":0,"x_max":0,"o":""},"］":{"ha":0,"x_min":0,"x_max":0,"o":""},"＾":{"ha":0,"x_min":0,"x_max":0,"o":""},"＿":{"ha":-15,"x_min":0,"x_max":0,"o":"m 297 -231 b 282 -215 288 -231 282 -225 l 282 -200 b 297 -185 282 -189 286 -185 l 1008 -185 b 1024 -200 1019 -185 1024 -189 z "},"｀":{"ha":0,"x_min":0,"x_max":0,"o":""},"ａ":{"ha":0,"x_min":0,"x_max":0,"o":""},"ｂ":{"ha":0,"x_min":0,"x_max":0,"o":"b 215 -349 393 0 215 -162 b NaN -96 215 -237 60 -96 "},"ｃ":{"ha":0,"x_min":0,"x_max":0,"o":""},"ｄ":{"ha":0,"x_min":0,"x_max":0,"o":"b 735 -349 913 0 735 -162 b NaN -601 735 -460 579 -601 "},"ｅ":{"ha":0,"x_min":0,"x_max":0,"o":""},"ｆ":{"ha":0,"x_min":0,"x_max":0,"o":""},"ｇ":{"ha":0,"x_min":0,"x_max":0,"o":"l 653 0 l 653 63 l 488 63 l 488 -108 l 349 -108 l 349 -171 l 188 -171 l 188 -190 l 188 -314 "},"ｈ":{"ha":0,"x_min":0,"x_max":0,"o":""},"ｉ":{"ha":0,"x_min":0,"x_max":0,"o":""},"ｊ":{"ha":0,"x_min":0,"x_max":0,"o":""},"ｋ":{"ha":0,"x_min":0,"x_max":0,"o":""},"ｌ":{"ha":0,"x_min":0,"x_max":0,"o":""},"ｍ":{"ha":0,"x_min":0,"x_max":0,"o":"b 251 -53 210 0 390 72 b -228 NaN -233 -53 -228 -40 l -228 NaN b -422 NaN -228 NaN -301 NaN b -654 NaN -551 NaN -658 NaN b -1078 NaN -1085 NaN -1078 NaN l -1078 NaN "},"ｎ":{"ha":0,"x_min":0,"x_max":0,"o":"m 419 425 l 419 522 l 508 522 l 508 656 l 660 656 l 660 818 l 728 818 l 728 1247 "},"ｏ":{"ha":0,"x_min":0,"x_max":0,"o":""},"ｐ":{"ha":0,"x_min":0,"x_max":0,"o":"b 571 349 393 0 571 163 b NaN 601 571 460 726 601 "},"ｑ":{"ha":0,"x_min":0,"x_max":0,"o":"b 1090 349 913 0 1090 163 b NaN 96 1090 238 1246 96 "},"ｒ":{"ha":0,"x_min":0,"x_max":0,"o":""},"ｓ":{"ha":0,"x_min":0,"x_max":0,"o":"m 438 -58 b 629 -82 497 -76 550 -85 b 888 133 768 -76 888 -14 b 778 304 888 194 867 251 b 494 504 696 353 492 404 b 654 653 497 589 547 653 b 839 631 719 653 793 647 b 669 653 788 646 740 653 b 425 446 536 653 425 585 b 522 301 425 386 456 339 b 738 197 578 269 685 233 b 818 75 786 164 818 124 b 618 -81 818 -12 751 -81 b 443 -44 558 -81 500 -68 b 421 -56 433 -40 424 -46 l 415 -92 b 433 -117 414 -110 426 -114 z "},"ｔ":{"ha":0,"x_min":0,"x_max":0,"o":""},"ｕ":{"ha":558,"x_min":0,"x_max":0,"o":"l 0 890 l -429 890 b -156 565 -429 675 -353 565 b 114 746 4 565 86 681 l -25 761 l -28 915 "},"ｖ":{"ha":0,"x_min":0,"x_max":0,"o":""},"ｗ":{"ha":0,"x_min":0,"x_max":0,"o":""},"ｘ":{"ha":0,"x_min":0,"x_max":0,"o":""},"ｙ":{"ha":0,"x_min":0,"x_max":0,"o":""},"ｚ":{"ha":0,"x_min":0,"x_max":0,"o":""},"｛":{"ha":0,"x_min":0,"x_max":0,"o":""},"｜":{"ha":0,"x_min":0,"x_max":0,"o":""},"｝":{"ha":0,"x_min":0,"x_max":0,"o":""},"‾":{"ha":0,"x_min":0,"x_max":0,"o":"m 1278 1032 l 1278 1058 l 28 1058 l 28 1032 z "},"￣":{"ha":0,"x_min":0,"x_max":0,"o":"m 1278 1032 l 1278 1058 l 28 1058 l 28 1032 z "},"ㄱ":{"ha":0,"x_min":0,"x_max":0,"o":"l 921 0 l 921 639 l 383 639 "},"ㄲ":{"ha":0,"x_min":0,"x_max":0,"o":"l 563 0 l 563 639 l 290 639 l 551 639 l 551 154 l 1003 154 l 1003 654 l 731 654 "},"ㄳ":{"ha":0,"x_min":0,"x_max":0,"o":"l 506 0 l 506 639 l 233 639 "},"ㄴ":{"ha":0,"x_min":0,"x_max":0,"o":"l 322 0 l 322 235 l 857 235 l 857 -315 b 824 -278 831 -315 824 -304 "},"ㄵ":{"ha":0,"x_min":0,"x_max":0,"o":"m 1114 192 b 1119 165 1124 185 1128 178 l 1111 154 l 1103 154 l 1103 144 l 1096 144 l 1096 142 l 1086 142 l 1086 149 l 997 149 l 997 208 l 926 208 l 926 281 l 876 281 l 876 351 l 813 351 l 813 275 l 738 275 l 738 203 l 654 203 l 654 138 l 654 138 l 654 149 l 664 149 l 664 156 l 824 156 l 824 275 l 949 275 l 949 415 l 1026 415 l 1026 593 l 678 593 l 678 926 b 772 813 774 926 815 906 b 658 621 742 746 703 682 b 858 411 689 556 753 481 "},"ㄶ":{"ha":0,"x_min":0,"x_max":0,"o":""},"ㄷ":{"ha":403,"x_min":0,"x_max":0,"o":""},"ㄸ":{"ha":760,"x_min":0,"x_max":0,"o":"m -450 25 l -450 165 l -161 165 l -161 -137 l 151 -137 l 151 -236 l 132 -236 l 132 -293 l 492 -293 l 492 -42 l 226 -42 l 226 -417 b 260 -474 226 -443 233 -471 "},"ㄹ":{"ha":151,"x_min":0,"x_max":0,"o":"m 411 171 z "},"ㄺ":{"ha":103,"x_min":0,"x_max":0,"o":"l 993 0 l 993 632 l 731 632 l 982 632 b 1088 526 1069 632 1088 603 b 911 54 1088 49 763 54 b 771 NaN 803 54 771 151 "},"ㄻ":{"ha":149,"x_min":0,"x_max":0,"o":"b 799 685 799 121 1215 279 b 403 229 632 276 483 243 b NaN NaN 276 236 NaN NaN b NaN NaN NaN NaN NaN NaN "},"ㄼ":{"ha":1011,"x_min":0,"x_max":0,"o":""},"ㄽ":{"ha":0,"x_min":0,"x_max":0,"o":"b 372 139 560 146 499 132 b 335 181 342 140 335 149 "},"ㄾ":{"ha":0,"x_min":0,"x_max":0,"o":"l 0 793 l 119 793 l 119 1213 l 350 1213 l 350 968 l 161 968 l 161 1244 b 181 1226 175 1244 181 1240 l 181 1211 l -96 1211 l -96 1025 b -62 982 -96 999 -89 982 b 225 363 210 571 236 489 b NaN NaN 232 NaN NaN NaN b NaN NaN NaN NaN NaN NaN b NaN NaN NaN NaN NaN NaN b NaN NaN NaN NaN NaN NaN "},"ㄿ":{"ha":0,"x_min":0,"x_max":0,"o":"b 1074 210 1083 125 1001 624 b 1085 -418 1153 -289 1068 -336 b NaN NaN 1074 -544 1081 NaN b NaN NaN NaN NaN NaN NaN b NaN NaN NaN NaN NaN NaN b NaN NaN NaN NaN NaN NaN m NaN NaN l NaN NaN l NaN NaN l NaN NaN z "},"ㅀ":{"ha":600,"x_min":0,"x_max":0,"o":""},"ㅁ":{"ha":925,"x_min":0,"x_max":0,"o":""},"ㅂ":{"ha":0,"x_min":0,"x_max":0,"o":"m 925 440 l 925 224 l 458 224 l 458 440 l 458 686 l -4 686 l -4 1139 l 471 1139 l 471 947 l -74 947 z "},"ㅃ":{"ha":0,"x_min":0,"x_max":0,"o":"m 553 440 l 553 221 l 382 221 l 382 440 l 382 713 l -110 713 l -110 869 l 394 869 l 394 651 l 146 651 z m 843 597 l 843 378 l 672 378 l 672 597 l 672 869 l 181 869 l 181 1026 l 685 1026 l 685 808 l 436 808 z "},"ㅄ":{"ha":0,"x_min":0,"x_max":0,"o":"m 496 440 l 496 221 l 325 221 l 325 440 l 325 713 l -167 713 l -167 869 l 338 869 l 338 651 l 89 651 "},"ㅅ":{"ha":0,"x_min":0,"x_max":0,"o":"m 296 136 b 647 701 513 276 624 468 b 668 719 647 715 653 721 l 685 718 b 704 697 700 717 706 711 b 661 496 699 626 685 560 b 1008 156 732 360 822 242 b 1013 131 1019 150 1019 142 b 742 301 1004 117 851 189 b 499 199 660 438 599 311 b 369 117 360 99 360 110 z "},"ㅆ":{"ha":0,"x_min":0,"x_max":0,"o":"m 1108 260 b 1110 244 1118 253 1119 246 b 924 381 1100 251 992 317 b 715 215 861 472 807 329 b 700 210 607 125 656 165 b 608 379 738 258 646 336 b 417 261 557 461 503 349 b NaN NaN 322 183 NaN NaN b NaN NaN NaN NaN NaN NaN b NaN NaN NaN NaN NaN NaN b NaN NaN NaN NaN NaN NaN b NaN NaN NaN NaN NaN NaN b NaN NaN NaN NaN NaN NaN b NaN NaN NaN NaN NaN NaN z "},"ㅇ":{"ha":189,"x_min":0,"x_max":0,"o":"m 651 99 z m 942 429 b 1274 814 942 588 1046 814 b 1219 438 1115 814 1219 625 b 889 50 1219 278 1115 50 b 944 -276 1049 50 944 -142 b 654 -519 944 -364 789 -519 b 933 -192 742 -519 933 -326 b 1224 51 933 -104 1089 51 b 943 NaN 1136 51 943 NaN z "},"ㅈ":{"ha":0,"x_min":0,"x_max":0,"o":"m 256 88 b 636 332 371 142 511 235 b 615 346 629 336 622 342 l 674 374 l 681 367 b 951 686 842 499 965 632 b 813 738 946 724 907 738 l 285 738 l 285 725 l 265 725 b 283 708 265 713 271 708 l 863 708 b 890 690 875 708 888 703 b 226 156 878 603 493 281 b 219 133 217 150 214 142 l 231 115 b 254 111 236 107 244 107 z m 1072 182 b 1083 160 1085 178 1088 169 l 1078 144 b 1054 135 1074 133 1067 131 b 635 356 914 181 743 283 b 679 390 650 367 665 379 b 1072 182 768 322 931 228 z "},"ㅉ":{"ha":0,"x_min":0,"x_max":0,"o":"l 225 0 l 225 167 l 215 167 l 215 165 l 224 165 l 224 174 l 232 174 l 232 371 l 385 371 l 385 465 l 497 465 l 497 551 l 671 551 l 671 268 l 942 268 b 1033 154 1038 268 1068 240 b 928 -19 1000 89 965 32 b 1143 -186 974 -81 1069 -143 b 1146 -189 1144 -187 1146 -187 l 1256 -189 l 1256 -74 l 1333 -74 l 1333 49 l 1394 49 l 1394 179 l 1147 179 l 1147 414 b 1239 300 1243 414 1274 386 b 1114 82 1203 222 1161 150 b 1338 -96 1156 18 1260 -51 b 1347 -119 1347 -101 1349 -110 b 1460 -351 1353 -182 1389 -294 b 1347 -603 1526 -425 1432 -510 b 1261 -626 1269 -611 1263 -619 b NaN NaN 1268 -644 1286 NaN l NaN NaN b NaN NaN NaN NaN NaN NaN b NaN NaN NaN NaN NaN NaN b NaN NaN NaN NaN NaN NaN b NaN NaN NaN NaN NaN NaN "},"ㅊ":{"ha":14,"x_min":0,"x_max":0,"o":"m 932 563 b 904 581 929 575 917 581 l 304 581 b NaN NaN 304 568 317 NaN l NaN NaN b NaN NaN NaN NaN NaN NaN b NaN NaN NaN NaN NaN NaN b NaN NaN NaN NaN NaN NaN b NaN NaN NaN NaN NaN NaN l NaN NaN b NaN NaN NaN NaN NaN NaN b NaN NaN NaN NaN NaN NaN b NaN NaN NaN NaN NaN NaN b NaN NaN NaN NaN NaN NaN l NaN NaN b NaN NaN NaN NaN NaN NaN b NaN NaN NaN NaN NaN NaN l NaN NaN l NaN NaN l NaN NaN z "},"ㅋ":{"ha":0,"x_min":0,"x_max":0,"o":"l 929 0 l 929 651 l 376 651 l 918 651 l 918 140 l 1178 140 l 1178 -429 l 1747 -429 "},"ㅌ":{"ha":0,"x_min":0,"x_max":0,"o":"l 949 0 l 949 453 l 364 453 l 364 268 l 364 851 l -206 851 l -206 1260 l 340 1260 l 340 700 l 154 700 "},"ㅍ":{"ha":1026,"x_min":0,"x_max":0,"o":"m 243 561 l 367 561 l 367 379 l 875 379 l 875 519 l 211 519 l 211 663 l -297 663 l -297 478 l -33 478 l -33 -31 l -297 -31 z "},"ㅎ":{"ha":458,"x_min":0,"x_max":0,"o":"m -372 -492 b 747 -1200 379 -492 747 -1036 b 982 -361 747 -460 896 -361 b 1168 -376 1074 -361 1168 -460 b 936 -624 1168 -525 1019 -624 b 899 -611 842 -624 750 -525 z m 899 -661 b 596 -433 710 -661 596 -562 b 899 -206 596 -304 710 -206 b 1201 -433 1088 -206 1201 -304 b 899 -661 1201 -562 1088 -661 z "},"ㅏ":{"ha":0,"x_min":0,"x_max":0,"o":"l 575 0 l 575 -578 l 788 -578 l 788 -790 "},"ㅐ":{"ha":0,"x_min":0,"x_max":0,"o":""},"ㅑ":{"ha":0,"x_min":0,"x_max":0,"o":"l 576 0 l 576 -386 l 788 -386 l 788 -597 l 465 -597 l 465 -386 l 254 -386 "},"ㅒ":{"ha":0,"x_min":0,"x_max":0,"o":"l 858 0 l 858 478 l 564 478 l 564 53 l 1729 53 l 1729 -315 l 2024 -315 l 2024 -668 l 1313 -668 l 1313 -401 l 1018 -401 "},"ㅓ":{"ha":0,"x_min":0,"x_max":0,"o":"l 0 818 l -175 818 l -175 547 l 96 547 l 96 1088 "},"ㅔ":{"ha":233,"x_min":0,"x_max":0,"o":"l 0 678 l -122 678 l -122 1285 l -356 1285 "},"ㅕ":{"ha":0,"x_min":0,"x_max":0,"o":"l 0 822 l 451 822 l 451 542 l 732 542 l 732 844 l 451 844 l 451 1125 l 833 1125 "},"ㅖ":{"ha":232,"x_min":0,"x_max":0,"o":"l 0 678 l -122 678 l -122 1054 l -354 1054 "},"ㅗ":{"ha":0,"x_min":0,"x_max":0,"o":"l 0 547 l 458 547 l 458 89 "},"ㅘ":{"ha":0,"x_min":0,"x_max":0,"o":"l 1013 0 l 1013 211 l 801 211 b 129 -362 -131 -94 153 -235 b NaN NaN 114 -494 107 NaN l NaN NaN l NaN NaN b NaN NaN NaN NaN NaN NaN "},"ㅙ":{"ha":0,"x_min":0,"x_max":0,"o":"b 2150 -1287 1194 -175 985 -769 b 1464 -353 2360 -746 1457 -585 b 1475 -629 1500 -465 1485 -549 b NaN NaN 1469 NaN NaN NaN l NaN NaN l NaN NaN b NaN NaN NaN NaN NaN NaN "},"ㅚ":{"ha":0,"x_min":0,"x_max":0,"o":"b 239 -450 1146 -987 229 -678 b 254 -807 288 -571 267 -689 b NaN NaN 246 NaN NaN NaN l NaN NaN l NaN NaN b NaN NaN NaN NaN NaN NaN "},"ㅛ":{"ha":0,"x_min":0,"x_max":0,"o":"l 0 338 l 457 338 l 457 -119 l 810 -119 l 810 338 l 353 338 "},"ㅜ":{"ha":0,"x_min":0,"x_max":0,"o":"m 624 538 l 624 -32 "},"ㅝ":{"ha":-964,"x_min":0,"x_max":0,"o":"l 0 1106 l -862 1106 l -862 810 l -567 810 "},"ㅞ":{"ha":0,"x_min":0,"x_max":0,"o":"l 0 899 l -810 899 l -810 660 l -571 660 b -1262 -312 -267 304 -1367 -310 b NaN NaN -1154 -310 -1051 -304 l NaN NaN l NaN NaN b NaN NaN NaN NaN NaN NaN "},"ㅟ":{"ha":0,"x_min":0,"x_max":0,"o":""},"ㅠ":{"ha":0,"x_min":0,"x_max":0,"o":"m 401 538 l 401 -42 l 401 538 l 789 538 l 789 -42 "},"ㅡ":{"ha":1231,"x_min":0,"x_max":0,"o":""},"ㅢ":{"ha":0,"x_min":0,"x_max":0,"o":""},"ㅣ":{"ha":682,"x_min":0,"x_max":0,"o":""},"ㅥ":{"ha":471,"x_min":0,"x_max":0,"o":"l 675 0 l 675 242 l 946 242 l 946 -44 b 913 -7 919 -44 913 -33 m 529 -7 "},"ㅦ":{"ha":293,"x_min":0,"x_max":0,"o":""},"ㅧ":{"ha":0,"x_min":0,"x_max":0,"o":"b 333 331 699 243 243 331 b 135 333 332 331 207 333 "},"ㅨ":{"ha":217,"x_min":0,"x_max":0,"o":"b 333 383 699 296 243 383 b 135 386 332 383 207 386 m 842 331 l 515 331 l 678 785 z "},"ㅩ":{"ha":-485,"x_min":0,"x_max":0,"o":"l 435 0 l 435 146 l 1193 146 l 1193 164 l 686 164 l 686 639 l 481 639 l 675 639 b 781 533 763 639 781 610 "},"ㅪ":{"ha":786,"x_min":0,"x_max":0,"o":""},"ㅫ":{"ha":-89,"x_min":0,"x_max":0,"o":"l 0 528 l 719 528 l 719 615 l 503 615 l 503 436 m 11 721 l 11 364 l 771 364 l 771 382 l 531 382 l 531 281 l 771 281 z "},"ㅬ":{"ha":217,"x_min":0,"x_max":0,"o":"m 1031 167 l 704 167 l 867 621 z "},"ㅭ":{"ha":610,"x_min":0,"x_max":0,"o":"m -210 -526 b -11 428 -67 -526 -11 8 b 24 414 -11 336 -61 414 b 163 582 113 414 163 490 b 124 599 163 675 213 599 b -11 428 39 599 -11 521 z m -11 374 b 183 590 110 374 183 468 b -11 810 183 715 110 810 b -204 590 -131 810 -204 715 b -11 374 -204 468 -131 374 z "},"ㅮ":{"ha":-200,"x_min":0,"x_max":0,"o":"m 1008 444 l 772 444 l 772 261 b 733 307 740 261 733 271 l 733 543 l 229 543 l 229 713 l 746 713 l 746 451 z "},"ㅯ":{"ha":0,"x_min":0,"x_max":0,"o":""},"ㅰ":{"ha":526,"x_min":0,"x_max":0,"o":"m 439 -467 l 1081 -467 l 1081 -793 l 1243 -339 z "},"ㅱ":{"ha":0,"x_min":0,"x_max":0,"o":""},"ㅲ":{"ha":0,"x_min":0,"x_max":0,"o":"l 578 0 l 578 683 l 711 683 l 711 425 "},"ㅳ":{"ha":551,"x_min":0,"x_max":0,"o":""},"ㅴ":{"ha":0,"x_min":0,"x_max":0,"o":"l 201 0 l 201 725 l -83 725 l -83 903 l 392 903 l 392 700 "},"ㅵ":{"ha":158,"x_min":0,"x_max":0,"o":""},"ㅶ":{"ha":217,"x_min":0,"x_max":0,"o":"m 269 -54 z m 1164 -304 b 940 -508 928 -496 938 -503 b NaN NaN 933 -521 925 -535 l NaN NaN b NaN NaN NaN NaN NaN NaN b NaN NaN NaN NaN NaN NaN b NaN NaN NaN NaN NaN NaN b NaN NaN NaN NaN NaN NaN l NaN NaN l NaN NaN l NaN NaN l NaN NaN l NaN NaN l NaN NaN l NaN NaN l NaN NaN l NaN NaN l NaN NaN l NaN NaN l NaN NaN l NaN NaN l NaN NaN l NaN NaN b NaN NaN NaN NaN NaN NaN b NaN NaN NaN NaN NaN NaN b NaN NaN NaN NaN NaN NaN z "},"ㅷ":{"ha":268,"x_min":0,"x_max":0,"o":"l 0 285 l 517 285 l 517 -106 l 951 -106 l 951 125 l 707 125 l 707 -72 l 976 -72 b 996 -90 990 -72 996 -76 l 996 -106 l 726 -106 l 726 -299 b 760 -342 726 -325 733 -342 m 258 -6 z "},"ㅸ":{"ha":0,"x_min":0,"x_max":0,"o":"m 925 650 l 925 475 l 458 475 l 458 650 l 458 851 l 82 851 l 82 1304 l 471 1304 l 471 760 "},"ㅹ":{"ha":0,"x_min":0,"x_max":0,"o":""},"ㅺ":{"ha":0,"x_min":0,"x_max":0,"o":"l 1003 0 l 1003 632 l 743 632 "},"ㅻ":{"ha":0,"x_min":0,"x_max":0,"o":"l 728 0 l 728 242 l 999 242 l 999 -44 b 965 -7 972 -44 965 -33 "},"ㅼ":{"ha":0,"x_min":0,"x_max":0,"o":""},"ㅽ":{"ha":0,"x_min":0,"x_max":0,"o":""},"ㅾ":{"ha":0,"x_min":0,"x_max":0,"o":"m 1160 176 b 1165 151 1169 169 1172 164 l 1157 140 b 1132 133 1151 129 1142 126 b 928 328 1046 190 978 260 b 724 119 871 253 804 182 l 707 138 l 700 138 l 700 144 l 697 144 l 697 156 l 707 156 l 707 161 l 867 161 l 867 281 l 974 281 l 974 429 l 1051 429 l 1051 607 l 731 607 l 731 913 b 825 799 826 913 868 892 b 713 596 793 728 756 660 b 908 393 744 532 807 460 "},"ㅿ":{"ha":0,"x_min":0,"x_max":0,"o":"m 857 167 l 447 167 l 651 621 z m 910 160 l 671 707 b 636 707 661 733 647 733 l 393 161 b 424 119 378 121 378 119 l 883 119 b 910 160 926 119 925 119 z "},"ㆀ":{"ha":394,"x_min":0,"x_max":0,"o":""},"ㆁ":{"ha":0,"x_min":0,"x_max":0,"o":"m 679 779 l 679 700 b 367 379 507 690 367 588 b 710 57 367 158 524 57 b 1053 379 897 57 1053 158 b 738 700 1053 589 913 690 z m 992 379 b 710 111 992 194 861 111 b 428 379 558 111 428 194 b 710 647 428 564 558 647 b 992 379 861 647 992 564 z "},"ㆂ":{"ha":0,"x_min":0,"x_max":0,"o":""},"ㆃ":{"ha":450,"x_min":0,"x_max":0,"o":"m 635 33 l 1296 33 l 1296 -476 l 608 -476 l 608 -503 l 282 -503 l 444 -49 z "},"ㆄ":{"ha":1040,"x_min":0,"x_max":0,"o":"m 243 435 l 617 435 l 617 253 l 999 253 l 999 393 l 307 393 l 307 536 l -75 536 l -75 351 l 217 351 l 217 -31 l -75 -31 z m 71 -521 b 263 -344 189 -521 263 -443 b 71 -162 263 -240 189 -162 b -121 -344 -47 -162 -121 -240 b 71 -521 -121 -443 -47 -521 z m 71 -476 b -64 -344 -21 -476 -64 -414 b 71 -207 -64 -269 -21 -207 b 206 -344 163 -207 206 -269 b 71 -476 206 -414 163 -476 z "},"ㆅ":{"ha":268,"x_min":0,"x_max":0,"o":""},"ㆆ":{"ha":306,"x_min":0,"x_max":0,"o":"m -660 -415 b 153 485 -660 324 33 485 b 467 796 275 485 467 676 b 186 513 467 674 306 513 b -128 201 64 513 -128 321 b NaN NaN -128 324 33 NaN z m NaN NaN b NaN NaN NaN NaN NaN NaN b NaN NaN NaN NaN NaN NaN b NaN NaN NaN NaN NaN NaN b NaN NaN NaN NaN NaN NaN z "},"ㆇ":{"ha":0,"x_min":0,"x_max":0,"o":"b 875 -1549 1014 -406 1224 -615 b 696 -1285 818 -1265 756 -1276 b NaN NaN 638 -1292 NaN NaN l NaN NaN l NaN NaN b NaN NaN NaN NaN NaN NaN l NaN NaN l NaN NaN b NaN NaN NaN NaN NaN NaN "},"ㆈ":{"ha":0,"x_min":0,"x_max":0,"o":"b 2143 -340 1188 394 978 53 b 1440 -819 2353 76 1279 -826 b 1563 -799 1672 -783 1613 -792 b NaN NaN 1515 -803 NaN NaN l NaN NaN l NaN NaN b NaN NaN NaN NaN NaN NaN l NaN NaN l NaN NaN b NaN NaN NaN NaN NaN NaN m NaN NaN l NaN NaN l NaN NaN l NaN NaN z "},"ㆉ":{"ha":0,"x_min":0,"x_max":0,"o":"b 464 22 165 150 475 86 b NaN NaN 454 -40 447 NaN l NaN NaN l NaN NaN b NaN NaN NaN NaN NaN NaN l NaN NaN l NaN NaN b NaN NaN NaN NaN NaN NaN "},"ㆊ":{"ha":0,"x_min":0,"x_max":0,"o":"b 300 481 156 482 228 481 b NaN NaN 374 482 NaN NaN l NaN NaN l NaN NaN b NaN NaN NaN NaN NaN NaN l NaN NaN l NaN NaN b NaN NaN NaN NaN NaN NaN b NaN NaN NaN NaN NaN NaN l NaN NaN l NaN NaN l NaN NaN l NaN NaN l NaN NaN l NaN NaN l NaN NaN l NaN NaN l NaN NaN "},"ㆋ":{"ha":171,"x_min":0,"x_max":0,"o":"b 268 481 118 482 197 481 b NaN NaN 333 482 NaN NaN l NaN NaN l NaN NaN b NaN NaN NaN NaN NaN NaN l NaN NaN l NaN NaN b NaN NaN NaN NaN NaN NaN b NaN NaN NaN NaN NaN NaN l NaN NaN l NaN NaN l NaN NaN l NaN NaN "},"ㆌ":{"ha":992,"x_min":0,"x_max":0,"o":"b 311 439 158 440 233 439 b NaN NaN 388 440 NaN NaN l NaN NaN l NaN NaN b NaN NaN NaN NaN NaN NaN l NaN NaN l NaN NaN b NaN NaN NaN NaN NaN NaN b NaN NaN NaN NaN NaN NaN "},"ㆍ":{"ha":583,"x_min":0,"x_max":0,"o":""},"ㆎ":{"ha":0,"x_min":0,"x_max":0,"o":""},"ⅰ":{"ha":0,"x_min":0,"x_max":0,"o":"m 640 -39 z m 640 850 l 679 850 l 679 935 l 640 935 z "},"ⅱ":{"ha":-367,"x_min":0,"x_max":0,"o":"m 457 -53 z m 863 -53 z "},"ⅲ":{"ha":-621,"x_min":0,"x_max":0,"o":"m 328 -53 z m 683 -53 z m 1026 -53 z "},"ⅳ":{"ha":178,"x_min":0,"x_max":0,"o":"m 356 -53 z "},"ⅴ":{"ha":0,"x_min":0,"x_max":0,"o":"m 339 657 l 596 -58 l 649 -58 l 907 657 l 861 657 l 624 -15 l 381 657 z "},"ⅵ":{"ha":-672,"x_min":0,"x_max":0,"o":"m 931 -53 z "},"ⅶ":{"ha":-617,"x_min":0,"x_max":0,"o":"m 819 -53 z m 1633 -762 z "},"ⅷ":{"ha":-603,"x_min":0,"x_max":0,"o":"m 764 -53 z m 1536 -762 z m 1743 -762 z "},"ⅸ":{"ha":-740,"x_min":0,"x_max":0,"o":"m 339 -53 z m 842 304 l 1085 -54 l 1039 -54 l 818 272 l 596 -54 l 550 -54 l 794 304 l 564 656 l 608 656 l 818 336 l 1026 656 l 1071 656 z "},"ⅹ":{"ha":0,"x_min":0,"x_max":0,"o":"m 644 304 l 901 -54 l 856 -54 l 719 138 b 621 279 685 185 649 242 b 518 133 593 242 553 179 l 385 -54 l 339 -54 l 597 304 l 339 656 l 383 656 l 517 475 b 621 329 551 429 593 367 b 721 471 649 367 686 424 l 857 656 l 901 656 z "},"Ⅰ":{"ha":601,"x_min":0,"x_max":0,"o":""},"Ⅱ":{"ha":414,"x_min":0,"x_max":0,"o":"m 336 0 z "},"Ⅲ":{"ha":292,"x_min":0,"x_max":0,"o":"m 275 0 z m 540 0 z "},"Ⅳ":{"ha":-511,"x_min":0,"x_max":0,"o":"m 790 -61 l 1115 922 l 1075 922 l 778 8 l 774 8 l 494 922 l 456 922 l 757 -61 z "},"Ⅴ":{"ha":0,"x_min":0,"x_max":0,"o":"m 633 -61 l 1014 922 l 968 922 l 764 383 b 621 -4 706 236 657 104 l 617 -4 b 485 383 586 104 539 233 l 282 922 l 243 922 l 600 -61 z "},"Ⅵ":{"ha":511,"x_min":0,"x_max":0,"o":"m 508 -61 l 833 922 l 793 922 l 496 15 l 492 15 l 213 922 l 174 922 l 475 -61 z "},"Ⅶ":{"ha":456,"x_min":0,"x_max":0,"o":"m 411 -61 l 694 922 l 654 922 l 399 22 l 394 22 l 157 922 l 118 922 l 378 -61 z m 538 -61 z "},"Ⅷ":{"ha":386,"x_min":0,"x_max":0,"o":"m 349 -61 l 576 922 l 536 922 l 336 36 l 332 36 l 150 922 l 111 922 l 315 -61 z m 472 -61 z m 624 -61 z "},"Ⅸ":{"ha":185,"x_min":0,"x_max":0,"o":"m 894 -985 l 1822 -1322 l 2326 -985 l 2808 NaN l 2767 NaN l 2454 NaN l 2451 NaN l 2151 NaN l 2110 NaN l 2432 NaN l 2099 NaN l 2140 NaN l 2450 NaN l 2453 NaN l 2767 NaN z "},"Ⅹ":{"ha":0,"x_min":0,"x_max":0,"o":"m 997 -57 l 635 447 l 997 935 l 953 935 l 615 486 l 613 486 l 288 935 l 243 935 l 590 447 l 232 -57 l 276 -57 l 611 411 l 614 411 l 953 -57 z "},"Α":{"ha":93,"x_min":0,"x_max":0,"o":"m 713 306 l 856 -60 l 894 -60 l 515 936 l 481 936 l 96 -60 l 135 -60 l 278 306 z m 296 344 l 432 701 b 497 874 456 761 479 832 b 564 703 515 833 539 765 l 701 344 z "},"Β":{"ha":46,"x_min":0,"x_max":0,"o":"m 796 213 b 510 -15 796 44 658 -15 l 149 -15 l 149 443 l 510 443 b 796 213 689 443 796 367 z m 760 688 b 510 479 760 588 675 479 l 149 479 l 149 896 l 510 896 b 760 688 674 896 760 826 z m 846 224 b 611 471 846 357 754 465 b 810 694 732 489 810 583 b 510 935 810 888 668 935 l 99 935 l 99 -54 l 510 -54 b 846 224 707 -54 846 32 z "},"Γ":{"ha":-37,"x_min":0,"x_max":0,"o":"m 757 896 l 757 935 l 104 935 l 104 -54 l 153 -54 l 153 896 z "},"Δ":{"ha":121,"x_min":0,"x_max":0,"o":"m 844 -14 l 175 -14 l 510 882 z m 908 -54 l 536 935 l 483 935 l 111 -54 z "},"Ε":{"ha":-75,"x_min":0,"x_max":0,"o":""},"Ζ":{"ha":11,"x_min":0,"x_max":0,"o":"m 825 -54 l 825 -15 l 121 -15 l 817 878 l 817 935 l 128 935 l 128 896 l 772 896 l 85 1 l 85 -54 z "},"Η":{"ha":22,"x_min":0,"x_max":0,"o":"m 836 -54 l 836 935 l 786 935 l 786 488 l 135 488 l 135 935 l 85 935 l 85 -54 l 135 -54 l 135 450 l 786 450 l 786 -54 z "},"Θ":{"ha":157,"x_min":0,"x_max":0,"o":"m 803 419 l 803 469 l 244 469 l 244 419 z m 919 440 b 528 -33 919 168 751 -33 b 136 440 296 -33 136 165 b 528 914 136 715 299 914 b 919 440 751 914 919 715 "},"Ι":{"ha":-558,"x_min":0,"x_max":0,"o":"m 196 -54 l 196 935 l 144 935 l 144 -54 z "},"Κ":{"ha":0,"x_min":0,"x_max":0,"o":""},"Λ":{"ha":0,"x_min":0,"x_max":0,"o":"l 93 921 l 39 1293 l 1017 1665 l 39 NaN "},"Μ":{"ha":229,"x_min":0,"x_max":0,"o":"m 1029 -54 l 1029 935 l 938 935 l 564 1 l 190 935 l 99 935 l 99 -54 l 150 -54 l 150 899 l 532 -54 l 596 -54 l 978 899 l 978 -54 z "},"Ν":{"ha":53,"x_min":0,"x_max":0,"o":"m 853 -54 l 853 935 l 803 935 l 803 17 l 168 935 l 99 935 l 99 -54 l 149 -54 l 149 863 l 783 -54 z "},"Ξ":{"ha":46,"x_min":0,"x_max":0,"o":"m 872 -54 l 872 -15 l 72 -15 l 72 -54 z m 719 439 l 719 478 l 225 478 l 225 439 z m 865 896 l 865 935 l 79 935 l 79 896 z "},"Ο":{"ha":157,"x_min":0,"x_max":0,"o":"m 922 440 b 528 -36 922 168 751 -36 b 133 440 296 -36 133 165 b 528 917 133 715 299 917 b 922 440 751 917 922 715 "},"Π":{"ha":-7,"x_min":0,"x_max":0,"o":"m 789 -54 l 789 935 l 103 935 l 103 -54 l 151 -54 l 151 896 l 739 896 l 739 -54 z "},"Ρ":{"ha":-24,"x_min":0,"x_max":0,"o":"m 740 660 b 507 422 740 506 644 422 l 135 422 l 135 896 l 507 896 b 740 660 644 896 740 813 z m 790 660 b 526 935 790 819 678 935 l 85 935 l 85 -54 l 135 -54 l 135 385 l 526 385 b 790 660 683 385 790 499 z "},"Σ":{"ha":-47,"x_min":0,"x_max":0,"o":"m 781 -54 l 781 -14 l 111 -14 l 472 436 l 472 494 l 128 894 l 758 894 l 758 935 l 71 935 l 71 889 l 438 464 l 71 1 l 71 -54 z "},"Τ":{"ha":-25,"x_min":0,"x_max":0,"o":"m 803 896 l 803 935 l 71 935 l 71 896 l 411 896 l 411 -54 l 460 -54 l 460 896 z "},"Υ":{"ha":63,"x_min":0,"x_max":0,"o":"m 886 935 l 828 935 l 481 410 l 133 935 l 75 935 l 456 363 l 456 -54 l 504 -54 l 504 361 z "},"Φ":{"ha":143,"x_min":0,"x_max":0,"o":"m 494 747 l 494 139 b 114 447 299 146 114 254 b 494 747 114 635 299 740 z m 928 447 b 547 139 928 254 743 146 l 547 747 b 928 447 743 740 928 635 z m 972 447 b 547 781 972 654 782 769 l 547 935 l 494 935 l 494 781 b 69 447 257 769 69 654 b 494 106 69 239 261 117 l 494 -54 l 547 -54 l 547 106 b 972 447 779 117 972 239 z "},"Χ":{"ha":0,"x_min":0,"x_max":0,"o":""},"Ψ":{"ha":201,"x_min":0,"x_max":0,"o":"m 1006 879 l 999 918 b 854 753 939 918 854 840 l 854 490 b 576 282 854 335 706 275 l 576 935 l 524 935 l 524 282 b 246 490 394 275 246 335 l 246 753 b 101 918 246 840 161 918 l 94 879 b 193 739 138 879 193 829 l 193 490 b 524 240 193 306 372 233 l 524 -54 l 576 -54 l 576 240 b 907 490 728 233 907 306 l 907 739 b 1006 879 907 829 963 879 z "},"Ω":{"ha":74,"x_min":0,"x_max":0,"o":"m 878 572 b 486 947 878 792 699 947 b 94 572 274 947 94 792 b 364 206 94 381 176 246 l 364 -14 l 165 -14 l 165 185 l 100 185 l 100 -54 l 425 -54 l 425 238 b 147 572 254 288 147 378 b 486 894 147 763 303 894 b 825 572 669 894 825 763 b 547 238 825 378 719 288 l 547 -54 l 872 -54 l 872 185 l 807 185 l 807 -14 l 608 -14 l 608 206 b 878 572 796 246 878 381 z "},"α":{"ha":-215,"x_min":0,"x_max":0,"o":"m 453 307 b 267 -35 453 101 375 -35 b 81 307 150 -35 81 110 b 267 642 81 514 158 642 b 453 307 385 642 453 513 z m 649 26 l 603 44 b 571 -32 597 4 592 -31 b 499 214 544 -35 517 68 l 613 668 l 565 668 l 494 375 b 272 681 494 542 407 681 b 29 307 126 681 29 543 b 268 -74 29 74 106 -74 b 454 89 351 -74 426 -22 b 565 -69 475 -14 513 -69 b 649 26 618 -69 639 -53 z "},"β":{"ha":-271,"x_min":0,"x_max":0,"o":"m 553 218 b 328 -28 553 92 467 -28 b 111 63 231 -28 171 -1 l 111 717 b 313 903 111 854 183 903 b 515 692 446 903 515 804 b 376 481 515 550 458 481 b 267 486 346 481 300 485 l 267 439 b 378 447 296 440 349 447 b 553 218 456 447 553 365 z m 604 221 b 467 465 604 351 515 443 b 568 690 532 515 568 582 b 313 944 568 828 461 944 b 63 715 165 944 63 863 l 63 -250 l 111 -250 l 111 3 b 343 -72 165 -53 256 -72 b 604 221 507 -72 604 86 z "},"γ":{"ha":-274,"x_min":0,"x_max":0,"o":"m 481 -56 b 310 -217 481 -171 386 -217 b 139 -56 233 -217 139 -174 b 310 246 139 3 199 75 b 481 -56 422 74 481 4 z m 608 654 l 543 654 b 310 315 465 540 389 429 b 76 654 232 429 156 540 l 11 654 b 281 278 101 528 190 404 b 204 165 254 240 231 204 b 86 -51 156 93 86 15 b 310 -254 86 -190 197 -254 b 533 -51 422 -254 533 -190 b 417 165 533 8 465 96 b 339 278 390 204 365 240 b 608 654 429 404 518 528 z "},"δ":{"ha":-275,"x_min":0,"x_max":0,"o":"m 535 250 b 306 -26 535 81 460 -26 b 78 250 158 -26 78 92 b 306 528 78 393 133 528 b 535 250 482 528 535 390 z m 597 250 b 414 571 597 422 536 507 b 176 790 381 585 176 706 b 315 894 176 857 239 894 b 468 776 411 894 468 869 l 524 776 b 321 944 524 874 421 944 b 125 796 226 944 125 888 b 296 582 125 700 199 639 b 26 250 144 590 26 447 b 306 -71 26 68 122 -71 b 597 250 492 -71 597 63 z "},"ε":{"ha":-281,"x_min":0,"x_max":0,"o":"m 578 132 l 525 132 b 303 -25 496 31 421 -25 b 93 153 204 -25 93 32 b 367 301 93 272 222 301 l 367 344 b 117 493 253 344 117 347 b 317 635 117 599 211 635 b 511 510 429 635 485 596 l 564 510 b 317 683 540 628 442 683 b 64 486 200 683 64 610 b 181 324 64 403 107 346 b 38 146 100 319 38 231 b 306 -72 38 -6 174 -72 b 578 132 440 -72 546 -11 z "},"ζ":{"ha":-271,"x_min":0,"x_max":0,"o":"m 571 -117 b 369 38 571 -26 507 24 b 175 96 275 47 221 56 b 117 240 139 129 117 192 b 476 878 117 465 349 744 l 458 932 l 92 932 l 92 896 l 433 896 b 68 239 290 765 68 461 b 138 71 68 193 101 104 b 313 4 179 32 246 10 b 522 -114 469 -12 522 -35 b 411 -222 522 -187 479 -222 b 267 -187 354 -222 310 -210 l 254 -224 b 413 -261 285 -240 360 -261 b 571 -117 506 -261 571 -218 z "},"η":{"ha":-249,"x_min":0,"x_max":0,"o":"m 615 -143 l 567 -99 b 518 -147 557 -125 542 -147 b 482 -72 486 -147 482 -125 l 482 436 b 278 679 482 599 424 679 b 86 503 161 679 101 589 l 86 658 l 36 658 l 36 -53 l 86 -53 l 86 407 b 279 646 86 556 168 646 b 432 424 378 646 432 569 l 432 -79 b 528 -185 432 -142 444 -185 b 615 -143 574 -185 588 -189 z "},"θ":{"ha":-279,"x_min":0,"x_max":0,"o":"m 78 424 l 540 424 b 308 -31 526 161 468 -31 b 78 424 154 -31 86 164 z m 540 465 l 78 465 b 308 911 92 722 154 911 b 540 465 464 911 526 722 z m 593 440 b 308 954 593 760 519 954 b 24 440 99 954 24 760 b 308 -74 24 122 99 -74 b 593 440 519 -74 593 122 z "},"ι":{"ha":-321,"x_min":0,"x_max":0,"o":"m 431 61 l 381 61 b 290 -35 381 10 367 -35 b 196 69 218 -35 196 -3 l 196 667 l 147 667 l 147 69 b 289 -72 147 -29 194 -72 b 431 61 389 -72 431 -21 z "},"κ":{"ha":-243,"x_min":0,"x_max":0,"o":"m 597 -53 l 307 410 l 588 667 l 515 667 l 100 274 l 100 667 l 53 667 l 53 -53 l 100 -53 l 100 222 l 268 378 l 533 -53 z "},"λ":{"ha":-275,"x_min":0,"x_max":0,"o":"m 606 7 l 546 7 b 475 -62 542 -53 524 -62 b 397 74 436 -61 419 -8 l 201 821 b 139 925 192 860 165 900 b 32 960 113 947 58 960 l 32 918 b 108 886 53 918 83 914 b 149 797 125 864 139 838 l 219 531 l 22 -53 l 83 -53 l 246 432 l 339 76 b 482 -106 371 -40 388 -106 b 606 7 550 -106 596 -67 z "},"μ":{"ha":-269,"x_min":0,"x_max":0,"o":"m 575 -53 l 575 667 l 526 667 l 526 251 b 303 -39 526 97 442 -39 b 104 178 156 -39 104 42 l 104 667 l 56 667 l 56 -262 l 104 -262 l 104 -25 b 279 -72 151 -54 206 -72 b 526 126 442 -72 504 7 l 526 -53 z "},"ν":{"ha":-268,"x_min":0,"x_max":0,"o":"m 604 667 l 560 667 l 339 -32 l 163 576 b 117 650 151 611 144 636 b 17 667 96 663 65 667 l 17 629 b 76 621 43 629 64 626 b 118 561 94 614 110 593 l 306 -53 l 374 -53 z "},"ξ":{"ha":-283,"x_min":0,"x_max":0,"o":"m 533 -104 b 304 40 533 -25 450 28 b 118 235 186 56 118 114 b 372 517 118 390 269 467 l 372 558 b 239 681 361 572 239 610 b 415 897 239 760 419 875 l 408 933 l 101 933 l 101 896 l 343 896 b 193 694 297 860 193 775 b 318 536 193 608 238 582 b 72 226 168 485 72 386 b 301 0 72 85 167 7 b 488 -101 431 -11 488 -35 b 375 -212 488 -167 439 -212 b 272 -179 331 -212 281 -192 l 260 -228 b 375 -261 288 -249 328 -261 b 533 -104 461 -261 533 -192 z "},"ο":{"ha":0,"x_min":0,"x_max":0,"o":"b -376 -114 0 -208 -208 -114 b 210 149 -187 -114 1 -19 "},"π":{"ha":-261,"x_min":0,"x_max":0,"o":"m 610 46 l 549 60 b 490 -28 539 -18 533 -28 b 438 56 450 -28 438 -12 l 438 631 l 599 631 l 599 667 l 21 667 l 21 631 l 182 631 l 182 83 b 158 -1 182 46 172 17 b 57 -24 138 -21 101 -24 l 57 -69 b 203 -31 124 -69 176 -60 b 235 88 224 -6 235 39 l 235 631 l 382 631 l 382 54 b 486 -72 382 -36 414 -72 b 610 46 569 -72 599 -36 z "},"ρ":{"ha":0,"x_min":0,"x_max":0,"o":"b NaN NaN 0 -207 NaN NaN l NaN NaN l NaN NaN l NaN NaN b NaN NaN NaN NaN NaN NaN b NaN NaN NaN NaN NaN NaN "},"σ":{"ha":-258,"x_min":0,"x_max":0,"o":"m 551 303 b 313 -39 551 107 454 -39 b 75 303 169 -39 75 107 b 313 644 75 499 169 644 b 551 303 454 644 551 499 z m 613 647 l 613 686 b 258 675 529 708 354 704 b 31 303 128 635 31 483 b 313 -74 31 94 124 -74 b 596 303 503 -74 596 94 b 438 661 596 471 542 596 b 613 647 478 672 563 664 z "},"τ":{"ha":-279,"x_min":0,"x_max":0,"o":"m 599 631 l 599 667 l 21 667 l 21 631 l 231 631 l 231 67 b 346 -54 231 -18 283 -54 b 464 56 419 -54 451 -21 l 426 65 b 353 -14 418 3 394 -14 b 281 69 315 -14 281 3 l 281 631 z "},"υ":{"ha":-281,"x_min":0,"x_max":0,"o":"m 571 207 b 485 678 571 349 536 558 l 432 664 b 518 201 483 549 518 344 b 294 -29 518 43 454 -29 b 108 138 185 -29 108 14 l 108 667 l 58 667 l 58 138 b 300 -71 58 -17 171 -71 b 571 207 478 -71 571 26 z "},"φ":{"ha":-274,"x_min":0,"x_max":0,"o":"m 289 646 l 289 -40 b 72 303 160 -24 72 114 b 289 646 72 492 160 629 z m 553 303 b 336 -40 553 115 467 -22 l 336 646 b 553 303 467 628 553 490 z m 603 303 b 336 678 603 504 508 663 l 336 933 l 289 933 l 289 679 b 22 303 118 663 22 504 b 289 -74 22 101 118 -57 l 289 -269 l 336 -269 l 336 -72 b 603 303 508 -57 603 99 z "},"χ":{"ha":-276,"x_min":0,"x_max":0,"o":"m 603 667 l 544 667 l 326 296 l 249 581 b 118 667 233 644 200 667 l 42 667 l 42 636 l 132 636 b 207 558 171 636 193 604 l 290 243 l 10 -229 l 68 -229 l 307 176 l 396 -140 b 532 -229 411 -190 449 -229 l 601 -229 l 601 -199 l 513 -199 b 436 -121 464 -199 454 -179 l 343 229 z "},"ψ":{"ha":-276,"x_min":0,"x_max":0,"o":"m 614 643 l 565 654 b 515 350 533 583 515 475 l 515 136 b 336 0 515 47 467 0 l 336 667 l 285 667 l 285 0 b 104 136 156 0 104 47 l 104 350 b 56 654 104 475 88 583 l 7 643 b 58 356 40 565 58 475 l 58 136 b 285 -36 58 3 164 -36 l 285 -269 l 336 -269 l 336 -36 b 563 136 457 -36 563 3 l 563 356 b 614 643 563 472 576 569 z "},"ω":{"ha":-276,"x_min":0,"x_max":0,"o":"m 608 243 b 483 658 608 386 588 538 l 450 625 b 561 246 550 500 561 381 b 443 -35 561 42 517 -35 b 332 118 371 -35 332 26 l 332 451 l 286 451 l 286 118 b 175 -35 286 26 249 -35 b 57 246 101 -35 57 42 b 169 625 57 381 67 500 l 136 658 b 10 243 31 538 10 386 b 176 -75 10 53 44 -75 b 310 43 239 -75 285 -35 b 442 -75 336 -35 379 -75 b 608 243 582 -75 608 57 z "},"─":{"ha":0,"x_min":0,"x_max":0,"o":"m 1306 397 l 1306 438 l 0 438 l 0 397 z "},"│":{"ha":0,"x_min":0,"x_max":0,"o":"m 672 -278 l 672 1111 l 632 1111 l 632 -278 z "},"┌":{"ha":0,"x_min":0,"x_max":0,"o":"m 1304 397 l 1304 438 l 632 438 l 632 -278 l 672 -278 l 672 397 z "},"┐":{"ha":0,"x_min":0,"x_max":0,"o":"m 674 -278 l 674 438 l 0 438 l 0 397 l 633 397 l 633 -278 z "},"┘":{"ha":0,"x_min":0,"x_max":0,"o":"m 674 397 l 674 1111 l 633 1111 l 633 438 l 0 438 l 0 397 z "},"└":{"ha":0,"x_min":0,"x_max":0,"o":"l 0 1304 l -714 1304 "},"├":{"ha":0,"x_min":0,"x_max":0,"o":"l 0 1304 l -1389 1304 l -1389 1344 l -714 1344 "},"┬":{"ha":0,"x_min":0,"x_max":0,"o":"m 1306 397 l 1306 438 l 0 438 l 0 397 l 633 397 l 633 -278 l 674 -278 l 674 397 z "},"┤":{"ha":0,"x_min":0,"x_max":0,"o":"m 674 -278 l 674 1111 l 633 1111 l 633 438 l 0 438 l 0 397 l 633 397 l 633 -278 z "},"┴":{"ha":0,"x_min":0,"x_max":0,"o":"l 0 1306 l -674 1306 l -674 672 l -714 672 "},"┼":{"ha":0,"x_min":0,"x_max":0,"o":"m 1306 396 l 1306 436 l 674 436 l 674 1111 l 633 1111 l 633 436 l 0 436 l 0 396 l 633 396 l 633 -278 l 674 -278 l 674 396 z "},"━":{"ha":0,"x_min":0,"x_max":0,"o":"m 1306 376 l 1306 451 l 0 451 l 0 376 z "},"┃":{"ha":0,"x_min":0,"x_max":0,"o":"m 690 -278 l 690 1111 l 615 1111 l 615 -278 z "},"┏":{"ha":0,"x_min":0,"x_max":0,"o":"m 1304 376 l 1304 451 l 614 451 l 614 -278 l 689 -278 l 689 376 z "},"┓":{"ha":0,"x_min":0,"x_max":0,"o":"m 690 -278 l 690 451 l 0 451 l 0 376 l 615 376 l 615 -278 z "},"┛":{"ha":0,"x_min":0,"x_max":0,"o":"m 690 376 l 690 1111 l 615 1111 l 615 451 l 0 451 l 0 376 z "},"┗":{"ha":0,"x_min":0,"x_max":0,"o":"l 0 1304 l -735 1304 "},"┣":{"ha":0,"x_min":0,"x_max":0,"o":"l 0 1306 l -1389 1306 l -1389 1381 l -735 1381 "},"┳":{"ha":0,"x_min":0,"x_max":0,"o":"m 1306 376 l 1306 451 l 0 451 l 0 376 l 615 376 l 615 -278 l 690 -278 l 690 376 z "},"┫":{"ha":0,"x_min":0,"x_max":0,"o":"m 690 -278 l 690 1111 l 615 1111 l 615 451 l 0 451 l 0 376 l 615 376 l 615 -278 z "},"┻":{"ha":0,"x_min":0,"x_max":0,"o":"l 0 1306 l -660 1306 l -660 690 l -735 690 "},"╋":{"ha":0,"x_min":0,"x_max":0,"o":"l 0 1306 l -660 1306 l -660 690 l -735 690 l -735 1306 l -1389 1306 l -1389 1381 l -735 1381 "},"┠":{"ha":0,"x_min":0,"x_max":0,"o":"l 0 1304 l -1389 1304 l -1389 1410 l -719 1410 "},"┯":{"ha":0,"x_min":0,"x_max":0,"o":"l 0 -1306 l -100 -1306 l -100 -679 l -744 -679 l -744 -626 l -100 -626 "},"┨":{"ha":0,"x_min":0,"x_max":0,"o":"m 706 -278 l 706 1111 l 600 1111 l 600 442 l 0 442 l 0 392 l 600 392 l 600 -278 z "},"┷":{"ha":0,"x_min":0,"x_max":0,"o":"l 0 1306 l -644 1306 l -644 679 l -744 679 "},"┿":{"ha":0,"x_min":0,"x_max":0,"o":"l 0 1306 l -644 1306 l -644 679 l -744 679 l -744 1306 l -1389 1306 l -1389 1358 l -744 1358 "},"┝":{"ha":0,"x_min":0,"x_max":0,"o":"l 0 1304 l -1389 1304 l -1389 1357 l -744 1357 "},"┰":{"ha":0,"x_min":0,"x_max":0,"o":"m 1306 392 l 1306 442 l 0 442 l 0 392 l 600 392 l 600 -278 l 706 -278 l 706 392 z "},"┥":{"ha":0,"x_min":0,"x_max":0,"o":"m 679 -278 l 679 1111 l 626 1111 l 626 467 l 0 467 l 0 367 l 626 367 l 626 -278 z "},"┸":{"ha":0,"x_min":0,"x_max":0,"o":"l 0 1306 l -669 1306 l -669 706 l -719 706 "},"╂":{"ha":0,"x_min":0,"x_max":0,"o":"l 0 1306 l -669 1306 l -669 706 l -719 706 l -719 1306 l -1389 1306 l -1389 1411 l -719 1411 "},"┒":{"ha":0,"x_min":0,"x_max":0,"o":"m 706 -278 l 706 442 l 0 442 l 0 392 l 600 392 l 600 -278 z "},"┑":{"ha":0,"x_min":0,"x_max":0,"o":"m 679 -278 l 679 467 l 0 467 l 0 367 l 626 367 l 626 -278 z "},"┚":{"ha":0,"x_min":0,"x_max":0,"o":"m 706 392 l 706 1111 l 600 1111 l 600 442 l 0 442 l 0 392 z "},"┙":{"ha":0,"x_min":0,"x_max":0,"o":"m 679 367 l 679 1111 l 626 1111 l 626 467 l 0 467 l 0 367 z "},"┖":{"ha":0,"x_min":0,"x_max":0,"o":"l 0 1304 l -719 1304 "},"┕":{"ha":0,"x_min":0,"x_max":0,"o":"l 0 1304 l -744 1304 "},"┎":{"ha":0,"x_min":0,"x_max":0,"o":"m 1304 392 l 1304 442 l 599 442 l 599 -278 l 704 -278 l 704 392 z "},"┍":{"ha":0,"x_min":0,"x_max":0,"o":"m 1304 367 l 1304 467 l 625 467 l 625 -278 l 678 -278 l 678 367 z "},"┞":{"ha":0,"x_min":0,"x_max":0,"o":"l 0 1306 l -694 1306 l -694 1332 l -1389 1332 l -1389 1385 l -1390 2054 "},"┟":{"ha":0,"x_min":0,"x_max":0,"o":"l 0 1304 l -694 1304 l -694 1278 l -1389 1278 l -1389 1383 l -719 1383 "},"┡":{"ha":0,"x_min":0,"x_max":0,"o":"l 0 -694 l 26 -694 l 26 -1389 l 79 -1389 l 79 -744 "},"┢":{"ha":0,"x_min":0,"x_max":0,"o":"l 0 1304 l -694 1304 l -694 1278 l -1389 1278 l -1389 1383 l -744 1383 "},"┦":{"ha":0,"x_min":0,"x_max":0,"o":"m 706 417 l 706 1111 l 600 1111 l 600 442 l 0 442 l 0 392 l 626 392 l 626 -278 l 679 -278 l 679 417 z "},"┧":{"ha":0,"x_min":0,"x_max":0,"o":"m 706 -278 l 706 417 l 679 417 l 679 1111 l 626 1111 l 626 442 l 0 442 l 0 392 l 600 392 l 600 -278 z "},"┩":{"ha":0,"x_min":0,"x_max":0,"o":"m 706 417 l 706 1111 l 600 1111 l 600 467 l 0 467 l 0 367 l 626 367 l 626 -278 l 679 -278 l 679 417 z "},"┪":{"ha":0,"x_min":0,"x_max":0,"o":"m 706 -278 l 706 417 l 679 417 l 679 1111 l 626 1111 l 626 467 l 0 467 l 0 367 l 600 367 l 600 -278 z "},"┭":{"ha":0,"x_min":0,"x_max":0,"o":"m 1306 392 l 1306 442 l 653 442 l 653 467 l 0 467 l 0 367 l 626 367 l 626 -278 l 679 -278 l 679 392 z "},"┮":{"ha":0,"x_min":0,"x_max":0,"o":"l 0 -653 l -25 -653 l -25 -1306 l -75 -1306 l -75 -679 l -744 -679 l -744 -626 l -100 -626 "},"┱":{"ha":0,"x_min":0,"x_max":0,"o":"m 1306 392 l 1306 442 l 653 442 l 653 467 l 0 467 l 0 367 l 600 367 l 600 -278 l 706 -278 l 706 392 z "},"┲":{"ha":0,"x_min":0,"x_max":0,"o":"l 0 -653 l -25 -653 l -25 -1306 l -75 -1306 l -75 -706 l -744 -706 l -744 -600 l -100 -600 "},"┵":{"ha":0,"x_min":0,"x_max":0,"o":"l 0 1306 l -644 1306 l -644 679 l -744 679 l -744 1332 l -719 1332 "},"┶":{"ha":0,"x_min":0,"x_max":0,"o":"l 0 1306 l -669 1306 l -669 679 l -719 679 l -719 1332 l -744 1332 "},"┹":{"ha":0,"x_min":0,"x_max":0,"o":"l 0 1306 l -644 1306 l -644 706 l -744 706 l -744 1358 l -719 1358 "},"┺":{"ha":0,"x_min":0,"x_max":0,"o":"l 0 -669 l -600 -669 l -600 -719 l 53 -719 l 53 -744 "},"┽":{"ha":0,"x_min":0,"x_max":0,"o":"l 0 1306 l -639 1306 l -639 679 l -744 679 l -744 1306 l -1389 1306 l -1389 1358 l -719 1358 "},"┾":{"ha":0,"x_min":0,"x_max":0,"o":"l 0 1306 l -669 1306 l -669 679 l -719 679 l -719 1306 l -1389 1306 l -1389 1358 l -744 1358 "},"╀":{"ha":0,"x_min":0,"x_max":0,"o":"l 0 1306 l -669 1306 l -669 706 l -719 706 l -719 1332 l -1389 1332 l -1389 1385 l -719 1385 "},"╁":{"ha":0,"x_min":0,"x_max":0,"o":"l 0 1306 l -669 1306 l -669 679 l -719 679 l -719 1279 l -1389 1279 l -1389 1385 l -719 1385 "},"╃":{"ha":0,"x_min":0,"x_max":0,"o":"l 0 1306 l -644 1306 l -644 706 l -744 706 l -744 1332 l -1389 1332 l -1389 1385 l -719 1385 "},"╄":{"ha":0,"x_min":0,"x_max":0,"o":"l 0 -669 l -600 -669 l -600 -719 l 26 -719 l 26 -1389 l 79 -1389 l 79 -744 "},"╅":{"ha":0,"x_min":0,"x_max":0,"o":"l 0 1306 l -644 1306 l -644 679 l -744 679 l -744 1279 l -1389 1279 l -1389 1385 l -719 1385 "},"╆":{"ha":0,"x_min":0,"x_max":0,"o":"l 0 1306 l -669 1306 l -669 679 l -719 679 l -719 1279 l -1389 1279 l -1389 1385 l -744 1385 "},"╇":{"ha":0,"x_min":0,"x_max":0,"o":"l 0 -644 l -600 -644 l -600 -744 l 26 -744 l 26 -1389 l 79 -1389 l 79 -744 "},"╈":{"ha":0,"x_min":0,"x_max":0,"o":"l 0 1306 l -644 1306 l -644 679 l -744 679 l -744 1279 l -1389 1279 l -1389 1385 l -744 1385 "},"╉":{"ha":0,"x_min":0,"x_max":0,"o":"l 0 1306 l -644 1306 l -644 706 l -744 706 l -744 1306 l -1389 1306 l -1389 1411 l -719 1411 "},"╊":{"ha":0,"x_min":0,"x_max":0,"o":"l 0 -669 l -600 -669 l -600 -719 l 0 -719 l 0 -1389 l 106 -1389 l 106 -744 "},"㎕":{"ha":894,"x_min":0,"x_max":0,"o":"m -450 564 z "},"㎖":{"ha":-193,"x_min":0,"x_max":0,"o":"m 1138 96 b 994 -31 1104 18 1056 -31 b 904 118 956 -31 900 35 b 1207 736 1079 276 1207 569 b 1090 928 1207 847 1178 928 b 892 647 1000 928 933 824 b 861 133 858 483 849 301 b 753 56 824 104 785 75 l 774 24 b 864 93 806 47 839 68 b 993 -68 872 17 911 -68 b 1168 79 1072 -68 1126 -17 z m 894 161 b 931 651 894 304 894 514 b 1079 886 964 776 1013 886 b 1167 724 1147 886 1167 832 b 894 161 1167 563 1032 288 z "},"㎗":{"ha":881,"x_min":0,"x_max":0,"o":"m -506 224 b -843 297 -506 385 -664 297 b -1142 381 -1000 297 -1142 201 b -811 681 -1142 539 -962 681 b -897 NaN -718 681 -897 522 z m -858 NaN l -858 NaN l -897 NaN l -897 NaN b -1142 NaN -922 NaN -1044 NaN b -1418 NaN -1307 NaN -1418 NaN b -1183 NaN -1418 NaN -1307 NaN b -976 NaN -1110 NaN -976 NaN l -976 NaN z "},"ℓ":{"ha":-149,"x_min":0,"x_max":0,"o":""},"㎘":{"ha":840,"x_min":0,"x_max":0,"o":"m -440 -154 z "},"㏄":{"ha":0,"x_min":0,"x_max":0,"o":"m 629 171 z m 1185 171 z "},"㎣":{"ha":0,"x_min":0,"x_max":0,"o":"m 1200 -54 z m 635 -54 "},"㎤":{"ha":0,"x_min":0,"x_max":0,"o":"m 1200 -54 z m 658 171 l 611 171 b 411 -35 592 49 510 -35 b 181 303 269 -35 181 113 b 410 640 181 481 261 640 b 588 447 514 640 588 550 b NaN NaN 588 467 610 NaN "},"㎥":{"ha":0,"x_min":0,"x_max":0,"o":""},"㎦":{"ha":0,"x_min":0,"x_max":0,"o":"m 1200 -54 "},"㎙":{"ha":1146,"x_min":0,"x_max":0,"o":"m -632 943 l -632 889 l -590 889 b -646 893 -603 892 -619 893 b -785 714 -753 893 -785 831 l -785 618 l -903 618 l -903 578 l -785 578 l -785 -96 l -733 -96 l -733 578 l -604 578 l -604 618 l -733 618 l -733 710 b -636 851 -733 799 -715 851 b -590 847 -615 851 -596 849 z "},"㎚":{"ha":1203,"x_min":0,"x_max":0,"o":"m -649 0 l -649 -54 l -174 -54 b -357 206 -174 101 -211 206 b -542 68 -431 206 -508 182 l -542 185 l -586 185 l -586 -529 l -542 -529 l -542 -97 b -362 165 -542 53 -486 165 b -219 -67 -253 165 -219 76 l -219 -529 z "},"㎛":{"ha":-43,"x_min":0,"x_max":0,"o":"m 1228 -54 z m 697 643 z "},"㎜":{"ha":0,"x_min":0,"x_max":0,"o":"m 1200 -54 z m 635 -54 z "},"㎝":{"ha":0,"x_min":0,"x_max":0,"o":"m 1193 -54 z m 663 171 l 614 171 b 414 -35 596 49 514 -35 b 185 303 274 -35 185 113 b 413 640 185 481 264 640 b 592 447 518 640 592 550 b NaN NaN 592 465 615 NaN z "},"㎞":{"ha":-568,"x_min":0,"x_max":0,"o":"m 1200 -54 z "},"㎟":{"ha":640,"x_min":0,"x_max":0,"o":"m 1200 -54 z m 635 -54 z "},"㎠":{"ha":582,"x_min":0,"x_max":0,"o":"m 1200 -54 z m 658 171 l 611 171 b 411 -35 592 49 510 -35 b 181 303 269 -35 181 113 b 410 640 181 481 261 640 b 588 447 514 640 588 550 b NaN NaN 588 467 610 NaN z "},"㎡":{"ha":1006,"x_min":0,"x_max":0,"o":""},"㎢":{"ha":-568,"x_min":0,"x_max":0,"o":"m 1200 -54 z "},"㏊":{"ha":0,"x_min":0,"x_max":0,"o":"m 1185 -53 l 1185 -14 b 1175 -15 1183 -15 1179 -14 b 1117 56 1133 -15 1117 11 l 1117 467 b 906 681 1117 646 1019 681 b 675 458 774 681 679 600 l 718 458 b 897 638 725 574 804 638 b 1074 475 1000 638 1074 593 b 968 367 1074 411 1040 381 b 647 117 788 329 647 300 b 839 -75 647 -7 733 -75 b 1068 100 975 -75 1057 -1 b 1151 -54 1061 6 1078 -54 b 1185 -53 1172 -54 1181 -53 z m 1074 388 l 1074 236 b 847 -35 1074 75 981 -35 b 693 122 751 -35 693 21 b 989 328 693 263 790 283 b 1074 388 1026 335 1063 357 z m 588 -54 l 588 365 l 544 365 l 544 -624 l 588 -624 l 588 -212 b 800 71 588 -62 675 71 b 967 -162 922 71 967 -31 l 967 -624 z m 1492 -461 b 1490 -469 1492 -464 1490 -467 b 1492 -461 1490 -467 1492 -464 z "},"㎍":{"ha":1150,"x_min":0,"x_max":0,"o":"m -492 614 z "},"㎎":{"ha":1189,"x_min":0,"x_max":0,"o":"m -536 -375 z "},"㎏":{"ha":540,"x_min":0,"x_max":0,"o":"m 636 -53 b 364 407 544 99 454 254 b 604 658 444 492 525 574 l 547 658 b 193 289 431 535 311 413 l 193 933 l 150 933 l 150 -53 l 193 -53 l 193 231 b 329 371 239 278 285 324 b 582 -53 414 229 497 88 z "},"㏏":{"ha":0,"x_min":0,"x_max":0,"o":"m 717 -54 l 447 407 l 686 660 l 632 660 l 279 290 l 279 935 l 239 935 l 239 -54 l 279 -54 l 279 231 l 417 371 l 667 -54 z m 1065 -62 l 1065 -24 b 1011 -25 1063 -24 1035 -25 b 928 76 953 -25 928 3 l 928 619 l 1065 619 l 1065 660 l 928 660 l 928 875 l 879 875 l 879 660 l 760 660 l 760 619 l 879 619 l 879 75 b 1008 -65 879 -33 910 -65 b 1065 -62 1035 -65 1054 -62 z "},"㎈":{"ha":0,"x_min":0,"x_max":0,"o":"b 274 885 0 968 390 885 b 79 888 163 885 79 836 b 243 1082 79 989 218 1082 b 446 NaN 401 1082 446 NaN b 521 NaN 476 NaN 508 NaN m 111 NaN l 79 NaN b -89 NaN 68 NaN -3 NaN b -283 NaN -206 NaN -283 NaN b -90 NaN -283 NaN -215 NaN b 76 NaN -3 NaN 61 NaN l 106 NaN b -90 NaN 92 NaN 13 NaN b -322 NaN -236 NaN -322 NaN b -89 NaN -322 NaN -236 NaN b 111 NaN 24 NaN 93 NaN z m 515 NaN b 585 NaN 510 NaN 525 NaN b 610 NaN 597 NaN 607 NaN l 610 NaN l 601 NaN b 551 NaN 569 NaN 551 NaN l 551 NaN b 379 NaN 551 NaN 475 NaN b 183 NaN 268 NaN 188 NaN l 214 NaN b 368 NaN 221 NaN 286 NaN b 521 NaN 457 NaN 521 NaN b 431 NaN 521 NaN 489 NaN b 163 NaN 281 NaN 163 NaN b 319 NaN 163 NaN 224 NaN b 515 NaN 431 NaN 497 NaN z m 724 NaN l 724 NaN l 693 NaN l 693 NaN z "},"㎉":{"ha":0,"x_min":0,"x_max":0,"o":"m 743 175 l 718 175 b 593 -32 711 60 658 -32 b 450 307 507 -32 450 115 b 593 646 450 485 500 646 b 717 451 658 646 706 553 l 739 451 b 593 686 729 582 669 686 b 421 307 485 686 421 513 b 593 -72 421 93 485 -72 b 743 175 678 -72 731 33 z m 1201 -54 l 1201 935 l 1171 935 l 1171 -54 z m 1049 389 l 1049 232 b 718 42 900 167 783 79 b 918 246 769 142 908 214 z m 914 -60 b 968 -197 908 -146 921 -197 b 988 -196 978 -197 985 -196 l 988 -158 l 981 -158 b 942 -87 956 -160 942 -132 l 942 322 b 807 535 942 493 882 535 b 654 314 719 535 657 456 l 678 314 b 799 493 683 426 735 493 b 918 331 868 493 918 447 b 847 222 918 267 893 239 b 638 -28 729 181 638 158 b 760 -218 638 -161 685 -218 b 914 -60 847 -218 899 -151 z m 325 -196 b 132 265 253 -44 203 113 b 321 517 194 350 258 432 l 276 517 b -3 147 185 393 90 271 l -3 793 l -36 793 l -36 -196 l -3 -196 l -3 89 b 104 229 33 136 69 182 b 282 -196 171 88 215 -56 z "},"㏈":{"ha":0,"x_min":0,"x_max":0,"o":"m 572 303 b 356 -35 572 144 513 -35 b 146 303 214 -35 146 144 b 356 640 146 461 214 640 b 572 303 507 640 572 461 z m 1147 215 b 922 -7 1147 60 1046 -7 l 740 -7 l 740 438 l 922 438 b 1147 215 1064 438 1147 358 z m 1118 685 b 922 485 1118 583 1054 485 l 740 485 l 740 888 l 922 888 b 1118 685 1053 888 1118 814 z m 611 -54 l 611 935 l 572 935 l 572 478 b 356 681 547 599 453 681 b 107 303 190 681 107 499 b 286 -75 107 108 190 -75 b 493 NaN 360 -75 493 -60 l 493 NaN z m 1111 NaN b 1099 NaN 1111 NaN 1039 NaN l 872 NaN l 872 NaN l 1099 NaN b 1367 NaN 1267 NaN 1367 NaN z "},"㎧":{"ha":624,"x_min":0,"x_max":0,"o":""},"㎨":{"ha":603,"x_min":0,"x_max":0,"o":""},"㎰":{"ha":0,"x_min":0,"x_max":0,"o":"m 625 303 b 410 -35 625 125 539 -35 b 183 303 247 -35 183 139 b 410 640 183 485 269 640 b 625 303 539 640 625 481 z m 665 303 b 410 681 665 528 567 681 b 183 476 285 681 200 589 l 183 660 l 143 660 l 143 -275 l 183 -275 l 183 128 b 410 -75 201 17 297 -75 b 665 303 567 -75 665 76 z m 1161 135 b 1001 319 1161 253 1089 293 l 903 350 b 767 493 832 376 767 397 b 928 639 767 576 824 639 b 1099 460 1029 639 1092 561 l 1140 460 b 931 681 1133 590 1044 681 b 728 488 800 681 728 603 b 883 307 728 379 808 326 l 978 278 b 1121 128 1061 249 1121 217 b 940 -33 1121 28 1047 -33 b 749 168 833 -33 760 50 l 707 168 b 938 -75 725 8 806 -75 b 1161 135 1065 -75 1161 -11 z "},"㎱":{"ha":0,"x_min":0,"x_max":0,"o":"m 617 -54 z m 1172 135 b 1013 319 1172 253 1099 293 l 914 350 b 778 493 842 376 778 397 b 938 639 778 576 835 639 b 1110 460 1039 639 1103 561 l 1150 460 b 940 681 1144 590 1056 681 b 738 488 811 681 738 603 b 893 307 738 379 818 326 l 989 278 b 1132 128 1072 249 1132 217 b 950 -33 1132 28 1058 -33 b 758 168 844 -33 769 50 l 717 168 b 947 -75 735 8 817 -75 b 1172 135 1075 -75 1172 -11 z "},"㎲":{"ha":0,"x_min":0,"x_max":0,"o":"m 725 643 "},"㎳":{"ha":0,"x_min":0,"x_max":0,"o":""},"㎴":{"ha":0,"x_min":0,"x_max":0,"o":"m 608 303 b 393 -35 608 125 519 -35 b 163 303 228 -35 163 139 b 393 640 163 485 247 640 b 608 303 519 640 608 481 z m 650 303 b 393 681 650 528 551 681 b 163 476 265 681 181 589 l 163 660 l 121 660 l 121 -275 l 163 -275 l 163 128 b 393 -75 179 15 281 -75 b 650 303 551 -75 650 76 z m 1186 935 l 1132 935 l 890 -12 l 646 935 l 593 935 l 854 -54 l 925 -54 z "},"㎵":{"ha":0,"x_min":0,"x_max":0,"o":"l 1168 258 l 179 NaN l 249 NaN m -81 NaN z "},"㎶":{"ha":0,"x_min":0,"x_max":0,"o":"l 1203 69 l 933 -133 l 297 56 l 882 224 l 242 NaN l 311 NaN "},"㎷":{"ha":0,"x_min":0,"x_max":0,"o":"l 660 -54 l 1251 935 l 1510 -54 l 1579 -54 "},"㎸":{"ha":0,"x_min":0,"x_max":0,"o":"l 1154 71 l 879 NaN l 846 NaN l 490 NaN l 490 NaN l 447 NaN l 447 NaN l 490 NaN l 490 NaN l 628 NaN l 881 NaN l 933 NaN l 661 NaN l 885 NaN l 1067 NaN l 1136 NaN "},"㎹":{"ha":0,"x_min":0,"x_max":0,"o":"l 1258 258 l 269 NaN l 339 NaN m -339 NaN l -565 NaN b -561 NaN -565 NaN -542 NaN l -604 NaN l -603 NaN l -531 NaN l -314 NaN l -97 NaN l -25 NaN l -24 NaN l -67 NaN b -62 NaN -86 NaN -62 NaN l -289 NaN z "},"㎀":{"ha":493,"x_min":0,"x_max":0,"o":"m 560 303 b 363 -35 560 125 490 -35 b 147 303 199 -35 147 139 b 363 640 147 485 215 640 b 560 303 490 640 560 481 z m 282 -292 b 660 -374 282 -278 507 -374 b 382 -535 511 -374 382 -442 b NaN NaN 382 -650 363 NaN l NaN NaN l NaN NaN l NaN NaN l NaN NaN l NaN NaN b NaN NaN NaN NaN NaN NaN b NaN NaN NaN NaN NaN NaN z "},"㎁":{"ha":1074,"x_min":0,"x_max":0,"o":"m -637 0 l -637 317 l -324 317 l -324 -635 l -175 -635 l -175 -678 l -893 -678 l -893 -635 l -482 -635 b -269 -351 -482 -485 -394 -351 b -103 -585 -147 -351 -103 -453 l -103 -1046 z "},"㎂":{"ha":0,"x_min":0,"x_max":0,"o":"m 1090 317 l 753 317 l 922 897 z m 1246 -54 l 951 935 l 892 935 l 618 18 l 593 36 b 500 -36 561 -19 526 -36 b 435 1 471 -36 447 -26 l 646 642 l 600 653 l 399 29 b 288 -31 368 -17 335 -31 b 193 57 240 -31 210 -1 l 382 638 l 336 650 l 57 -200 l 101 -215 l 179 22 b 285 -65 194 -36 232 -65 b 401 -7 332 -65 365 -51 b 511 -68 415 -46 458 -68 b 614 -1 547 -68 581 -46 l 597 -54 l 646 -54 l 738 269 l 1107 269 l 1197 -54 z "},"㎃":{"ha":1242,"x_min":0,"x_max":0,"o":"m -342 -951 z "},"㎄":{"ha":-104,"x_min":0,"x_max":0,"o":"m 1214 -54 l 929 935 l 872 935 l 589 935 l 589 -42 l 325 -42 l 325 407 l 411 407 l 500 731 l 861 731 l 951 407 z "},"㎺":{"ha":654,"x_min":0,"x_max":0,"o":"m 535 303 b 332 -35 535 125 464 -35 b 114 303 169 -35 114 139 b 332 640 114 485 186 640 b 535 303 464 640 535 481 z m 579 303 b 332 681 579 529 492 681 b 114 472 201 681 136 588 l 114 660 l 71 660 l 71 -275 l 114 -275 l 114 129 b 332 -75 136 17 214 -75 b 579 303 490 -75 579 76 z "},"㎻":{"ha":1206,"x_min":0,"x_max":0,"o":"m -549 0 z "},"㎼":{"ha":0,"x_min":0,"x_max":0,"o":"m 1226 935 l 1175 935 l 1060 935 l 1060 -17 l 938 -17 l 938 -100 l 815 -100 l 815 -1051 l 701 -1051 l 701 -1101 l 739 -1389 l 725 -1385 l 528 -2007 b 418 -2067 496 -2053 464 -2067 b 324 -1979 374 -2067 343 -2037 l 507 -1399 l 465 -1386 l 193 -2236 l 232 -2250 l 310 -2014 b 415 -2101 326 -2072 364 -2101 b 529 -2043 461 -2101 493 -2087 b 628 -2104 542 -2082 578 -2104 b 743 -2025 669 -2104 710 -2082 l 710 -2001 b 628 -2071 685 -2050 654 -2072 b 560 -2040 597 -2071 576 -2067 l 747 -1458 l 831 -2090 l 897 -2090 l 1031 -1140 l 1161 -2090 l 1229 -2090 z "},"㎽":{"ha":1233,"x_min":0,"x_max":0,"o":"m -517 0 z "},"㎾":{"ha":1240,"x_min":0,"x_max":0,"o":""},"㎿":{"ha":908,"x_min":0,"x_max":0,"o":"m 296 -54 l 97 869 b 101 -54 97 753 121 590 b 106 869 82 590 106 753 l -93 -54 z "},"㎐":{"ha":0,"x_min":0,"x_max":0,"o":"m 644 -54 l 644 935 l 592 935 l 592 492 l 161 492 l 161 935 l 107 935 l 107 -54 l 161 -54 l 161 444 l 592 444 l 592 -54 z m 1196 -54 l 1196 -14 l 765 -14 l 1185 614 l 1185 660 l 743 660 l 743 619 l 1129 619 l 721 -6 l 721 -54 z "},"㎑":{"ha":0,"x_min":0,"x_max":0,"o":"m 439 -54 l 222 403 l 418 660 l 372 660 l 96 292 l 96 935 l 60 935 l 60 -54 l 96 -54 l 96 232 l 197 374 l 400 -54 z m 838 -54 l 838 935 l 794 935 l 794 492 l 496 492 l 496 935 l 453 935 l 453 -54 l 496 -54 l 496 444 l 794 444 l 794 -54 z m 1246 -54 l 1246 -14 l 924 -14 l 1238 613 l 1238 660 l 901 660 l 901 619 l 1190 619 l 883 -4 l 883 -54 z "},"㎒":{"ha":0,"x_min":0,"x_max":0,"o":"m 500 -54 l 500 935 l 433 935 l 279 -25 l 124 935 l 58 935 l 58 -54 l 92 -54 l 92 910 l 257 -54 l 301 -54 l 465 906 l 465 -54 z m 882 -54 l 882 935 l 847 935 l 847 492 l 585 492 l 585 935 l 550 935 l 550 -54 l 585 -54 l 585 444 l 847 444 l 847 -54 z m 1247 -54 l 1247 -14 l 960 -14 l 1239 611 l 1239 660 l 944 660 l 944 619 l 1201 619 l 928 -3 l 928 -54 z "},"㎓":{"ha":0,"x_min":0,"x_max":0,"o":"m 513 -54 l 513 432 l 261 432 l 261 385 l 482 385 b 300 -28 485 154 417 -28 b 101 440 165 -28 101 201 b 300 908 101 667 172 908 b 467 644 408 908 460 753 l 506 644 b 300 956 494 842 428 956 b 58 440 129 956 58 733 b 300 -75 58 147 129 -75 b 490 207 428 -75 471 43 l 490 -54 z m 885 -54 l 885 935 l 849 935 l 849 492 l 583 492 l 583 935 l 550 935 l 550 -54 l 583 -54 l 583 444 l 849 444 l 849 -54 z m 1249 -54 l 1249 -14 l 958 -14 l 1240 611 l 1240 660 l 940 660 l 940 619 l 1200 619 l 925 -3 l 925 -54 z "},"㎔":{"ha":0,"x_min":0,"x_max":0,"o":"m 479 888 l 479 935 l 56 935 l 56 888 l 242 888 l 242 -54 l 292 -54 l 292 888 z m 875 -54 l 875 935 l 838 935 l 838 492 l 563 492 l 563 935 l 526 935 l 526 -54 l 563 -54 l 563 444 l 838 444 l 838 -54 z m 1250 -54 l 1250 -14 l 949 -14 l 1243 611 l 1243 660 l 931 660 l 931 619 l 1200 619 l 913 -3 l 913 -54 z "},"Ω":{"ha":49,"x_min":0,"x_max":0,"o":"m 850 572 b 474 956 850 785 686 956 b 97 572 261 956 97 785 b 360 203 97 369 219 229 l 360 -24 l 164 -24 l 164 178 l 124 178 l 124 -54 l 404 -54 l 404 226 b 146 572 243 263 146 396 b 474 921 146 754 297 921 b 801 572 672 921 801 754 b 543 226 801 396 704 263 l 543 -54 l 824 -54 l 824 178 l 783 178 l 783 -24 l 588 -24 l 588 203 b 850 572 728 229 850 369 z "},"㏀":{"ha":0,"x_min":0,"x_max":0,"o":"m 567 -54 l 300 407 l 538 660 l 479 660 l 136 288 l 136 935 l 96 935 l 96 -54 l 136 -54 l 136 229 l 268 372 l 513 -54 z m 1210 572 b 903 956 1210 785 1083 956 b 596 572 722 956 596 785 b 808 203 596 371 688 229 l 808 -24 l 639 -24 l 639 178 l 607 178 l 607 -54 l 843 -54 l 843 226 b 633 572 707 263 633 394 b 858 919 633 754 754 919 b 510 668 692 919 510 742 b NaN 500 510 536 374 500 l NaN 219 l NaN 219 l NaN 451 l NaN 451 l NaN 250 l NaN 250 l NaN 476 b NaN 846 NaN 503 NaN 644 z "},"㏁":{"ha":0,"x_min":0,"x_max":0,"o":"m 1217 572 b 910 956 1217 785 1096 956 b 604 572 725 956 604 785 b 822 203 604 371 699 229 l 822 -24 l 653 -24 l 653 178 l 617 178 l 617 -54 l 863 -54 l 863 226 b 646 572 721 263 646 394 b 910 921 646 754 760 921 b 1175 572 1081 921 1175 754 b 958 226 1175 394 1099 263 l 958 -54 l 1203 -54 l 1203 178 l 1168 178 l 1168 -24 l 999 -24 l 999 203 b 1217 572 1121 229 1217 371 z m 289 -54 l 90 869 l 94 -54 l 99 869 l -100 -54 z "},"㎊":{"ha":0,"x_min":0,"x_max":0,"o":"m 575 303 b 358 -35 575 125 485 -35 b 125 303 193 -35 125 139 b 358 640 125 485 214 640 b 575 303 485 640 575 481 z m 125 660 l 82 660 l 82 -275 l 125 -275 l 125 128 b 358 -75 142 15 246 -75 b 618 303 518 -75 618 76 b 358 681 618 528 518 681 b 125 493 238 681 149 597 z m 1224 888 "},"㎋":{"ha":0,"x_min":0,"x_max":0,"o":"m 589 -54 l 589 421 b 367 681 589 579 539 681 b 142 493 260 681 151 599 l 142 660 l 92 660 l 92 -54 l 142 -54 l 142 378 b 360 640 142 528 226 640 b 539 408 489 640 539 554 l 539 -54 z m 1219 888 "},"㎌":{"ha":0,"x_min":0,"x_max":0,"o":"m 1254 888 l 1254 935 l 719 935 l 719 644 l 682 653 l 485 29 l 685 653 "},"㏖":{"ha":0,"x_min":0,"x_max":0,"o":"m 1101 303 b 888 681 1101 513 1022 681 b 675 303 757 681 675 514 b 888 -75 675 92 757 -75 b 1101 303 1022 -75 1101 93 z m 1067 303 b 888 -35 1067 110 993 -35 b 710 303 785 -35 710 110 b 888 640 710 496 785 640 b 1067 303 993 640 1067 496 z m 614 -54 z m 1239 -54 l 1239 935 l 1204 935 l 1204 -54 z "},"㏅":{"ha":0,"x_min":0,"x_max":0,"o":"m 1154 303 b 922 -35 1154 144 1092 -35 b 708 303 774 -35 708 144 b 922 640 708 461 774 640 b 1154 303 1085 640 1154 461 z m 611 171 l 567 171 b 376 -35 546 49 471 -35 b 160 303 243 -35 160 113 b 375 640 160 481 235 640 b 563 447 474 640 546 550 l 607 447 b 375 681 588 579 494 681 b 108 303 208 681 108 507 b 376 -75 108 89 214 -75 b 611 171 504 -75 589 25 z m 1199 -54 l 1199 935 l 1154 935 l 1154 481 b 922 681 1128 599 1028 681 b 663 303 749 681 663 499 b 922 -75 663 108 749 -75 b 1154 131 1033 -75 1136 -1 l 1154 -54 z "},"㎭":{"ha":0,"x_min":0,"x_max":0,"o":"m 1222 -54 l 1222 935 l 1183 935 l 1183 474 b 994 681 1158 597 1096 681 b 779 303 838 681 779 497 b 994 -75 779 108 835 -75 b 1183 135 1096 -75 1158 -6 l 1183 -54 z m 1182 303 b 999 -35 1182 144 1132 -35 b 822 303 871 -35 822 144 b 999 640 822 461 872 640 b 1182 303 1124 640 1182 461 z m 776 -53 l 776 -14 b 767 -15 772 -14 771 -12 b 715 56 729 -17 715 11 l 715 467 b 536 681 715 624 644 681 b 335 458 410 681 342 606 l 378 458 b 526 639 382 572 438 639 b 669 475 628 639 669 592 b 574 367 669 411 638 383 b 306 117 407 325 306 297 b 471 -75 306 -18 363 -75 b 668 104 596 -75 656 6 b 746 -54 660 6 681 -54 b 776 -53 760 -54 772 -53 b 1103 -239 776 -160 1219 -239 b 904 -224 992 -239 904 -275 b 1068 -64 904 -122 1039 -64 b 1292 NaN 1247 -64 1292 NaN b 1368 NaN 1324 NaN 1357 NaN z m 821 NaN l 781 NaN l 781 NaN l 821 NaN l 821 NaN b 1019 NaN 821 NaN 914 NaN l 1019 NaN b 821 NaN 910 NaN 850 NaN z "},"㎮":{"ha":0,"x_min":0,"x_max":0,"o":""},"㎯":{"ha":0,"x_min":0,"x_max":0,"o":""},"㏛":{"ha":0,"x_min":0,"x_max":0,"o":"m 679 135 b 525 319 679 253 610 293 l 429 350 b 296 493 360 376 296 399 b 453 639 296 576 351 639 b 621 460 553 639 614 561 l 658 460 b 456 681 651 590 565 681 b 260 488 331 681 260 603 b 410 307 260 379 339 326 l 503 278 b 642 128 585 249 642 217 b 465 -33 642 28 571 -33 b 278 168 361 -33 289 50 l 239 168 b 463 -75 257 8 336 -75 b 679 135 588 -75 679 -11 z m 1064 614 l 1064 668 b 821 447 935 672 831 576 l 821 660 l 775 660 l 775 -54 l 821 -54 l 821 342 b 1064 614 821 500 942 625 z "},"㎩":{"ha":0,"x_min":0,"x_max":0,"o":"m 640 660 b 425 935 640 829 556 935 l 178 935 l 178 -54 l 219 -54 l 219 386 l 425 386 b 640 660 560 386 640 493 z m 1128 -53 l 1128 -24 b 1119 -17 1128 -17 1126 -15 b 1064 56 1083 -18 1064 11 l 1064 467 b 874 681 1064 638 976 681 b 663 458 756 681 667 592 l 699 458 b 864 640 704 571 776 640 b 1028 475 964 640 1028 593 b 931 367 1028 411 997 381 b 644 NaN 765 326 644 NaN b 810 NaN 644 NaN 721 NaN b 1025 NaN 939 NaN 1013 NaN b 1099 NaN 1017 NaN 1031 NaN b 1128 NaN 1111 NaN 1128 NaN z m 600 NaN b 410 NaN 600 NaN 519 NaN l 219 NaN l 219 NaN l 410 NaN b 600 NaN 519 NaN 600 NaN z m 1028 NaN l 1028 NaN b 819 NaN 1028 NaN 940 NaN b 675 NaN 732 NaN 675 NaN b 950 NaN 675 NaN 769 NaN b 1028 NaN 982 NaN 1017 NaN z m 1026 NaN b 1025 NaN 1026 NaN 1025 NaN b 1026 NaN 1026 NaN 1026 NaN z "},"㎪":{"ha":0,"x_min":0,"x_max":0,"o":"m 858 660 b 686 935 858 826 792 935 l 492 935 l 492 -54 l 529 -54 l 529 386 l 686 386 b 858 660 793 386 858 493 z m 1224 -53 l 1224 -14 b 1217 -15 1221 -14 1219 -12 b 1250 -114 1217 -44 1208 -114 b 1076 -257 1169 -114 1076 -182 b NaN NaN 1076 -404 1072 NaN l NaN NaN b NaN NaN NaN NaN NaN NaN b NaN NaN NaN NaN NaN NaN b NaN NaN NaN NaN NaN NaN b NaN NaN NaN NaN NaN NaN b NaN NaN NaN NaN NaN NaN b NaN NaN NaN NaN NaN NaN b NaN NaN NaN NaN NaN NaN b NaN NaN NaN NaN NaN NaN z m NaN NaN b NaN NaN NaN NaN NaN NaN l NaN NaN l NaN NaN l NaN NaN b NaN NaN NaN NaN NaN NaN b NaN NaN NaN NaN NaN NaN b NaN NaN NaN NaN NaN NaN b NaN NaN NaN NaN NaN NaN b NaN NaN NaN NaN NaN NaN b NaN NaN NaN NaN NaN NaN z m NaN NaN l NaN NaN l NaN NaN l NaN NaN l NaN NaN l NaN NaN l NaN NaN l NaN NaN l NaN NaN l NaN NaN l NaN NaN l NaN NaN z m NaN NaN b NaN NaN NaN NaN NaN NaN b NaN NaN NaN NaN NaN NaN z "},"㎫":{"ha":0,"x_min":0,"x_max":0,"o":"m 894 660 b 731 935 894 826 831 935 l 567 935 l 567 -54 l 603 -54 l 603 386 l 731 386 b 894 660 832 386 894 493 z m 1243 -53 l 1243 -14 b 1238 -15 1240 -14 1238 -14 b 1268 -107 1238 -40 1226 -107 b 1103 -244 1192 -107 1103 -169 b NaN NaN 1103 -392 1096 NaN l NaN NaN b NaN NaN NaN NaN NaN NaN b NaN NaN NaN NaN NaN NaN b NaN NaN NaN NaN NaN NaN b NaN NaN NaN NaN NaN NaN b NaN NaN NaN NaN NaN NaN b NaN NaN NaN NaN NaN NaN b NaN NaN NaN NaN NaN NaN b NaN NaN NaN NaN NaN NaN z m NaN NaN l NaN NaN l NaN NaN l NaN NaN l NaN NaN l NaN NaN l NaN NaN l NaN NaN l NaN NaN l NaN NaN l NaN NaN l NaN NaN l NaN NaN b NaN NaN NaN NaN NaN NaN b NaN NaN NaN NaN NaN NaN b NaN NaN NaN NaN NaN NaN z "},"㎬":{"ha":0,"x_min":0,"x_max":0,"o":"m 894 660 b 732 935 894 826 831 935 l 567 935 l 567 -54 l 603 -54 l 603 386 l 732 386 b 894 660 832 386 894 493 z m 1242 -53 l 1242 -14 b 1235 -15 1238 -14 1236 -14 b 1265 -106 1235 -40 1224 -106 b 1099 -243 1188 -106 1099 -168 b NaN NaN 1099 -390 1093 NaN l NaN NaN b NaN NaN NaN NaN NaN NaN b NaN NaN NaN NaN NaN NaN b NaN NaN NaN NaN NaN NaN b NaN NaN NaN NaN NaN NaN b NaN NaN NaN NaN NaN NaN b NaN NaN NaN NaN NaN NaN b NaN NaN NaN NaN NaN NaN b NaN NaN NaN NaN NaN NaN z m NaN NaN l NaN NaN l NaN NaN l NaN NaN l NaN NaN b NaN NaN NaN NaN NaN NaN b NaN NaN NaN NaN NaN NaN b NaN NaN NaN NaN NaN NaN b NaN NaN NaN NaN NaN NaN l NaN NaN b NaN NaN NaN NaN NaN NaN b NaN NaN NaN NaN NaN NaN b NaN NaN NaN NaN NaN NaN b NaN NaN NaN NaN NaN NaN l NaN NaN b NaN NaN NaN NaN NaN NaN b NaN NaN NaN NaN NaN NaN b NaN NaN NaN NaN NaN NaN z "},"㏝":{"ha":-543,"x_min":0,"x_max":0,"o":"m 1206 303 b 993 -35 1206 144 1142 -35 b 769 303 832 -35 769 144 b 993 640 769 461 836 640 b 1206 303 1142 640 1206 461 z m 1249 303 b 993 681 1249 499 1169 681 b 769 478 892 681 797 596 l 769 935 l 728 935 l 728 -54 l 769 -54 l 769 132 b 993 -75 790 -1 888 -75 b 1249 303 1169 -75 1249 108 z "},"㏐":{"ha":1157,"x_min":0,"x_max":0,"o":"m -879 990 l -926 990 l -926 0 l -879 0 z "},"㏓":{"ha":0,"x_min":0,"x_max":0,"o":"m 315 -54 l 315 935 l 268 935 l 268 -54 z m 1035 -54 l 776 319 l 1011 660 l 950 660 l 749 358 l 546 660 l 486 660 l 722 319 l 467 -54 l 522 -54 l 750 281 l 978 -54 z "},"㏃":{"ha":0,"x_min":0,"x_max":0,"o":"m 572 215 b 349 -7 572 60 472 -7 l 165 -7 l 165 438 l 349 438 b 572 215 489 438 572 358 z m 543 685 b 349 485 543 583 481 485 l 165 485 l 165 888 l 349 888 b 543 685 479 888 543 814 z m 1142 303 b 918 -35 1142 139 1079 -35 b 711 303 789 -35 711 125 b 918 640 711 481 789 640 b 1142 303 1063 640 1142 485 z m 615 217 b 604 119 615 358 544 253 l 376 119 l 376 -869 l 604 -869 b 871 -599 771 -869 871 -781 z m 1440 -1090 l 1440 -156 l 1397 -156 l 1397 -342 b 1174 -135 1378 -226 1303 -135 b 924 -512 1015 -135 924 -286 b 1174 -890 924 -739 1015 -890 b 1397 -686 1292 -890 1378 -800 l 1397 -1090 z "},"㏉":{"ha":0,"x_min":0,"x_max":0,"o":"m 704 -54 l 704 432 l 413 432 l 413 385 l 671 385 b 407 -28 675 154 578 -28 b 125 440 206 -28 125 214 b 407 908 125 667 210 908 b 653 631 553 908 640 736 l 690 631 b 407 956 671 824 553 956 b 85 440 203 956 85 733 b 407 -75 85 147 203 -75 b 668 186 551 -75 642 25 l 672 -54 z m 1221 660 l 1174 660 l 985 7 l 769 660 l 724 660 l 963 -56 l 938 -131 b 832 -235 906 -221 885 -235 b 799 -231 817 -235 799 -232 l 799 -272 b 840 -275 800 -272 815 -275 b 969 -160 910 -275 949 -235 z "},"㏜":{"ha":0,"x_min":0,"x_max":0,"o":"m 708 197 b 513 450 708 340 638 414 l 318 510 b 182 685 244 533 182 575 b 403 908 182 811 267 908 b 642 638 531 908 631 800 l 685 638 b 401 956 678 826 556 956 b 133 686 229 956 133 819 b 308 458 133 524 218 485 l 488 404 b 667 194 608 365 667 297 b 442 -26 667 57 554 -26 b 154 274 306 -26 154 42 l 108 274 b 415 -75 103 60 231 -75 b 708 197 597 -75 708 35 z m 1199 660 l 1143 660 l 957 -21 l 771 660 l 717 660 l 924 -54 l 990 -54 z "},"㏆":{"ha":0,"x_min":0,"x_max":0,"o":"m 635 961 l 606 971 l 297 -89 l 325 -99 z m 432 601 l 404 601 b 264 461 397 522 338 461 b 106 689 169 461 106 560 b 264 918 106 810 161 918 b 403 786 338 918 390 856 l 428 786 b 264 946 415 875 350 946 b 74 689 144 946 74 828 b 264 433 74 546 144 433 b 432 601 360 433 418 506 z m 903 -56 b 732 225 839 36 794 132 b 899 379 788 278 844 328 l 860 379 b 613 154 779 303 694 229 l 613 547 l 583 547 l 583 -56 l 613 -56 l 613 118 b 707 204 644 147 676 175 b 865 -56 767 117 806 31 z m 1199 172 b 1065 -11 1199 75 1151 -11 b 935 175 981 -11 935 72 b 1065 364 935 275 981 364 b 1199 172 1156 364 1199 265 z m 1224 -3 l 1224 375 l 1199 375 l 1199 283 b 1065 389 1190 340 1136 389 b 907 175 971 389 907 297 b 1065 -35 907 51 971 -35 b 1199 74 1132 -35 1193 14 l 1199 19 b 1068 -162 1199 -103 1188 -162 b 947 -65 1003 -162 956 -135 l 924 -65 b 1068 -187 931 -146 993 -187 b 1224 -3 1203 -187 1224 -114 z "},"Ð":{"ha":204,"x_min":0,"x_max":0,"o":"m 953 440 b 510 -15 953 121 810 -15 l 306 -15 l 306 468 l 496 468 l 496 510 l 306 510 l 306 896 l 510 896 b 953 440 810 896 953 760 z m 1003 440 b 561 935 1003 767 835 935 l 257 935 l 257 510 l 100 510 l 100 468 l 257 468 l 257 -54 l 561 -54 b 1003 440 835 -54 1003 117 z "},"ª":{"ha":-147,"x_min":0,"x_max":0,"o":"m 583 547 l 583 571 l 575 571 b 532 614 546 571 532 588 l 532 869 b 364 1003 532 976 456 1003 b 179 865 260 1003 186 956 l 222 865 b 354 976 226 936 282 976 b 492 875 438 976 492 949 b 410 808 492 835 467 818 b 160 653 271 781 160 769 b 308 533 160 568 222 533 b 493 644 421 533 481 582 z m 401 919 l 401 858 l 393 858 l 393 872 l 356 872 l 356 932 l 365 932 l 365 942 l 268 942 b 94 776 268 849 200 776 b -21 871 15 776 -21 808 b 201 1000 -21 957 54 972 b 268 1039 229 1004 258 1019 z m 389 626 l 389 668 l -85 668 l -85 626 z "},"Ħ":{"ha":189,"x_min":0,"x_max":0,"o":"m 869 488 l 218 488 l 218 706 l 869 706 z m 982 706 l 982 747 l 919 747 l 919 935 l 869 935 l 869 747 l 218 747 l 218 935 l 168 935 l 168 747 l 106 747 l 106 706 l 168 706 l 168 -54 l 218 -54 l 218 450 l 869 450 l 869 -54 l 919 -54 l 919 706 z "},"Ĳ":{"ha":53,"x_min":0,"x_max":0,"o":"m 176 -54 l 176 935 l 128 935 l 128 -54 z m 824 243 l 824 935 l 775 935 l 775 239 b 569 -36 775 54 700 -36 b 335 249 410 -36 328 58 l 283 249 b 554 -76 278 47 356 -76 b 824 243 732 -76 824 19 z "},"Ŀ":{"ha":-99,"x_min":0,"x_max":0,"o":"m 708 -54 l 708 -15 l 142 -15 l 142 935 l 92 935 l 92 -54 z m 551 436 l 551 547 l 439 547 l 439 436 z "},"Ł":{"ha":171,"x_min":0,"x_max":0,"o":"m 957 -54 l 957 -15 l 390 -15 l 390 424 l 668 704 l 629 744 l 390 503 l 390 935 l 340 935 l 340 454 l 113 224 l 153 183 l 340 374 l 340 -54 z "},"Ø":{"ha":185,"x_min":0,"x_max":0,"o":"m 767 835 l 307 44 b 147 440 206 129 147 271 b 542 917 147 715 313 917 b 767 835 626 917 706 889 z m 936 440 b 542 -36 936 168 765 -36 b 329 31 457 -36 389 -11 l 789 822 b 936 440 881 736 936 600 z m 985 440 b 813 865 985 635 918 778 l 899 1010 l 876 1022 l 792 878 b 542 956 722 929 638 956 b 99 440 289 956 99 774 b 285 6 99 236 167 92 l 182 -172 l 200 -187 l 306 -10 b 542 -75 372 -50 451 -75 b 985 440 788 -75 985 104 z "},"º":{"ha":-147,"x_min":0,"x_max":0,"o":"m 543 750 b 371 543 543 632 474 543 b 200 750 269 543 200 632 b 371 957 200 868 269 957 b 543 750 474 957 543 868 z m 613 410 l 613 451 l 139 451 l 139 410 z m 576 750 b 371 986 576 879 497 986 b 165 750 246 986 165 879 b 371 514 165 621 246 514 b 576 750 497 514 576 621 z "},"Þ":{"ha":-162,"x_min":0,"x_max":0,"o":"m 554 439 l 553 439 b 183 125 553 221 350 122 l 183 753 b 554 439 356 754 554 657 z m 601 439 b 183 789 601 671 393 790 l 183 935 l 135 935 l 135 -54 l 185 -54 l 185 89 b 601 439 394 86 601 206 z "},"Ŧ":{"ha":3,"x_min":0,"x_max":0,"o":"m 817 896 l 817 935 l 85 935 l 85 896 l 425 896 l 425 451 l 208 451 l 208 410 l 425 410 l 425 -54 l 474 -54 l 474 410 l 682 410 l 682 451 l 474 451 l 474 896 z "},"Ŋ":{"ha":81,"x_min":0,"x_max":0,"o":"m 867 -40 l 867 935 l 817 935 l 817 17 l 182 935 l 113 935 l 113 -54 l 163 -54 l 163 863 l 806 -62 b 649 -226 806 -157 746 -226 b 492 -58 558 -226 492 -183 l 432 -58 b 649 -276 432 -199 497 -276 b 867 -40 815 -276 867 -165 z "},"㉠":{"ha":0,"x_min":0,"x_max":0,"o":""},"㉡":{"ha":0,"x_min":0,"x_max":0,"o":""},"㉢":{"ha":1225,"x_min":0,"x_max":0,"o":""},"㉣":{"ha":0,"x_min":0,"x_max":0,"o":""},"㉤":{"ha":936,"x_min":0,"x_max":0,"o":""},"㉥":{"ha":389,"x_min":0,"x_max":0,"o":""},"㉦":{"ha":299,"x_min":0,"x_max":0,"o":""},"㉧":{"ha":656,"x_min":0,"x_max":0,"o":""},"㉨":{"ha":-201,"x_min":0,"x_max":0,"o":""},"㉩":{"ha":-293,"x_min":0,"x_max":0,"o":"m -142 243 l 13 243 l 13 -54 z "},"㉪":{"ha":-868,"x_min":0,"x_max":0,"o":""},"㉫":{"ha":0,"x_min":0,"x_max":0,"o":"l 0 -840 l -212 -840 l -212 -450 l -412 -450 l -412 128 l -990 128 "},"㉬":{"ha":0,"x_min":0,"x_max":0,"o":"m -194 -251 l -950 -251 l -761 -251 l -761 256 l -908 256 l -236 256 l -381 256 l -381 -251 z m -715 -251 l -426 -251 l -426 256 l -715 256 z "},"㉭":{"ha":650,"x_min":0,"x_max":0,"o":"m -242 183 l -160 183 l -160 758 l 219 758 l 219 10 z m 772 175 l 396 175 z "},"㉮":{"ha":0,"x_min":0,"x_max":0,"o":"m -944 -268 b -549 293 -726 -143 -564 36 b -607 364 -547 342 -547 364 l -936 364 b -951 350 -946 364 -951 358 l -951 340 b -936 326 -951 332 -944 326 l -614 326 b -592 301 -597 326 -592 321 b -964 -229 -607 53 -757 -111 b -968 -246 -969 -232 -972 -239 l -960 -261 b -944 -268 -954 -271 -951 -271 l -944 367 l -1114 367 l -1114 15 l -968 15 b -968 11 -968 25 -964 21 l -1114 11 z "},"㉯":{"ha":0,"x_min":0,"x_max":0,"o":"l 0 -289 l -437 -289 l -437 -653 l -293 -653 b -293 -657 -293 -643 -289 -647 l -437 -657 m -1017 -793 b -994 -825 -1017 -811 -1011 -822 b -581 -785 -912 -832 -694 -815 b -990 -826 -668 -804 -839 -828 b -1065 -744 -1047 -825 -1065 -797 l -1065 -275 b -1051 -261 -1065 -264 -1061 -261 l -1037 -261 b -1024 -275 -1028 -261 -1024 -264 z "},"㉰":{"ha":138,"x_min":0,"x_max":0,"o":"m -429 -157 b -854 -197 -519 -175 -712 -200 b -929 -118 -911 -196 -929 -171 l -929 293 b -857 360 -929 347 -912 360 l -528 360 b -515 347 -518 360 -515 357 l -515 338 b -528 324 -515 328 -519 324 l -869 324 b -890 299 -889 324 -890 317 l -890 -131 b -867 -160 -890 -149 -883 -158 z m -733 -439 b -440 -421 -733 -443 -525 -421 b -439 -429 -419 -421 -429 -425 l -451 -429 b -465 -415 -461 -429 -465 -424 l -465 440 b -451 453 -465 449 -462 453 l -439 453 b -425 440 -431 453 -425 449 l -425 82 l -281 82 z "},"㉱":{"ha":121,"x_min":0,"x_max":0,"o":"m 1268 418 b 653 1033 1268 757 992 1033 b 38 418 314 1033 38 757 b 653 -197 38 79 314 -197 b 1268 418 992 -197 1268 79 z m 813 228 b 367 186 725 204 492 179 b 292 261 310 189 292 207 l 292 440 b 368 510 292 494 310 510 l 636 510 b 657 532 653 510 657 511 l 657 715 b 631 742 657 735 650 742 l 310 742 b 296 754 300 742 296 744 l 296 767 b 310 778 296 774 300 778 l 621 778 b 696 710 682 778 696 765 l 696 540 b 621 474 696 488 678 474 l 353 474 b 332 446 333 474 332 465 l 332 254 b 354 225 332 235 338 226 z m 469 -24 b 800 -14 469 -35 690 -14 b 813 -22 829 -14 821 -18 l 797 -22 b 785 -10 789 -22 785 -18 l 785 849 b 797 861 785 857 789 861 l 813 861 b 825 849 821 861 825 857 l 825 489 l 969 489 "},"㉲":{"ha":0,"x_min":0,"x_max":0,"o":"m 1268 418 b 653 1033 1268 757 992 1033 b 38 418 314 1033 38 757 b 653 -197 38 79 314 -197 b 1268 418 992 -197 1268 79 z m 679 715 b 656 740 679 736 674 740 l 354 740 b 332 715 338 740 332 736 l 332 279 b 354 254 332 260 338 254 l 656 254 b 679 279 674 254 679 260 z m 718 286 b 646 218 718 232 701 218 l 365 218 b 292 286 308 218 292 232 l 292 710 b 365 776 292 763 308 776 l 646 776 b 718 710 701 776 718 763 z m 926 -19 b 911 NaN 917 -19 911 -10 l 911 NaN b 926 NaN 921 NaN 926 NaN l 926 NaN l 1069 NaN b 1083 NaN 1079 NaN 1083 NaN l 1083 NaN b 1069 NaN 1083 NaN 1078 NaN l 926 NaN "},"㉳":{"ha":-892,"x_min":0,"x_max":0,"o":"m 592 -540 b 579 -185 592 -171 583 -175 l 567 -185 b 553 -172 557 -185 553 -181 l 553 682 b 567 696 553 692 556 696 l 579 696 b 593 682 588 696 593 690 l 593 324 l 738 324 b 738 319 738 333 742 328 l 593 319 z "},"㉴":{"ha":0,"x_min":0,"x_max":0,"o":"m 1268 418 b 653 1033 1268 757 992 1033 b 38 418 314 1033 38 757 b 653 -197 38 79 314 -197 b 1268 418 992 -197 1268 79 "},"㉵":{"ha":0,"x_min":0,"x_max":0,"o":"m 1268 418 b 653 1033 1268 757 992 1033 b 38 418 314 1033 38 757 b 653 -197 38 79 314 -197 b 1268 418 992 -197 1268 79 "},"㉶":{"ha":0,"x_min":0,"x_max":0,"o":""},"㉷":{"ha":0,"x_min":0,"x_max":0,"o":""},"㉸":{"ha":0,"x_min":0,"x_max":0,"o":""},"㉹":{"ha":0,"x_min":0,"x_max":0,"o":"b -635 -101 -446 0 -635 146 b -639 -97 -635 -93 -631 -97 l -639 -456 l -493 -456 b -481 -469 -485 -456 -481 -461 l -481 -479 b -493 -492 -481 -487 -485 -492 l -639 -492 "},"㉺":{"ha":0,"x_min":0,"x_max":0,"o":""},"㉻":{"ha":0,"x_min":0,"x_max":0,"o":"m 1268 418 b 653 1033 1268 757 992 1033 b 38 418 314 1033 38 757 b 653 -197 38 79 314 -197 b 1268 418 992 -197 1268 79 "},"ⓐ":{"ha":0,"x_min":0,"x_max":0,"o":""},"ⓑ":{"ha":493,"x_min":0,"x_max":0,"o":""},"ⓒ":{"ha":428,"x_min":0,"x_max":0,"o":""},"ⓓ":{"ha":811,"x_min":0,"x_max":0,"o":""},"ⓔ":{"ha":842,"x_min":0,"x_max":0,"o":""},"ⓕ":{"ha":501,"x_min":0,"x_max":0,"o":""},"ⓖ":{"ha":653,"x_min":0,"x_max":0,"o":""},"ⓗ":{"ha":749,"x_min":0,"x_max":0,"o":"m 476 372 b 665 549 476 447 550 549 b 842 343 797 549 842 481 l 515 343 l 515 358 b 529 374 525 358 529 364 l 529 701 b 321 946 529 867 458 946 b 119 849 221 946 149 899 l 119 1189 l 106 1189 l 106 374 z "},"ⓘ":{"ha":613,"x_min":0,"x_max":0,"o":""},"ⓙ":{"ha":628,"x_min":0,"x_max":0,"o":""},"ⓚ":{"ha":476,"x_min":0,"x_max":0,"o":""},"ⓛ":{"ha":675,"x_min":0,"x_max":0,"o":""},"ⓜ":{"ha":318,"x_min":0,"x_max":0,"o":""},"ⓝ":{"ha":472,"x_min":0,"x_max":0,"o":""},"ⓞ":{"ha":933,"x_min":0,"x_max":0,"o":""},"ⓟ":{"ha":461,"x_min":0,"x_max":0,"o":""},"ⓠ":{"ha":843,"x_min":0,"x_max":0,"o":""},"ⓡ":{"ha":582,"x_min":0,"x_max":0,"o":""},"ⓢ":{"ha":478,"x_min":0,"x_max":0,"o":""},"ⓣ":{"ha":465,"x_min":0,"x_max":0,"o":""},"ⓤ":{"ha":846,"x_min":0,"x_max":0,"o":""},"ⓥ":{"ha":676,"x_min":0,"x_max":0,"o":""},"ⓦ":{"ha":661,"x_min":0,"x_max":0,"o":""},"ⓧ":{"ha":825,"x_min":0,"x_max":0,"o":""},"ⓨ":{"ha":453,"x_min":0,"x_max":0,"o":""},"ⓩ":{"ha":428,"x_min":0,"x_max":0,"o":""},"①":{"ha":524,"x_min":0,"x_max":0,"o":""},"②":{"ha":883,"x_min":0,"x_max":0,"o":""},"③":{"ha":501,"x_min":0,"x_max":0,"o":""},"④":{"ha":-879,"x_min":0,"x_max":0,"o":""},"⑤":{"ha":503,"x_min":0,"x_max":0,"o":""},"⑥":{"ha":1225,"x_min":0,"x_max":0,"o":"m -410 -151 b -626 172 -410 267 -526 172 b -861 213 -744 172 -861 99 b NaN NaN -861 325 -867 NaN b NaN NaN NaN NaN NaN NaN b NaN NaN NaN NaN NaN NaN z m NaN NaN b NaN NaN NaN NaN NaN NaN b NaN NaN NaN NaN NaN NaN b NaN NaN NaN NaN NaN NaN b NaN NaN NaN NaN NaN NaN b NaN NaN NaN NaN NaN NaN b NaN NaN NaN NaN NaN NaN b NaN NaN NaN NaN NaN NaN b NaN NaN NaN NaN NaN NaN b NaN NaN NaN NaN NaN NaN z "},"⑦":{"ha":885,"x_min":0,"x_max":0,"o":""},"⑧":{"ha":661,"x_min":0,"x_max":0,"o":""},"⑨":{"ha":1225,"x_min":0,"x_max":0,"o":"m -821 143 b -604 656 -821 561 -704 656 b -369 615 -486 656 -369 729 b NaN NaN -369 503 -364 NaN b NaN NaN NaN NaN NaN NaN b NaN NaN NaN NaN NaN NaN b NaN NaN NaN NaN NaN NaN b NaN NaN NaN NaN NaN NaN b NaN NaN NaN NaN NaN NaN b NaN NaN NaN NaN NaN NaN b NaN NaN NaN NaN NaN NaN b NaN NaN NaN NaN NaN NaN b NaN NaN NaN NaN NaN NaN b NaN NaN NaN NaN NaN NaN b NaN NaN NaN NaN NaN NaN z "},"⑩":{"ha":267,"x_min":0,"x_max":0,"o":"m 663 -335 b 404 68 663 -149 614 68 b 146 -335 194 68 146 -149 b 404 -737 146 -521 194 -737 b 663 -335 614 -737 663 -521 z m 619 -335 b 404 -697 619 -501 575 -697 b 190 -335 233 -697 190 -501 b 404 28 190 -168 233 28 b 619 -335 575 28 619 -168 z "},"⑪":{"ha":332,"x_min":0,"x_max":0,"o":""},"⑫":{"ha":260,"x_min":0,"x_max":0,"o":""},"⑬":{"ha":267,"x_min":0,"x_max":0,"o":""},"⑭":{"ha":0,"x_min":0,"x_max":0,"o":""},"⑮":{"ha":267,"x_min":0,"x_max":0,"o":""},"½":{"ha":81,"x_min":0,"x_max":0,"o":"m 886 -147 l 886 -90 l 621 -90 b 718 7 636 -47 681 -17 b 882 213 792 58 882 108 z m 1211 1153 l 1306 1083 l 1353 996 l 1242 942 l 1167 831 l 1171 818 l 1132 851 l 385 71 l 422 38 z m 585 507 l 585 1007 l 533 1007 l 533 1107 l 189 1107 z "},"⅓":{"ha":92,"x_min":0,"x_max":0,"o":"m 897 0 z m 878 793 z m 1040 1263 l 1040 1763 l 990 1763 l 990 1861 l 646 1861 z "},"⅔":{"ha":171,"x_min":0,"x_max":0,"o":"m 957 0 z m 957 793 z m 1193 1264 l 1193 1321 l 932 1321 b 1028 1418 944 1364 993 1394 b 1192 1624 1106 1469 1192 1519 z "},"¼":{"ha":125,"x_min":0,"x_max":0,"o":"m 79 811 z m 235 1281 l 235 2043 l 275 2043 l 275 2543 l 225 2543 l 225 2642 l -119 2642 z "},"¾":{"ha":138,"x_min":0,"x_max":0,"o":"m 97 814 z m 364 1432 z "},"⅛":{"ha":124,"x_min":0,"x_max":0,"o":"m -28 797 l 831 758 l 864 11 l 83 49 l 50 NaN z m 213 NaN l 213 NaN l 161 NaN l 161 NaN l -183 NaN z "},"⅜":{"ha":171,"x_min":0,"x_max":0,"o":"m 890 -4 b 775 -103 890 -69 840 -103 b 664 -4 713 -103 664 -69 b 775 93 664 61 714 93 b 890 -4 838 93 890 58 z m 869 228 b 775 147 869 171 826 147 b 682 228 726 147 682 168 b 775 303 682 276 726 303 b 869 228 832 303 869 276 z m 950 -4 b 869 122 950 57 921 101 b 931 228 907 143 931 179 b 775 357 931 317 849 357 b 622 228 704 357 622 317 b 683 122 622 178 643 143 b 601 -4 629 101 601 50 b 775 -158 601 -93 657 -158 b 950 -4 871 -158 950 -106 z m 922 793 z m 1206 1411 z "},"⅝":{"ha":167,"x_min":0,"x_max":0,"o":"m -28 797 l 863 758 l 896 11 l 115 49 l 82 NaN z m 367 NaN b 196 NaN 367 NaN 301 NaN b 107 NaN 164 NaN 133 NaN l 133 NaN l 344 NaN l 344 NaN l 86 NaN l 38 NaN l 90 NaN b 193 NaN 117 NaN 153 NaN b 308 NaN 260 NaN 308 NaN b 193 NaN 308 NaN 264 NaN b 88 NaN 133 NaN 88 NaN l 24 NaN b 193 NaN 28 NaN 100 NaN b 367 NaN 288 NaN 367 NaN z "},"⅞":{"ha":121,"x_min":0,"x_max":0,"o":"m -31 797 l 828 758 l 861 11 l 81 49 l 47 NaN z m 364 NaN l 364 NaN l 36 NaN l 36 NaN l 294 NaN b 101 NaN 168 NaN 113 NaN l 168 NaN b 364 NaN 179 NaN 296 NaN z "},"đ":{"ha":22,"x_min":0,"x_max":0,"o":"m 671 306 b 379 -43 671 156 604 -43 b 115 306 188 -43 115 156 b 379 653 115 456 188 653 b 671 306 590 653 671 456 z m 847 774 l 847 811 l 713 811 l 713 935 l 671 935 l 671 811 l 531 811 l 531 774 l 671 774 l 671 479 b 386 685 624 607 506 685 b 74 306 165 685 74 482 b 385 -75 74 108 168 -75 b 671 136 517 -75 639 0 l 671 -54 l 713 -54 l 713 774 z "},"ð":{"ha":-76,"x_min":0,"x_max":0,"o":"m 736 310 b 518 853 736 540 668 706 l 592 926 b 574 946 588 932 579 940 l 497 869 b 379 946 460 899 422 922 b 363 913 374 936 368 922 b 465 840 399 886 438 867 b 410 785 447 824 426 801 l 413 786 b 376 753 400 775 389 764 l 396 733 b 488 825 425 761 458 797 b 625 617 542 767 594 704 b 411 688 568 660 496 688 b 85 307 197 688 85 513 b 411 -74 85 101 197 -74 b 736 310 625 -74 736 92 z m 696 307 b 411 -42 696 113 579 -42 b 126 307 240 -42 126 113 b 411 656 126 501 242 656 b 696 307 578 656 696 501 z "},"ħ":{"ha":8,"x_min":0,"x_max":0,"o":"m 749 -54 l 749 419 b 490 685 749 571 679 685 b 226 494 383 685 257 606 l 226 772 l 500 772 l 500 808 l 226 808 l 226 935 l 185 935 l 185 808 l 61 808 l 61 772 l 186 772 l 186 -54 l 229 -54 l 229 381 b 492 653 229 529 346 653 b 707 410 646 653 707 543 l 707 -54 z "},"ı":{"ha":-510,"x_min":0,"x_max":0,"o":"m 217 -54 l 217 661 l 172 661 l 172 -54 z "},"ĳ":{"ha":-214,"x_min":0,"x_max":0,"o":"m 239 -54 l 239 661 l 197 661 l 197 -54 z m 488 -121 l 488 661 l 446 661 l 446 -132 b 354 -246 446 -214 425 -247 b 335 -249 343 -244 332 -246 l 335 -276 b 369 -276 336 -275 350 -276 b 488 -121 461 -276 488 -212 z m 240 824 l 240 935 l 196 935 l 196 824 z m 489 824 l 489 935 l 444 935 l 444 824 z "},"ĸ":{"ha":0,"x_min":0,"x_max":0,"o":""},"ŀ":{"ha":-326,"x_min":0,"x_max":0,"o":"m 168 -54 l 168 935 l 126 935 l 126 -54 z m 446 442 l 446 546 l 342 546 l 342 442 z "},"ł":{"ha":-267,"x_min":0,"x_max":0,"o":"m 496 636 l 467 664 l 338 536 l 338 935 l 296 935 l 296 494 l 136 335 l 167 306 l 297 438 l 297 -54 l 339 -54 l 339 479 z "},"ø":{"ha":-49,"x_min":0,"x_max":0,"o":"m 549 618 l 264 10 b 140 303 185 72 140 178 b 425 649 140 497 256 649 b 549 618 472 649 507 639 z m 710 303 b 425 -43 710 108 593 -43 b 299 -12 382 -43 340 -33 l 583 599 b 710 303 663 536 710 433 z m 751 303 b 599 631 751 444 699 564 l 646 729 l 607 746 l 563 650 b 425 681 525 671 478 681 b 99 303 218 681 99 508 b 249 -24 99 164 150 44 l 194 -137 l 233 -154 l 285 -44 b 425 -75 326 -65 375 -75 b 751 303 632 -75 751 97 z "},"ß":{"ha":50,"x_min":0,"x_max":0,"o":"m 743 686 b 504 479 743 586 672 479 l 143 479 l 143 896 l 504 896 b 743 686 668 896 743 833 z m 854 183 b 606 471 854 317 749 463 b 792 693 725 489 792 582 b 504 933 792 886 663 933 l 93 933 l 93 -53 l 142 -53 l 142 442 l 504 442 b 803 192 682 442 803 322 b 517 -76 803 -43 653 -76 b 265 107 392 -76 271 -42 l 213 107 b 511 -126 215 -62 342 -126 b 854 183 674 -126 854 -75 z "},"þ":{"ha":-67,"x_min":0,"x_max":0,"o":"m 663 303 b 375 -42 660 108 544 -42 b 169 58 289 -42 221 -11 l 169 549 b 378 647 225 614 296 647 b 663 303 544 647 663 497 z m 704 303 b 375 679 704 508 582 679 b 169 607 299 679 217 654 l 169 933 l 128 933 l 128 -190 l 172 -190 l 172 1 b 378 -74 225 -57 300 -74 b 704 303 585 -74 704 97 z "},"ŧ":{"ha":-287,"x_min":0,"x_max":0,"o":"m 471 -64 l 471 -31 b 414 -32 463 -29 439 -29 b 322 75 344 -33 322 -6 l 322 411 l 449 411 l 449 449 l 322 449 l 322 594 l 453 594 l 453 642 l 322 642 l 322 875 l 276 875 l 276 642 l 158 642 l 158 594 l 278 594 l 278 449 l 161 449 l 161 411 l 278 411 l 278 76 b 410 -65 278 -29 304 -65 b 471 -64 436 -65 456 -62 z "},"ŋ":{"ha":-39,"x_min":0,"x_max":0,"o":"m 694 -97 l 694 421 b 457 681 694 568 646 681 b 208 493 346 681 236 603 l 208 660 l 165 660 l 165 -54 l 208 -54 l 208 371 b 451 649 208 522 307 649 b 651 407 601 649 651 557 l 651 -97 b 500 -219 651 -197 569 -219 b 343 -71 413 -219 349 -182 l 294 -71 b 490 -260 308 -221 415 -260 b 694 -97 621 -260 694 -192 z "},"ŉ":{"ha":111,"x_min":0,"x_max":0,"o":"m 251 708 l 251 847 l 129 847 l 129 715 l 217 715 b 129 579 217 644 183 599 l 129 540 b 253 708 196 554 253 629 z m 881 -54 l 881 421 b 625 681 881 568 814 681 b 360 493 514 681 388 603 l 360 660 l 317 660 l 317 -54 l 361 -54 l 361 371 b 622 649 361 522 476 649 b 839 407 771 649 839 557 l 839 -54 z "},"㈀":{"ha":0,"x_min":0,"x_max":0,"o":""},"㈁":{"ha":0,"x_min":0,"x_max":0,"o":""},"㈂":{"ha":261,"x_min":0,"x_max":0,"o":""},"㈃":{"ha":0,"x_min":0,"x_max":0,"o":""},"㈄":{"ha":261,"x_min":0,"x_max":0,"o":""},"㈅":{"ha":268,"x_min":0,"x_max":0,"o":""},"㈆":{"ha":261,"x_min":0,"x_max":0,"o":""},"㈇":{"ha":263,"x_min":0,"x_max":0,"o":""},"㈈":{"ha":1024,"x_min":0,"x_max":0,"o":""},"㈉":{"ha":932,"x_min":0,"x_max":0,"o":"m 560 1044 l 1132 1044 l 1132 1342 l 976 1342 l 976 1044 z "},"㈊":{"ha":357,"x_min":0,"x_max":0,"o":""},"㈋":{"ha":844,"x_min":0,"x_max":0,"o":"l 0 385 l 206 385 l 206 775 l 6 775 l 6 1353 l -572 1353 "},"㈌":{"ha":719,"x_min":0,"x_max":0,"o":"m 1031 167 l 275 167 l 464 167 l 464 674 l 317 674 l 989 674 l 844 674 l 844 167 z m 510 167 l 799 167 l 799 674 l 510 674 z "},"㈍":{"ha":263,"x_min":0,"x_max":0,"o":"m 376 563 l -203 563 l -203 228 l -951 228 z m -399 393 l -775 393 z "},"㈎":{"ha":1229,"x_min":0,"x_max":0,"o":"m 17 392 b 758 814 433 624 567 797 b NaN NaN 1033 NaN NaN NaN b NaN NaN NaN NaN NaN NaN l NaN NaN b NaN NaN NaN NaN NaN NaN l NaN NaN b NaN NaN NaN NaN NaN NaN l NaN NaN b NaN NaN NaN NaN NaN NaN b NaN NaN NaN NaN NaN NaN b NaN NaN NaN NaN NaN NaN l NaN NaN b NaN NaN NaN NaN NaN NaN z m NaN NaN b NaN NaN NaN NaN NaN NaN l NaN NaN b NaN NaN NaN NaN NaN NaN l NaN NaN b NaN NaN NaN NaN NaN NaN l NaN NaN b NaN NaN NaN NaN NaN NaN l NaN NaN l NaN NaN b NaN NaN NaN NaN NaN NaN l NaN NaN b NaN NaN NaN NaN NaN NaN l NaN NaN z "},"㈏":{"ha":0,"x_min":0,"x_max":0,"o":"b 413 1218 0 1229 417 1218 b 400 NaN 408 1218 400 NaN l 385 NaN b 368 NaN 375 NaN 368 NaN l 368 NaN b 385 NaN 368 NaN 374 NaN l 400 NaN b 413 NaN 407 NaN 413 NaN l 413 NaN l 567 NaN b 582 NaN 578 NaN 582 NaN l 582 NaN b 567 NaN 582 NaN 578 NaN l 413 NaN m -207 NaN b -183 NaN -207 NaN -200 NaN b 260 NaN -94 NaN 138 NaN b 276 NaN 271 NaN 275 NaN l 279 NaN b 267 NaN 281 NaN 276 NaN b -171 NaN 174 NaN -8 NaN b -251 NaN -232 NaN -251 NaN l -251 NaN b -236 NaN -251 NaN -246 NaN l -221 NaN b -207 NaN -211 NaN -207 NaN z "},"㈐":{"ha":454,"x_min":0,"x_max":0,"o":"m 775 282 b 319 239 678 263 471 236 b 239 324 258 240 239 267 l 239 764 b 317 836 239 822 257 836 l 669 836 b 682 822 679 836 682 833 l 682 813 b 669 797 682 801 678 797 l 303 797 b 281 771 282 797 281 790 l 281 311 b 306 279 281 292 288 281 b 768 321 453 275 676 299 b 782 313 778 322 781 318 l 785 297 b 775 282 786 290 782 283 z m 1463 494 b 1447 614 1463 629 1451 625 l 1433 614 b 1419 629 1424 614 1419 619 l 1419 1546 b 1433 1560 1419 1554 1422 1560 l 1447 1560 b 1463 1546 1457 1560 1463 1554 l 1463 1161 l 1617 1161 b 1632 1147 1628 1161 1632 1156 l 1632 1136 b 1617 1122 1632 1128 1628 1122 l 1463 1122 z "},"㈑":{"ha":263,"x_min":0,"x_max":0,"o":"m -436 -168 b -912 -212 -529 -193 -779 -219 b -993 -132 -974 -210 -993 -190 l -993 60 b -911 133 -993 117 -974 133 l -624 133 b -601 157 -607 133 -601 135 l -601 353 b -631 382 -601 374 -610 382 l -974 382 b -987 394 -983 382 -987 385 l -987 408 b -974 419 -987 415 -983 419 l -640 419 b -560 347 -575 419 -560 407 l -560 167 b -640 94 -560 110 -579 94 l -928 94 b -950 65 -947 94 -950 86 l -950 -140 b -925 -171 -950 -161 -943 -169 b -443 -129 -796 -183 -560 -161 b NaN NaN -432 -128 -429 NaN z m NaN NaN b NaN NaN NaN NaN NaN NaN l NaN NaN b NaN NaN NaN NaN NaN NaN l NaN NaN b NaN NaN NaN NaN NaN NaN l NaN NaN b NaN NaN NaN NaN NaN NaN l NaN NaN l NaN NaN b NaN NaN NaN NaN NaN NaN l NaN NaN b NaN NaN NaN NaN NaN NaN l NaN NaN z "},"㈒":{"ha":263,"x_min":0,"x_max":0,"o":"m -578 356 b -603 382 -578 378 -583 382 l -925 382 b -949 356 -943 382 -949 378 l -949 -111 b -925 -137 -949 -132 -943 -137 l -603 -137 b -578 -111 -583 -137 -578 -132 z m -536 -103 b -614 -176 -536 -161 -554 -176 l -912 -176 b -992 -103 -974 -176 -992 -161 l -992 350 b -912 421 -992 406 -974 421 l -614 421 b -536 350 -554 421 -536 406 z m -314 -429 b -328 -444 -314 -440 -319 -444 l -328 -460 l 585 -460 l 600 -460 b 614 -474 608 -460 614 -464 l 614 -857 l 767 -857 b 782 -871 778 -857 782 -860 l 782 -881 b 767 -896 782 -889 776 -896 l 614 -896 z "},"㈓":{"ha":0,"x_min":0,"x_max":0,"o":"b 682 1229 0 333 788 1229 b 669 1215 674 1229 669 1225 l 657 1215 b 643 1228 647 1215 643 1219 l 643 2082 b 657 2096 643 2092 646 2096 l 669 2096 b 683 2082 678 2096 683 2090 l 683 1724 l 828 1724 b 828 1719 828 1733 832 1728 l 683 1719 "},"㈔":{"ha":263,"x_min":0,"x_max":0,"o":""},"㈕":{"ha":263,"x_min":0,"x_max":0,"o":""},"㈖":{"ha":0,"x_min":0,"x_max":0,"o":""},"㈗":{"ha":0,"x_min":0,"x_max":0,"o":""},"㈘":{"ha":0,"x_min":0,"x_max":0,"o":""},"㈙":{"ha":0,"x_min":0,"x_max":0,"o":"b 1008 638 779 0 1008 450 b NaN 638 1008 628 1004 638 l NaN 1493 b NaN 1481 NaN 1493 NaN 1489 l NaN 1122 l NaN 1122 b NaN 1108 NaN 1122 NaN 1117 l NaN 1099 b NaN 1086 NaN 1090 NaN 1086 l NaN 1086 "},"㈚":{"ha":0,"x_min":0,"x_max":0,"o":""},"㈛":{"ha":263,"x_min":0,"x_max":0,"o":""},"⒜":{"ha":0,"x_min":0,"x_max":0,"o":""},"⒝":{"ha":263,"x_min":0,"x_max":0,"o":""},"⒞":{"ha":263,"x_min":0,"x_max":0,"o":""},"⒟":{"ha":263,"x_min":0,"x_max":0,"o":""},"⒠":{"ha":263,"x_min":0,"x_max":0,"o":""},"⒡":{"ha":263,"x_min":0,"x_max":0,"o":""},"⒢":{"ha":263,"x_min":0,"x_max":0,"o":""},"⒣":{"ha":263,"x_min":0,"x_max":0,"o":"m -753 -44 b -564 132 -753 31 -679 132 b -387 -74 -432 132 -387 64 l -714 -74 l -714 -58 b -700 -43 -704 -58 -700 -53 l -700 285 b -908 529 -700 450 -771 529 b -1110 432 -1008 529 -1081 482 l -1110 772 l -1124 772 l -1124 -43 z "},"⒤":{"ha":263,"x_min":0,"x_max":0,"o":""},"⒥":{"ha":263,"x_min":0,"x_max":0,"o":""},"⒦":{"ha":263,"x_min":0,"x_max":0,"o":""},"⒧":{"ha":263,"x_min":0,"x_max":0,"o":""},"⒨":{"ha":1229,"x_min":0,"x_max":0,"o":""},"⒩":{"ha":263,"x_min":0,"x_max":0,"o":""},"⒪":{"ha":263,"x_min":0,"x_max":0,"o":""},"⒫":{"ha":263,"x_min":0,"x_max":0,"o":""},"⒬":{"ha":263,"x_min":0,"x_max":0,"o":""},"⒭":{"ha":263,"x_min":0,"x_max":0,"o":""},"⒮":{"ha":263,"x_min":0,"x_max":0,"o":""},"⒯":{"ha":263,"x_min":0,"x_max":0,"o":""},"⒰":{"ha":263,"x_min":0,"x_max":0,"o":""},"⒱":{"ha":263,"x_min":0,"x_max":0,"o":""},"⒲":{"ha":263,"x_min":0,"x_max":0,"o":""},"⒳":{"ha":263,"x_min":0,"x_max":0,"o":""},"⒴":{"ha":263,"x_min":0,"x_max":0,"o":""},"⒵":{"ha":263,"x_min":0,"x_max":0,"o":""},"⑴":{"ha":0,"x_min":0,"x_max":0,"o":""},"⑵":{"ha":263,"x_min":0,"x_max":0,"o":""},"⑶":{"ha":263,"x_min":0,"x_max":0,"o":""},"⑷":{"ha":346,"x_min":0,"x_max":0,"o":""},"⑸":{"ha":263,"x_min":0,"x_max":0,"o":""},"⑹":{"ha":263,"x_min":0,"x_max":0,"o":"m -369 -149 b -582 -365 -369 -265 -465 -365 b -778 -149 -699 -365 -778 -262 b -571 63 -778 -40 -694 63 b -369 -149 -431 63 -369 -31 z m -374 344 b -367 354 -367 344 -371 354 b -481 361 -401 354 -443 361 b -837 -71 -740 361 -837 176 b -582 -447 -837 -322 -736 -447 b -325 -185 -428 -447 -325 -337 b -571 60 -325 -26 -419 60 b -787 -69 -661 60 -756 11 b -489 321 -789 151 -693 319 b -372 303 -447 321 -406 314 z "},"⑺":{"ha":263,"x_min":0,"x_max":0,"o":""},"⑻":{"ha":263,"x_min":0,"x_max":0,"o":""},"⑼":{"ha":263,"x_min":0,"x_max":0,"o":"m -779 147 b -568 363 -779 263 -685 363 b -372 147 -453 363 -372 260 b -579 -62 -372 39 -457 -62 b -779 147 -719 -62 -779 29 b NaN NaN -775 -344 -765 -346 b NaN NaN NaN NaN NaN NaN b NaN NaN NaN NaN NaN NaN b NaN NaN NaN NaN NaN NaN b NaN NaN NaN NaN NaN NaN b NaN NaN NaN NaN NaN NaN b NaN NaN NaN NaN NaN NaN b NaN NaN NaN NaN NaN NaN b NaN NaN NaN NaN NaN NaN z "},"⑽":{"ha":263,"x_min":0,"x_max":0,"o":"m 663 -335 b 824 -1111 663 -1297 872 -1111 b 831 -1369 1040 -1111 831 -1321 b 693 -1772 831 -1586 644 -1772 b 686 -1514 476 -1772 686 -1562 b NaN NaN 686 -1297 872 NaN z m NaN NaN b NaN NaN NaN NaN NaN NaN b NaN NaN NaN NaN NaN NaN b NaN NaN NaN NaN NaN NaN b NaN NaN NaN NaN NaN NaN z "},"⑾":{"ha":0,"x_min":0,"x_max":0,"o":""},"⑿":{"ha":263,"x_min":0,"x_max":0,"o":""},"⒀":{"ha":263,"x_min":0,"x_max":0,"o":""},"⒁":{"ha":0,"x_min":0,"x_max":0,"o":""},"⒂":{"ha":263,"x_min":0,"x_max":0,"o":""},"¹":{"ha":0,"x_min":0,"x_max":0,"o":""},"²":{"ha":0,"x_min":0,"x_max":0,"o":""},"³":{"ha":0,"x_min":0,"x_max":0,"o":""},"⁴":{"ha":0,"x_min":0,"x_max":0,"o":""},"ⁿ":{"ha":-315,"x_min":0,"x_max":0,"o":"m 399 689 l 399 915 b 300 1006 399 969 361 1006 b 221 954 263 1006 231 981 l 221 997 l 183 997 l 183 689 l 221 689 l 221 889 b 297 969 221 938 249 969 b 360 900 338 969 360 943 l 360 689 z "},"₁":{"ha":0,"x_min":0,"x_max":0,"o":""},"₂":{"ha":0,"x_min":0,"x_max":0,"o":""},"₃":{"ha":0,"x_min":0,"x_max":0,"o":""},"₄":{"ha":0,"x_min":0,"x_max":0,"o":""},"ぁ":{"ha":0,"x_min":0,"x_max":0,"o":"m 542 63 b 397 -3 471 4 438 -3 b 313 76 360 -3 313 15 b 504 335 313 164 360 240 b 542 63 504 213 517 154 z m 731 392 b 575 89 682 265 651 214 b 549 350 557 221 549 269 b 731 392 607 374 644 383 z m 1032 188 b 788 418 1032 301 956 396 l 803 479 l 754 494 l 736 418 b 547 386 664 413 625 406 b 564 586 554 486 556 504 b 803 636 664 600 750 613 l 803 667 b 569 619 744 649 676 633 b 599 782 586 704 594 757 l 554 788 b 528 618 551 756 543 699 b 357 617 451 610 393 611 l 360 581 b 526 583 392 579 442 578 b 507 375 511 492 506 438 b 272 69 363 303 272 183 b 378 -39 272 -3 331 -39 b 553 32 428 -39 479 -17 l 582 -33 l 625 -1 l 585 68 b 781 390 661 156 724 258 b 972 188 924 367 972 276 b 767 -72 972 65 913 -39 l 790 -110 b 1032 188 931 -71 1032 25 z "},"あ":{"ha":0,"x_min":0,"x_max":0,"o":"m 519 118 b 328 26 433 43 375 26 b 232 115 285 26 232 49 b 465 440 232 225 311 338 b 519 118 474 307 482 221 z m 750 508 b 565 158 689 367 654 288 b 533 463 543 304 532 361 b 750 508 597 486 646 494 z m 1124 261 b 826 554 1124 411 1024 528 b 849 625 840 594 846 610 l 783 643 l 760 553 b 536 514 681 540 622 535 b 560 749 543 607 550 668 b 853 804 682 760 781 781 l 853 863 b 564 800 778 838 686 815 b 603 1003 581 904 596 963 l 536 1014 b 500 796 522 969 513 896 b 288 794 414 793 336 790 l 288 742 b 497 742 335 738 397 738 b 469 486 481 639 478 564 b 181 117 294 403 181 258 b 321 -26 181 22 251 -26 b 539 61 388 -26 449 -1 b 575 -25 560 8 572 -15 l 632 25 b 594 117 625 43 607 75 b 814 507 686 229 754 350 b 1044 260 993 469 1044 369 b 797 -61 1044 115 992 -31 l 828 -117 b 1124 261 1010 -68 1124 93 z "},"ぃ":{"ha":0,"x_min":0,"x_max":0,"o":"m 611 103 l 589 135 b 476 40 554 68 508 40 b 367 140 429 40 389 89 b 319 603 319 246 292 436 l 258 613 b 344 83 253 436 269 210 b 465 -19 385 8 438 -19 b 611 103 519 -19 576 32 z m 985 183 l 1047 211 b 871 544 1014 315 933 469 l 835 524 b 985 183 900 432 960 288 z "},"い":{"ha":0,"x_min":0,"x_max":0,"o":"m 603 165 l 564 218 b 418 94 519 128 464 94 b 300 203 369 94 324 147 b 240 789 233 347 208 590 l 161 803 b 263 139 150 572 176 301 b 426 4 311 46 372 4 b 603 165 494 4 550 72 z m 1063 253 l 1144 290 b 911 715 1104 428 1003 625 l 868 686 b 1063 253 949 572 1029 389 z "},"ぅ":{"ha":0,"x_min":0,"x_max":0,"o":"m 914 342 b 735 549 914 453 857 549 b 488 482 646 549 553 522 b 390 436 449 463 433 444 l 433 381 b 724 511 511 444 626 511 b 861 347 818 511 861 429 b 633 -57 861 186 783 33 l 682 -104 b 914 342 821 -7 914 158 z m 760 653 l 790 706 b 596 793 733 725 639 767 l 575 769 b 760 653 626 728 704 676 z "},"う":{"ha":0,"x_min":0,"x_max":0,"o":"m 974 410 b 761 675 974 536 913 675 b 463 588 667 675 524 631 b 331 529 424 563 399 543 l 394 449 b 753 618 488 532 633 618 b 914 415 868 618 914 510 b 628 -81 914 224 817 29 l 697 -146 b 974 410 864 -25 974 179 z m 804 789 l 847 863 b 594 976 775 883 649 938 l 563 942 b 804 789 633 888 726 818 z "},"ぇ":{"ha":0,"x_min":0,"x_max":0,"o":"m 1021 -60 l 1036 3 b 842 -6 968 -4 901 -10 b 726 228 726 -3 731 203 b 533 226 721 278 669 282 b 767 497 639 356 710 438 l 697 547 b 696 547 699 547 699 549 b 343 500 599 526 432 507 l 363 450 b 685 511 446 479 538 494 b 389 108 563 325 472 204 b 268 -8 343 58 303 18 l 321 -47 b 629 226 394 56 540 226 b 693 92 658 226 685 164 b 1021 -60 736 -110 881 -42 z m 726 647 l 756 697 b 571 786 701 715 615 760 l 553 763 b 726 647 600 725 674 669 z "},"え":{"ha":0,"x_min":0,"x_max":0,"o":"m 1108 -115 b 1131 -12 1114 -81 1124 -47 b 925 -35 1058 -29 985 -35 b 757 135 788 -35 763 32 b 676 304 754 188 756 304 b 532 263 646 304 600 292 b 807 582 647 410 732 506 l 708 639 b 269 593 569 631 375 596 b 299 513 278 565 290 540 b 689 593 404 551 522 572 b 175 -46 469 249 318 63 b 250 -106 199 -67 225 -85 b 628 235 332 22 526 235 b 699 82 679 235 693 169 b 917 -108 703 -69 847 -101 b 1108 -115 967 -112 1051 -115 z m 757 760 b 801 828 772 782 786 806 b 554 946 724 854 613 910 b 526 910 546 933 536 922 b 757 760 588 856 685 788 z "},"ぉ":{"ha":0,"x_min":0,"x_max":0,"o":"m 478 33 b 425 -26 478 11 467 -26 b 303 72 385 -26 303 24 b 478 292 303 142 346 206 b 476 164 476 249 476 207 b 478 33 476 121 476 78 z m 989 179 b 753 376 989 315 883 376 b 511 329 682 376 611 363 l 517 538 b 672 572 588 549 631 560 b 668 611 669 585 669 599 b 518 574 638 604 596 588 b 526 758 522 663 524 718 b 467 765 506 761 488 763 l 475 569 b 315 553 393 554 342 554 b 322 518 318 543 319 528 b 476 531 354 519 401 521 b 476 315 476 449 474 392 b 268 78 353 253 268 163 b 444 -64 268 11 385 -64 b 515 67 535 -64 515 -6 b 513 296 514 122 514 203 b 744 339 593 324 671 339 b 933 192 829 339 933 289 b 749 -35 933 68 865 -21 b 774 -75 756 -47 765 -62 b 989 179 897 -42 989 72 z m 1011 504 b 1038 533 1021 515 1028 522 b 883 642 999 575 931 621 b 875 631 881 638 878 636 b 1011 504 922 603 989 544 z "},"お":{"ha":0,"x_min":0,"x_max":0,"o":"m 415 329 b 417 151 417 258 417 201 b 351 -37 417 60 436 -37 b 219 74 313 -37 219 18 b 415 329 219 150 269 232 z m 1056 210 b 765 456 1056 385 928 456 b 467 401 671 456 585 435 b 475 642 472 497 469 557 b 674 688 564 658 626 669 b 669 749 672 708 669 728 b 475 694 622 735 569 717 b 486 925 479 803 478 876 b 403 939 460 929 429 935 b 415 688 407 888 410 806 b 217 672 324 676 276 668 l 225 624 b 415 636 263 624 353 626 b 417 379 415 536 415 460 b 161 79 263 301 161 185 b 385 -110 161 -7 294 -110 b 475 -6 449 -110 476 -85 b 471 346 474 58 469 235 b 756 399 561 381 654 399 b 978 225 860 399 978 350 b 744 -50 978 74 894 -29 b 788 -112 758 -72 774 -90 b 1056 210 943 -68 1056 69 z m 1101 599 b 1144 646 1115 615 1131 629 b 939 793 1090 701 1003 768 b 921 769 933 785 926 779 b 1101 599 983 732 1068 653 z "},"か":{"ha":0,"x_min":0,"x_max":0,"o":"m 835 483 b 658 692 835 629 779 697 b 507 668 635 692 601 683 b 565 918 540 785 556 861 l 496 938 b 431 658 482 865 460 768 b 165 617 310 644 254 628 l 201 536 b 421 607 250 557 313 579 b 128 -35 313 332 268 167 l 200 -79 b 496 625 304 110 413 358 b 665 646 572 638 626 646 b 778 511 757 646 776 603 b 717 103 778 417 758 203 b 582 -4 689 43 650 -3 b 504 -1 557 -6 515 0 b 578 -83 542 -81 561 -85 b 761 57 679 -79 725 -24 b 824 485 804 157 824 371 z m 1106 428 l 1168 472 b 940 743 1119 576 1025 678 l 918 725 b 1106 428 1000 642 1058 543 z "},"が":{"ha":0,"x_min":0,"x_max":0,"o":"m 796 482 b 488 672 796 693 661 722 b 543 914 515 789 531 853 l 474 931 b 408 660 458 861 439 769 b 132 611 281 633 224 624 l 165 533 b 396 610 222 554 283 574 b 203 108 328 404 271 246 b 106 -36 178 56 132 -7 l 178 -81 b 474 626 283 114 393 356 b 632 640 546 638 590 640 b 739 508 719 640 739 600 b 679 103 744 419 719 193 b 546 -4 651 38 613 -3 b 465 -4 517 -8 481 -6 l 503 -79 b 550 -86 514 -82 533 -87 b 735 54 650 -83 704 -31 b 796 482 781 150 796 372 z m 1054 415 l 1118 460 b 892 731 1069 564 975 671 l 871 710 b 1054 415 950 631 1013 529 "},"き":{"ha":1007,"x_min":0,"x_max":0,"o":""},"ぎ":{"ha":0,"x_min":0,"x_max":0,"o":""},"く":{"ha":0,"x_min":0,"x_max":0,"o":"m 811 -143 l 889 -83 b 543 376 799 82 669 254 b 493 467 511 410 493 451 b 546 556 493 493 524 533 b 835 922 639 639 772 813 l 757 975 b 454 531 682 814 561 653 b 415 454 438 514 415 485 b 489 347 415 413 468 372 b 811 -143 594 229 719 42 z "},"ぐ":{"ha":0,"x_min":0,"x_max":0,"o":"m 672 -143 l 750 -83 b 406 376 656 82 531 254 b 361 467 378 410 361 451 b 410 556 361 493 389 533 b 696 922 501 643 628 813 l 618 975 b 319 531 543 814 429 646 b 285 454 311 514 285 485 b 357 344 285 414 333 367 b 672 -143 451 225 593 43 "},"け":{"ha":397,"x_min":0,"x_max":0,"o":""},"げ":{"ha":0,"x_min":0,"x_max":0,"o":""},"こ":{"ha":0,"x_min":0,"x_max":0,"o":"m 1035 1 l 1044 92 b 671 42 938 64 776 42 b 315 185 444 42 315 111 b 336 258 315 215 326 247 l 307 279 b 260 169 289 260 260 213 b 413 17 260 103 318 47 b 728 -24 490 -14 588 -24 b 1035 1 828 -24 953 -12 z m 914 722 l 921 803 b 382 811 758 839 528 829 b 693 779 325 832 569 818 z "},"ご":{"ha":0,"x_min":0,"x_max":0,"o":"m 921 -6 l 931 88 b 563 35 819 60 665 35 b 210 181 339 35 210 107 b 228 256 210 207 214 239 l 203 272 b 158 165 183 256 158 207 b 301 10 158 96 210 40 b 615 -29 379 -15 478 -29 b 921 -6 713 -29 838 -19 z m 799 717 l 804 796 b 275 803 651 832 411 832 l 274 750 b 799 717 435 775 676 753 "},"さ":{"ha":1003,"x_min":0,"x_max":0,"o":""},"ざ":{"ha":0,"x_min":0,"x_max":0,"o":""},"し":{"ha":0,"x_min":0,"x_max":0,"o":""},"じ":{"ha":0,"x_min":0,"x_max":0,"o":""},"す":{"ha":671,"x_min":0,"x_max":0,"o":""},"ず":{"ha":0,"x_min":0,"x_max":0,"o":""},"せ":{"ha":1201,"x_min":0,"x_max":0,"o":""},"ぜ":{"ha":1111,"x_min":0,"x_max":0,"o":"m -46 179 l -107 246 l -60 278 b -182 413 -92 338 -133 379 l -214 392 b -107 246 -174 351 -136 303 z m 14 300 l 63 332 b -62 471 29 393 -17 433 l -93 449 b 14 300 -53 408 -14 360 z "},"そ":{"ha":1042,"x_min":0,"x_max":0,"o":""},"ぞ":{"ha":0,"x_min":0,"x_max":0,"o":""},"た":{"ha":1103,"x_min":0,"x_max":0,"o":""},"だ":{"ha":0,"x_min":0,"x_max":0,"o":""},"ち":{"ha":1082,"x_min":0,"x_max":0,"o":""},"ぢ":{"ha":0,"x_min":0,"x_max":0,"o":""},"っ":{"ha":0,"x_min":0,"x_max":0,"o":"m 1053 331 b 794 581 1053 482 926 581 b 253 478 633 576 418 500 l 285 406 b 790 532 514 504 669 532 b 1000 338 921 532 1000 468 b 839 101 1000 238 926 150 b 642 43 796 76 714 51 l 679 -12 b 950 115 772 8 882 53 b 1053 331 1010 172 1053 249 z "},"つ":{"ha":1156,"x_min":0,"x_max":0,"o":""},"づ":{"ha":0,"x_min":0,"x_max":0,"o":""},"て":{"ha":0,"x_min":0,"x_max":0,"o":"m 1114 785 l 1099 871 b 190 742 801 846 411 768 l 228 661 b 872 782 413 722 644 765 b 557 324 640 626 557 471 b 971 -76 557 129 776 -42 l 1014 15 b 651 344 840 42 651 158 b 935 763 651 531 781 697 b 1114 785 983 779 1039 789 z "},"で":{"ha":0,"x_min":0,"x_max":0,"o":"m 1025 785 b 1010 871 1021 814 1015 842 b 111 740 644 828 125 740 b 150 660 125 713 138 688 b 786 781 331 722 561 765 b 478 324 561 624 478 474 b 886 -76 478 128 697 -40 b 926 15 900 -46 913 -14 b 567 344 756 42 567 157 b 993 786 567 574 749 786 b 1025 785 1003 786 1014 785 "},"と":{"ha":0,"x_min":0,"x_max":0,"o":"m 990 -82 l 1003 7 b 579 -32 860 -19 718 -36 b 360 143 472 -26 360 18 b 957 592 360 375 694 536 l 938 669 b 553 506 836 638 704 586 b 518 918 533 667 519 836 l 418 921 b 476 450 449 800 464 589 b 303 139 369 367 303 264 b 710 -94 303 -32 447 -94 b 990 -82 810 -94 925 -92 z "},"ど":{"ha":0,"x_min":0,"x_max":0,"o":"m 875 -81 l 886 8 b 474 -33 749 -21 608 -37 b 258 143 365 -29 258 18 b 846 593 258 379 581 529 l 825 671 b 447 506 724 636 597 588 b 408 921 424 671 414 835 l 318 924 b 372 453 338 806 367 586 b 203 139 267 367 203 264 b 604 -94 203 -32 343 -94 b 875 -81 697 -94 815 -97 "},"な":{"ha":0,"x_min":0,"x_max":0,"o":"m 1050 -1 b 1099 57 1067 18 1082 38 b 843 193 1044 111 960 167 b 846 526 844 294 842 439 b 772 536 819 529 797 533 b 790 201 776 506 788 285 b 464 22 600 193 464 147 b 663 -143 464 -92 583 -143 b 846 8 768 -143 846 -83 l 844 149 b 1050 -1 961 99 1026 29 z m 721 728 b 718 794 719 750 718 774 b 497 743 675 782 607 763 b 564 950 525 846 554 908 b 493 989 540 963 515 976 b 424 731 481 915 461 814 b 206 710 336 721 254 711 b 210 657 207 692 210 676 b 407 672 244 658 294 660 b 181 228 332 485 251 328 b 247 186 201 214 225 201 b 482 685 338 331 414 493 b 721 728 581 697 665 713 z m 790 69 b 663 -100 790 -18 764 -100 b 531 19 599 -100 531 -58 b 792 151 531 88 581 146 z m 1082 558 b 1122 600 1096 572 1108 586 b 936 753 1079 660 990 724 b 915 735 929 747 922 740 b 1082 558 981 690 1044 621 z m 772 536 l 771 536 b NaN NaN 771 540 767 NaN z "},"に":{"ha":0,"x_min":0,"x_max":0,"o":"m 418 271 l 400 278 l 311 54 b 256 333 260 190 256 278 b 356 861 251 488 294 722 l 269 897 b 199 354 247 713 194 543 b 286 -83 199 207 236 32 l 347 -60 b 346 -14 346 -47 346 -28 b 426 268 346 74 389 165 z m 1094 32 l 1106 122 b 564 167 929 83 700 39 l 538 153 b 1094 32 581 -17 958 7 z m 1049 686 l 1056 763 b 594 751 901 793 735 776 b 836 735 546 774 718 774 z "},"ぬ":{"ha":0,"x_min":0,"x_max":0,"o":"m 436 174 b 257 28 367 89 293 28 b 167 181 214 28 167 82 b 274 479 167 261 197 349 b 436 174 329 346 378 271 z m 596 640 b 460 217 568 483 521 349 b 314 514 385 324 347 424 b 596 640 361 574 444 622 z m 1001 117 b 806 -14 944 24 881 -14 b 690 82 760 -14 690 22 b 815 192 690 158 753 192 b 1001 117 856 192 919 178 z m 1131 -6 l 1182 42 b 1069 131 1149 71 1114 99 b 1101 333 1100 185 1107 268 b 660 696 1089 519 932 674 b 675 894 669 772 674 832 l 600 911 b 599 690 610 836 608 763 b 300 581 507 682 378 638 b 254 753 278 653 265 701 l 200 743 b 254 533 215 686 228 615 b 108 194 161 422 108 271 b 268 -10 108 76 178 -10 b 465 117 329 -10 406 39 b 529 44 493 85 513 63 l 569 93 b 496 175 543 119 524 136 b 651 636 551 292 618 475 b 1053 331 850 640 1035 501 b 1038 160 1057 290 1056 213 b 815 232 967 203 865 232 b 650 72 733 232 650 172 b 813 -67 650 -8 746 -67 b 1046 79 908 -67 972 -8 b 1131 -6 1083 51 1108 24 z "},"ね":{"ha":0,"x_min":0,"x_max":0,"o":"m 1144 -21 b 1203 42 1163 0 1185 22 b 1053 156 1168 79 1113 117 b 1089 374 1076 228 1089 301 b 835 715 1089 518 1033 715 b 326 394 640 715 367 457 b 511 738 363 507 408 619 b 493 776 506 751 499 763 b 392 724 482 772 456 753 b 401 942 393 842 396 903 b 322 951 375 946 347 947 l 325 693 b 101 610 239 654 156 625 b 124 544 108 589 117 565 b 343 629 176 576 243 603 b 103 131 278 403 204 249 b 153 90 118 118 136 103 b 324 349 182 146 225 211 b 319 22 321 211 319 103 b 322 -108 319 -35 321 -79 b 394 -100 346 -104 369 -103 b 389 331 392 4 389 161 l 389 413 b 811 649 533 558 688 649 b 1011 371 964 649 1011 478 b 989 188 1011 324 1008 269 b 799 228 892 221 839 228 b 615 74 726 228 615 186 b 782 -79 615 -39 711 -79 b 1022 90 865 -79 950 -21 b 1144 -21 1088 38 1124 1 z m 967 131 b 778 -19 910 24 854 -19 b 672 83 729 -19 672 17 b 799 183 672 139 729 183 b 967 131 840 183 888 171 z "},"の":{"ha":0,"x_min":0,"x_max":0,"o":"m 689 775 b 1079 406 908 756 1079 632 b 803 33 1079 243 978 88 b 860 -26 822 14 840 -6 b 1160 399 1024 51 1160 196 b 706 824 1160 706 922 824 b 144 319 404 824 144 614 b 328 32 144 208 217 32 b 750 747 469 32 647 351 z m 660 775 b 635 599 656 708 649 644 b 413 150 576 399 525 293 b 418 157 415 151 417 154 b 329 111 397 129 361 111 b 200 306 275 111 200 219 b 660 775 200 575 393 740 z m 424 165 b 421 161 424 164 422 163 b 424 165 422 163 424 164 z m 421 161 b 418 157 421 160 419 158 b 421 161 419 158 419 160 z "},"は":{"ha":1093,"x_min":0,"x_max":0,"o":""},"ば":{"ha":1024,"x_min":0,"x_max":0,"o":"m 301 651 l 303 -58 l 694 -144 l 742 -112 b 619 22 710 -53 668 -11 l 588 1 b 694 -144 628 -39 665 -87 z m 815 -90 l 864 -58 b 739 81 831 3 785 43 l 708 58 b 815 -90 749 18 788 -31 z "},"ぱ":{"ha":1024,"x_min":0,"x_max":0,"o":"m 856 664 b 94 733 856 665 146 733 b 85 611 153 733 85 667 b 69 483 85 556 14 483 b 78 603 11 483 78 550 b NaN NaN 78 661 150 NaN z m NaN NaN b NaN NaN NaN NaN NaN NaN b NaN NaN NaN NaN NaN NaN b NaN NaN NaN NaN NaN NaN b NaN NaN NaN NaN NaN NaN b NaN NaN NaN NaN NaN NaN z "},"ひ":{"ha":0,"x_min":0,"x_max":0,"o":"m 1090 500 b 1146 574 1108 525 1126 549 b 901 931 1024 644 935 800 b 813 897 874 919 842 908 b 858 518 846 774 858 639 b 525 -51 858 303 768 -51 b 279 279 353 -51 279 93 b 513 843 279 496 381 725 b 435 906 486 864 461 885 b 160 815 365 851 264 818 b 181 743 167 792 172 768 b 403 815 226 746 274 758 b 213 243 285 643 213 426 b 513 -118 213 35 340 -118 b 924 603 817 -118 924 265 b 921 707 924 639 922 674 b 1090 500 958 633 1038 540 z "},"び":{"ha":0,"x_min":0,"x_max":0,"o":"m 1024 493 b 1076 565 1040 517 1058 542 b 836 921 960 633 865 792 b 749 889 807 911 778 900 b 794 510 782 761 794 635 b 460 -54 794 293 701 -54 b 214 274 290 -54 214 88 b 447 833 214 488 317 719 b 371 896 422 854 396 875 b 97 806 303 840 204 807 b 119 735 104 782 113 758 b 340 806 163 736 215 750 b 154 238 221 636 154 421 b 449 -121 154 31 274 -121 b 856 585 747 -121 856 251 b 851 697 856 622 854 661 b 1024 493 890 626 969 532 "},"ぴ":{"ha":156,"x_min":0,"x_max":0,"o":"m 1017 490 l 1071 560 b 831 914 954 626 858 792 l 744 882 b 789 507 779 756 789 629 b 458 -58 789 293 700 -58 b 214 271 288 -58 214 83 b 444 829 214 483 315 714 l 367 888 b 99 800 306 832 203 806 l 121 729 b 340 803 164 731 213 746 b 151 233 221 631 151 417 b 446 -124 151 31 276 -124 b 849 694 776 -124 876 340 b 1017 490 886 622 968 529 z "},"ふ":{"ha":0,"x_min":0,"x_max":0,"o":"m 461 208 l 449 232 b 294 124 388 206 344 175 b 200 274 247 171 214 224 l 133 238 b 263 36 163 157 224 75 b 461 208 301 86 401 174 z m 863 101 b 535 564 863 293 757 439 l 503 515 b 760 107 699 397 760 232 b 628 -32 760 19 713 -32 b 500 3 583 -32 538 -24 l 500 -67 b 660 -107 542 -87 589 -107 b 863 101 763 -107 863 -24 z m 1115 118 l 1172 165 b 1021 326 1135 232 1075 293 l 994 297 b 1115 118 1050 247 1090 181 z m 767 799 l 788 849 b 547 940 693 869 617 906 l 522 900 b 664 819 550 878 590 843 l 600 707 l 629 692 b 767 799 658 732 715 778 z "},"ぶ":{"ha":253,"x_min":0,"x_max":0,"o":"m 463 208 l 447 228 b 296 121 386 206 346 175 b 199 269 249 171 214 221 l 133 238 b 271 36 169 157 225 71 b 463 208 310 88 397 164 z m 867 103 b 535 560 867 289 756 436 l 503 511 b 764 106 701 392 764 232 b 629 -32 764 22 721 -32 b 499 -1 586 -32 538 -22 l 501 -65 b 660 -107 539 -89 588 -107 b 867 103 761 -107 867 -26 z m 515 782 l 529 807 l 581 704 b 669 NaN 601 629 635 563 l 642 NaN b 782 NaN 672 NaN 713 NaN l 719 NaN l 747 NaN b 889 NaN 781 NaN 833 NaN "},"ぷ":{"ha":389,"x_min":0,"x_max":0,"o":"m 457 201 l 442 225 b 290 117 382 201 340 171 b 196 267 243 165 208 217 l 128 233 b 265 32 164 154 219 68 b 457 201 304 81 392 163 z m 858 100 b 528 557 858 286 747 435 l 499 507 b 756 103 692 388 756 228 b 624 -35 756 21 714 -35 b 493 -4 582 -35 532 -25 l 496 -71 b 654 -111 531 -92 585 -111 b 858 100 756 -111 858 -31 z m 1111 113 l 1167 160 b 1018 319 1128 229 1061 288 l 990 292 b 1111 113 1046 240 1086 175 z m 763 789 l 788 840 b 543 932 688 864 606 896 l 515 896 b 653 807 546 868 588 838 l 594 699 l 621 683 b 763 789 654 729 707 769 z "},"へ":{"ha":0,"x_min":0,"x_max":0,"o":"m 1174 139 b 1214 228 1188 168 1200 199 b 638 560 986 304 779 426 b 479 665 592 608 528 665 b 92 351 317 665 224 390 b 156 278 113 326 133 303 b 478 599 293 458 410 599 b 633 493 525 599 543 583 b 1174 139 676 444 974 232 z "},"べ":{"ha":0,"x_min":0,"x_max":0,"o":"m 1174 133 b 1214 225 1188 163 1200 194 b 642 551 992 294 781 418 b 482 654 590 599 533 654 b 92 349 333 654 206 378 b 160 272 115 324 136 297 b 481 592 292 444 415 592 b 636 485 529 592 542 578 b 1174 133 679 442 974 226 "},"ぺ":{"ha":-85,"x_min":0,"x_max":0,"o":"m 1174 131 b 1214 222 1188 160 1200 193 b 642 547 992 292 782 413 b 482 650 592 596 533 650 b 92 343 315 650 231 383 b 160 269 115 318 136 294 b 481 586 293 442 414 586 b 636 483 529 586 543 571 b 1174 131 681 440 974 224 z "},"ほ":{"ha":789,"x_min":0,"x_max":0,"o":""},"ぼ":{"ha":0,"x_min":0,"x_max":0,"o":""},"ぽ":{"ha":713,"x_min":0,"x_max":0,"o":""},"ま":{"ha":0,"x_min":0,"x_max":0,"o":"m 989 -46 b 1043 18 1007 -25 1024 -1 b 674 196 943 101 813 171 l 674 424 b 911 449 782 426 860 438 b 910 515 911 471 910 493 b 674 478 861 503 783 492 l 674 701 b 957 736 801 713 901 728 b 950 804 956 760 951 781 b 674 760 892 789 806 781 b 678 946 674 853 678 915 l 593 967 b 607 753 606 893 607 821 b 274 740 472 742 379 736 b 279 688 276 722 278 706 b 608 697 392 685 469 686 l 613 478 b 326 469 497 468 425 463 b 335 417 329 451 332 435 b 613 418 426 410 508 413 l 613 204 b 261 19 411 190 261 119 b 493 -136 261 -103 392 -136 b 679 1 593 -136 679 -92 b 678 153 679 14 678 56 b 989 -46 810 106 907 29 z m 614 69 b 472 -92 608 -64 556 -92 b 313 6 365 -92 313 -47 b 614 144 313 85 421 136 z "},"み":{"ha":0,"x_min":0,"x_max":0,"o":"m 475 422 b 253 65 386 200 336 65 b 171 171 201 65 171 99 b 475 422 171 300 299 378 z m 1131 107 b 1183 179 1149 132 1164 156 b 954 346 1124 233 1047 293 b 1013 628 983 458 997 557 b 932 636 985 631 960 635 b 896 379 938 544 928 506 b 546 465 765 431 671 454 b 707 844 617 632 671 764 b 636 890 683 858 660 876 b 299 832 571 865 399 832 b 331 754 310 807 318 781 b 608 799 408 786 485 786 b 490 460 576 682 539 583 b 122 168 301 431 122 336 b 236 -8 122 64 171 -8 b 397 82 313 -8 376 22 l 522 411 b 878 314 654 401 754 372 b 706 -29 829 169 768 49 b 774 -79 728 -46 750 -61 b 935 275 835 15 885 126 b 1131 107 1024 210 1085 154 z "},"む":{"ha":-15,"x_min":0,"x_max":0,"o":"m 432 332 b 308 154 424 207 376 154 b 203 297 257 154 203 200 b 318 449 203 385 263 449 b 432 332 375 449 433 417 z m 1061 156 l 982 175 b 963 32 983 125 972 68 b 710 -90 925 -97 771 -90 b 460 93 589 -90 415 -65 b 482 404 488 200 511 319 b 500 707 494 478 496 575 b 688 726 585 711 651 718 l 683 782 b 503 754 644 775 590 768 b 503 926 504 863 503 849 l 417 939 b 436 751 428 876 429 813 b 225 750 342 746 275 747 l 225 707 b 435 704 278 700 346 697 b 429 440 436 578 436 557 b 293 489 367 486 340 489 b 143 267 225 489 143 396 b 286 96 143 158 200 96 b 422 144 319 96 346 106 b 669 -124 354 -90 531 -117 b 1061 156 807 -135 1017 -117 z "},"め":{"ha":0,"x_min":0,"x_max":0,"o":"m 431 194 b 260 40 365 96 297 40 b 168 186 224 40 168 88 b 301 497 168 275 208 364 b 431 194 340 365 382 288 z m 632 651 b 476 254 579 494 544 399 b 343 529 411 368 374 438 b 632 651 428 589 497 626 z m 1181 321 b 706 696 1181 532 1006 669 b 738 889 724 783 735 842 b 668 899 714 893 690 894 b 644 697 676 831 660 772 b 325 586 518 689 422 651 b 285 725 303 663 286 706 b 249 711 272 719 261 717 b 290 543 257 676 265 619 b 124 185 171 425 124 269 b 274 -22 124 75 189 -22 b 464 138 342 -22 400 44 b 569 4 513 68 547 28 b 621 67 588 25 603 46 b 504 211 593 92 549 144 b 690 642 583 346 642 475 b 1090 315 946 624 1090 481 b 847 0 1090 136 981 39 b 890 -78 863 -25 876 -51 b 1181 321 1022 -39 1181 97 z "},"も":{"ha":0,"x_min":0,"x_max":0,"o":"m 1029 136 b 989 351 1029 232 1015 296 b 903 324 960 342 932 333 b 958 144 944 264 958 217 b 729 -85 958 15 860 -85 b 501 161 569 -85 501 28 b 519 326 501 203 501 215 b 719 336 581 324 672 326 b 728 417 724 363 725 390 b 529 385 675 406 615 392 b 572 657 540 490 551 558 b 750 650 642 649 692 644 b 754 718 751 672 753 696 b 582 721 694 710 656 715 b 625 935 603 824 615 890 b 519 957 590 942 556 950 l 501 721 b 326 753 414 735 360 742 b 296 821 325 733 307 765 b 164 890 281 911 272 897 b 22 719 101 875 -6 733 b 64 688 72 715 68 708 b 17 738 54 689 50 699 b NaN NaN -44 865 -61 NaN b NaN NaN NaN NaN NaN NaN b NaN NaN NaN NaN NaN NaN b NaN NaN NaN NaN NaN NaN z "},"ゃ":{"ha":0,"x_min":0,"x_max":0,"o":"m 1079 393 b 754 572 1078 619 858 610 b 642 756 718 649 674 714 b 608 735 629 749 621 742 b 701 550 629 700 661 633 b 449 435 607 510 544 483 b 347 669 400 535 368 613 b 286 647 326 663 307 654 b 403 411 310 596 351 513 b 222 318 288 344 288 343 b 267 264 238 300 251 282 b 422 365 299 286 346 317 b 565 76 507 167 546 67 b 532 233 586 86 606 94 b NaN NaN 465 386 394 565 b NaN NaN NaN NaN NaN NaN b NaN NaN NaN NaN NaN NaN b NaN NaN NaN NaN NaN NaN b NaN NaN NaN NaN NaN NaN b NaN NaN NaN NaN NaN NaN b NaN NaN NaN NaN NaN NaN b NaN NaN NaN NaN NaN NaN b NaN NaN NaN NaN NaN NaN b NaN NaN NaN NaN NaN NaN b NaN NaN NaN NaN NaN NaN b NaN NaN NaN NaN NaN NaN z "},"や":{"ha":0,"x_min":0,"x_max":0,"o":"m 1196 500 b 944 743 1196 679 1067 743 b 788 721 901 743 857 733 b 640 957 738 817 683 901 b 586 921 622 944 604 933 b 701 693 622 872 654 797 b 404 561 596 651 517 617 b 278 850 349 682 308 781 l 194 817 b 339 529 231 750 279 651 b 108 414 206 456 178 422 b 176 329 132 386 153 357 b 374 456 218 360 282 396 b 613 -125 475 218 563 1 b 699 -86 642 -111 669 -99 b 432 490 617 86 524 278 b 726 639 539 546 619 592 b 768 510 750 576 765 528 b 856 550 799 524 826 538 b 813 668 843 571 832 604 b 942 688 875 682 913 688 b 1101 510 1028 688 1101 636 b 888 329 1101 358 992 329 b 810 338 864 329 828 333 b 799 260 807 313 801 285 b 906 249 835 253 874 249 b 1196 500 1026 249 1196 300 z "},"ゅ":{"ha":0,"x_min":0,"x_max":0,"o":"m 972 356 b 743 86 972 225 904 115 b 776 576 771 290 781 346 b 972 356 929 542 972 456 z m 1035 358 b 776 604 1035 483 956 583 l 764 736 b 710 742 747 739 728 739 b 725 604 713 718 721 658 b 326 233 554 578 392 396 b 324 336 325 256 324 293 b 369 656 324 444 332 592 b 307 681 347 663 329 674 b 269 329 281 564 269 446 b 313 42 269 258 281 111 b 353 61 326 47 339 56 b 351 124 351 85 351 104 b 725 578 351 286 506 533 b 693 99 736 408 726 214 b 579 193 621 138 589 179 b 529 251 571 185 564 206 b 385 235 493 315 467 278 b 288 233 326 200 299 218 b 314 339 276 251 264 303 b NaN NaN 376 368 458 NaN b NaN NaN NaN NaN NaN NaN z "},"ゆ":{"ha":0,"x_min":0,"x_max":0,"o":"m 1040 468 b 776 156 1040 319 964 179 b 813 740 813 317 825 513 b 1040 468 994 696 1040 585 z m 1122 474 b 815 785 1122 636 1043 763 b 804 950 808 863 807 917 b 722 960 778 951 749 957 b 744 786 731 917 740 846 b 239 278 543 746 296 519 b 325 851 233 429 256 735 b 239 919 294 874 268 896 b 181 438 190 746 181 586 b 236 71 181 346 193 167 b 296 103 256 81 276 92 b 294 167 294 126 294 147 b 319 340 294 238 301 288 b 740 740 386 507 546 703 b 706 167 747 540 751 306 b 571 285 614 210 588 264 b 525 243 556 269 542 257 b 692 119 556 200 603 154 b 539 -87 644 21 592 -53 b 618 -139 565 -103 592 -122 b 765 110 689 -72 731 4 b 1122 474 997 117 1122 264 z "},"ょ":{"ha":0,"x_min":0,"x_max":0,"o":"m 624 103 b 507 -36 618 -15 575 -36 b 375 54 415 -36 375 11 b 626 172 375 115 463 165 z m 922 11 l 968 65 b 671 200 885 129 781 178 b 669 525 667 304 669 401 b 911 550 781 526 849 531 l 911 596 b 669 558 849 579 783 561 l 669 751 l 611 758 b 626 200 628 632 624 464 b 336 57 456 199 336 140 b 522 -62 336 -32 449 -62 b 671 50 600 -62 669 -11 l 671 174 b 922 11 789 132 860 72 z "},"よ":{"ha":0,"x_min":0,"x_max":0,"o":"m 615 183 b 475 -56 617 58 588 -56 b 324 46 371 -56 324 -10 b 615 183 324 121 431 179 z m 985 -19 l 1040 46 b 675 226 943 129 817 199 b 672 619 671 354 672 478 b 981 651 810 621 899 626 l 981 718 b 674 667 901 696 810 675 b 678 917 674 796 672 879 l 594 926 b 607 806 599 907 601 869 b 613 233 611 719 613 454 b 264 47 407 231 264 154 b 493 -108 264 -76 390 -108 b 679 42 596 -108 683 -47 b 675 185 679 75 675 85 b 985 -19 810 138 903 58 z "},"ら":{"ha":0,"x_min":0,"x_max":0,"o":"m 994 157 b 731 375 994 308 876 375 b 374 247 617 375 500 329 b 435 682 410 411 435 589 l 349 694 b 311 263 353 561 335 411 l 383 190 b 696 338 475 274 576 338 b 914 144 839 338 914 265 b 618 -56 914 18 764 -43 b 539 -58 582 -64 553 -57 l 565 -118 b 994 157 793 -122 994 -44 z m 635 753 l 682 808 b 510 942 632 871 557 917 l 486 910 b 635 753 550 868 600 810 z "},"り":{"ha":0,"x_min":0,"x_max":0,"o":"m 575 531 l 546 551 l 414 386 b 471 915 404 601 429 776 l 406 939 b 382 213 353 692 319 397 l 458 235 b 575 531 463 325 528 472 z m 957 582 b 919 932 957 701 943 814 l 860 921 b 890 585 882 806 890 696 b 660 -78 885 354 828 85 l 729 -125 b 957 582 888 56 957 344 z "},"る":{"ha":0,"x_min":0,"x_max":0,"o":"m 819 -44 b 699 -72 757 -67 728 -72 b 519 61 594 -72 519 -17 b 626 151 519 117 558 151 b 819 -44 688 151 772 71 z m 1071 243 b 781 539 1071 436 926 539 b 519 468 735 539 664 532 b 817 892 635 644 744 807 l 771 943 b 365 893 660 906 507 878 l 397 814 l 710 860 b 235 267 558 622 404 414 l 301 221 b 751 500 415 386 606 500 b 988 243 900 500 988 381 b 878 6 988 178 957 99 b 613 194 810 136 728 194 b 467 49 536 194 467 135 b 701 -124 467 -79 604 -124 b 1071 243 876 -124 1071 44 z "},"れ":{"ha":0,"x_min":0,"x_max":0,"o":"m 1204 99 l 1157 146 b 976 -21 1115 68 1046 -21 b 907 114 932 -21 907 44 b 936 565 907 272 936 426 b 796 694 936 651 878 694 b 303 369 654 694 363 469 b 508 724 363 517 492 706 b 490 761 503 738 496 749 b 386 707 478 756 450 743 b 399 929 390 819 394 883 b 318 936 372 932 344 932 l 319 678 b 100 599 232 642 153 611 b 122 532 108 576 114 554 b 342 618 175 560 235 586 b 100 115 274 385 200 235 b 149 76 115 103 133 89 b 318 336 178 138 218 201 b 317 -121 317 96 317 -47 b 392 -114 343 -119 367 -115 b 381 257 388 -22 381 111 b 383 404 381 306 382 354 b 781 633 525 549 665 633 b 876 554 861 633 876 597 b 843 63 876 406 843 225 b 967 -92 843 -17 882 -92 b 1204 99 1058 -92 1132 -17 z "},"ろ":{"ha":0,"x_min":0,"x_max":0,"o":"m 1069 236 b 782 528 1069 424 925 528 b 522 467 740 528 663 522 b 815 885 636 638 744 803 l 769 936 b 365 883 660 900 511 874 l 399 801 l 710 849 b 236 256 560 615 407 403 l 300 210 b 751 490 415 375 603 490 b 988 232 899 490 988 385 b 864 22 988 138 926 61 b 622 -42 814 -7 724 -37 l 678 -121 b 1069 236 925 -68 1069 51 z "},"ゎ":{"ha":0,"x_min":0,"x_max":0,"o":"m 1050 279 b 810 557 1050 422 950 557 b 392 310 650 557 446 368 b 575 606 449 433 563 586 b 564 629 571 614 567 621 b 479 586 556 625 535 611 b 485 765 483 681 485 738 b 431 769 465 767 449 767 l 431 567 b 256 501 358 539 297 514 b 269 463 260 490 265 475 b 453 533 308 488 363 507 b 256 115 401 333 335 210 b 285 93 264 108 276 100 b 428 308 310 143 343 179 b 431 -68 428 196 428 -31 b 482 -64 449 -67 464 -64 b 472 343 475 28 471 194 b 797 504 579 438 678 504 b 994 275 928 504 994 374 b 793 4 994 136 919 42 b 824 -46 804 -12 813 -28 b 1050 279 938 -10 1050 99 z "},"わ":{"ha":0,"x_min":0,"x_max":0,"o":"m 1146 321 b 865 657 1146 497 1047 657 b 367 393 699 657 468 504 b 568 725 432 531 554 715 b 553 764 564 738 557 751 b 447 711 540 758 511 743 b 457 933 449 825 453 889 b 379 940 432 936 404 936 b 381 682 383 888 381 838 b 160 600 293 643 217 613 b 181 535 165 578 175 557 b 400 621 233 565 301 589 b 158 119 333 390 257 235 b 207 81 174 107 192 93 b 379 368 236 146 301 251 b 379 -118 364 204 374 40 b 408 -94 403 -118 404 -94 b 619 -100 432 -94 433 -100 b 900 -94 614 -100 785 -94 b 1286 -33 1014 -94 1143 -33 b 1525 -310 1442 -33 1525 -192 b 1274 -639 1525 -478 1433 -587 b 1318 -715 1288 -665 1304 -689 b 1601 -306 1468 -667 1601 -529 z "},"ゐ":{"ha":0,"x_min":0,"x_max":0,"o":"m 574 522 b 382 65 482 297 415 136 b 296 0 369 39 338 0 b 219 128 253 0 221 42 b 574 522 219 219 296 413 z m 921 -3 b 789 -46 867 -32 821 -46 b 667 49 706 -46 667 -1 b 778 154 667 110 726 154 b 921 -3 840 154 890 103 z m 1136 261 b 651 576 1136 474 969 576 b 781 886 711 717 750 813 l 715 928 b 364 850 636 886 524 861 l 389 794 b 694 840 457 815 571 835 b 589 568 657 744 632 671 b 168 114 329 517 168 275 b 272 -65 168 29 203 -60 b 426 32 351 -65 392 -43 b 632 526 486 163 554 338 b 1065 274 892 560 1064 432 b 968 32 1065 199 1032 133 b 767 185 907 146 854 185 b 625 50 697 185 625 135 b 792 -96 625 -51 697 -96 b 1136 261 960 -96 1136 57 z "},"ゑ":{"ha":0,"x_min":0,"x_max":0,"o":"m 696 350 b 642 285 696 317 671 286 b 564 349 604 286 564 313 b 632 419 564 396 586 419 b 696 350 667 419 696 388 z m 1046 -136 l 1126 -83 b 846 90 1056 8 951 90 b 615 -43 767 90 672 54 b 407 58 558 25 506 44 b 635 224 488 144 558 176 b 742 197 676 199 706 197 b 996 481 876 197 996 358 b 825 685 996 613 928 685 b 597 632 788 685 735 683 b 846 894 722 796 790 853 l 775 967 b 396 903 689 931 556 904 l 432 833 b 767 889 501 857 622 875 b 301 488 619 718 436 565 l 364 431 b 772 649 489 563 628 649 b 936 482 865 649 936 589 b 654 231 936 306 794 214 b 736 364 731 304 736 326 b 633 449 736 399 706 450 b 532 346 579 449 532 396 b 622 247 532 307 546 282 b 315 60 499 207 374 115 b 178 -104 258 7 211 -46 l 243 -136 b 429 39 303 -36 379 39 b 579 -140 504 39 565 -43 l 663 -133 b 801 64 657 -37 729 64 b 1046 -136 914 64 992 -26 z "},"を":{"ha":0,"x_min":0,"x_max":0,"o":"m 1082 424 b 1036 496 1067 447 1051 472 b 794 389 985 481 908 443 b 613 550 758 489 688 550 b 418 488 563 550 519 543 b 504 726 447 586 472 644 b 767 768 614 739 707 750 b 761 824 765 786 763 806 b 521 776 713 813 650 797 b 597 940 567 865 590 918 b 522 963 572 947 547 956 l 460 778 b 286 776 403 771 336 771 b 292 721 288 757 290 740 b 440 719 342 715 375 721 b 222 310 364 531 283 396 b 288 278 243 299 267 288 b 583 517 368 431 453 517 b 736 360 649 517 711 444 b 443 43 572 267 443 156 b 867 -139 443 -151 732 -139 b 915 -137 883 -139 899 -139 b 935 -50 922 -108 928 -79 b 776 -60 881 -57 828 -60 b 497 46 622 -60 497 -29 b 746 296 497 111 625 226 b 754 158 751 215 754 174 l 831 158 b 810 326 831 192 825 243 b 1082 424 917 371 1003 397 z "},"ん":{"ha":0,"x_min":0,"x_max":0,"o":"m 1131 132 l 1071 186 b 886 -29 1028 89 957 -39 b 614 394 708 13 800 389 b 442 331 588 394 543 382 b 711 892 490 453 653 778 l 633 933 b 429 442 583 767 507 603 b 174 -42 346 268 256 97 l 249 -79 b 585 332 338 169 501 332 b 874 -104 788 324 651 -90 b 1131 132 990 -104 1079 11 z "},"ァ":{"ha":0,"x_min":0,"x_max":0,"o":"m 1014 633 l 950 708 l 290 708 l 290 664 l 940 664 b 640 350 936 544 811 421 l 640 479 l 578 479 l 578 393 b 540 110 578 229 563 158 b 399 -46 503 36 458 -14 l 436 -85 b 640 311 546 -17 618 100 b 1014 633 821 378 956 506 z "},"ア":{"ha":0,"x_min":0,"x_max":0,"o":"m 1108 811 l 1029 894 l 197 894 l 197 829 l 1015 829 b 640 465 936 660 832 544 l 640 619 l 557 619 l 557 507 b 331 -40 557 233 540 128 l 376 -99 b 639 400 513 -8 639 125 b 1108 811 856 472 1038 660 z "},"ィ":{"ha":0,"x_min":0,"x_max":0,"o":"m 971 708 l 917 757 b 333 296 776 589 526 368 l 363 250 b 671 435 440 286 540 340 l 671 -97 l 739 -97 l 739 486 b 971 708 836 563 915 649 z "},"イ":{"ha":0,"x_min":0,"x_max":0,"o":"m 1054 874 b 978 939 1028 896 1004 917 b 251 363 839 747 547 500 b 289 301 264 342 276 321 b 669 529 392 350 508 414 l 669 -131 l 751 -131 l 751 596 b 1054 874 878 696 990 796 z "},"ゥ":{"ha":0,"x_min":0,"x_max":0,"o":"m 986 603 l 679 603 l 679 756 l 613 756 l 613 603 l 318 603 l 318 340 l 376 340 l 376 558 l 914 558 b 558 -43 914 232 776 46 l 604 -96 b 986 603 842 32 986 229 z "},"ウ":{"ha":0,"x_min":0,"x_max":0,"o":"m 1071 764 l 686 764 l 686 953 l 597 953 l 597 764 l 233 764 l 233 422 l 314 422 l 314 701 l 972 701 b 529 -39 972 296 797 65 l 585 -115 b 1071 764 871 44 1060 282 z "},"ェ":{"ha":0,"x_min":0,"x_max":0,"o":"m 1024 15 l 1024 67 l 690 67 l 690 521 l 953 521 l 953 574 l 350 574 l 350 521 l 618 521 l 618 67 l 281 67 l 281 15 z "},"エ":{"ha":0,"x_min":0,"x_max":0,"o":"m 1121 64 l 1121 132 l 696 132 l 696 690 l 1032 690 l 1032 757 l 272 757 l 272 690 l 608 690 l 608 132 l 185 132 l 185 64 z "},"ォ":{"ha":0,"x_min":0,"x_max":0,"o":"m 1015 496 l 1015 540 l 796 540 l 796 725 l 735 725 l 735 540 l 339 540 l 339 496 l 697 496 b 289 111 579 321 429 179 l 328 64 b 735 446 454 131 588 254 l 735 35 b 589 -47 735 -8 675 -51 l 606 -97 b 796 19 729 -97 796 -76 l 796 496 z "},"オ":{"ha":0,"x_min":0,"x_max":0,"o":"m 1108 638 l 1108 700 l 835 700 l 835 932 l 750 932 l 750 700 l 256 700 l 256 638 l 697 638 b 197 163 561 431 367 243 l 249 94 b 750 568 396 182 569 347 l 750 74 b 567 -19 750 21 679 -24 l 594 -92 b 835 65 758 -85 835 -69 l 835 638 z "},"カ":{"ha":0,"x_min":0,"x_max":0,"o":"m 1074 683 l 656 683 l 656 919 l 572 919 l 572 683 l 285 683 l 285 619 l 572 619 b 231 -18 572 336 444 111 l 288 -79 b 654 619 481 74 654 311 l 992 619 b 926 29 992 417 978 118 b 744 -25 911 1 849 -31 l 765 -93 b 992 -24 881 -93 961 -83 b 1074 683 1050 81 1069 474 z "},"ガ":{"ha":0,"x_min":0,"x_max":0,"o":"m 958 683 l 543 683 l 543 919 l 464 919 l 464 683 l 179 683 l 179 617 l 465 617 b 125 -18 465 338 346 113 l 185 -81 b 544 617 385 78 544 292 l 881 617 b 814 26 881 417 858 114 b 636 -25 797 -4 738 -36 l 658 -94 b 879 -25 768 -94 853 -72 b 958 683 926 56 958 471 "},"キ":{"ha":0,"x_min":0,"x_max":0,"o":"m 1079 333 l 1069 408 l 697 344 l 653 629 l 985 671 l 975 746 l 647 689 l 604 954 l 522 943 l 565 675 l 281 626 l 288 569 l 576 614 l 614 332 l 226 271 l 235 218 l 624 268 l 681 -126 l 763 -115 l 707 283 z "},"ギ":{"ha":0,"x_min":0,"x_max":0,"o":"m 1018 328 l 1008 406 l 640 342 l 596 625 l 924 667 l 914 743 l 585 682 l 547 949 l 468 938 l 506 671 l 229 624 l 233 567 l 519 610 l 558 329 l 171 268 l 178 214 l 568 267 l 621 -129 l 701 -118 l 650 278 "},"ク":{"ha":0,"x_min":0,"x_max":0,"o":"m 1081 674 l 971 760 l 590 760 b 683 911 647 844 669 885 l 614 949 b 224 500 547 800 382 596 l 281 442 b 542 700 358 503 453 592 l 988 700 b 307 -44 871 382 597 81 l 365 -114 b 1081 674 672 40 946 340 z "},"グ":{"ha":0,"x_min":0,"x_max":0,"o":"m 958 665 b 853 749 924 692 889 721 l 472 749 b 569 903 526 832 554 879 b 501 938 547 915 524 925 b 113 494 435 790 268 583 b 172 435 132 474 153 456 b 425 692 247 490 338 586 l 869 692 b 196 -49 754 374 485 75 l 254 -115 b 958 665 560 46 819 331 "},"ケ":{"ha":0,"x_min":0,"x_max":0,"o":"m 1150 656 l 1150 713 l 481 713 b 583 897 532 810 565 863 l 519 956 b 154 450 454 778 310 561 l 213 397 b 432 656 278 456 357 543 l 764 656 b 431 -62 768 328 663 78 l 483 -122 b 847 656 690 33 851 282 z "},"ゲ":{"ha":0,"x_min":0,"x_max":0,"o":"m 1061 651 l 1061 715 l 422 715 b 531 918 478 817 511 878 l 474 976 b 106 461 414 790 258 579 l 167 407 b 375 651 231 464 299 549 l 718 651 b 382 -64 722 326 613 81 l 436 -125 b 799 651 643 32 803 278 "},"コ":{"ha":0,"x_min":0,"x_max":0,"o":"m 1033 4 l 1033 767 l 285 767 l 285 701 l 944 701 l 944 142 l 271 142 l 271 71 l 944 71 l 944 4 z "},"ゴ":{"ha":0,"x_min":0,"x_max":0,"o":"m 922 -7 l 922 746 l 175 746 l 175 682 l 831 682 l 831 126 l 167 126 l 167 58 l 831 58 l 831 -7 "},"サ":{"ha":0,"x_min":0,"x_max":0,"o":"m 1143 601 l 1143 660 l 918 660 l 918 931 l 846 931 l 846 660 l 469 660 l 469 926 l 393 926 l 393 660 l 161 660 l 161 601 l 393 601 l 393 282 l 469 282 l 469 601 l 846 601 b 529 -64 835 333 747 67 l 586 -117 b 919 601 797 38 911 296 z "},"ザ":{"ha":0,"x_min":0,"x_max":0,"o":"m 1061 599 l 1061 661 l 838 661 l 838 931 l 763 931 l 763 661 l 408 661 l 408 924 l 332 924 l 332 661 l 100 661 l 100 599 l 332 599 l 332 279 l 408 279 l 408 599 l 764 599 b 450 -65 753 331 667 74 b 506 -118 468 -83 489 -101 b 838 599 718 33 831 289 "},"シ":{"ha":0,"x_min":0,"x_max":0,"o":"m 372 422 l 421 482 b 208 618 365 535 268 593 l 185 583 b 372 422 244 546 322 483 z m 1121 532 l 1074 583 b 251 26 896 375 515 100 l 303 -56 b 1121 532 558 39 943 322 z m 518 710 l 564 767 b 385 893 514 817 438 863 l 356 857 b 518 710 413 821 481 761 z "},"ジ":{"ha":0,"x_min":0,"x_max":0,"o":"m 392 419 b 443 478 408 439 426 458 b 232 615 386 531 289 588 b 206 579 222 603 215 592 b 392 419 269 542 343 478 z m 1140 529 b 1097 581 1125 547 1113 563 b 275 24 911 361 540 100 b 326 -54 293 -1 308 -28 b 1140 529 579 44 965 313 z m 539 706 b 586 758 556 724 571 742 b 407 889 536 808 461 861 b 378 850 397 876 388 863 b 539 706 438 821 500 756 "},"ス":{"ha":0,"x_min":0,"x_max":0,"o":"m 1013 28 l 1093 94 b 758 424 1017 207 883 335 b 919 690 839 526 888 617 l 822 808 l 301 808 l 301 742 l 840 742 b 211 64 739 474 497 181 l 264 -6 b 721 379 410 69 572 211 b 1013 28 839 288 956 135 z "},"ズ":{"ha":0,"x_min":0,"x_max":0,"o":"m 968 19 l 1047 85 b 713 411 971 201 833 322 b 875 675 796 515 843 601 l 775 792 l 265 792 l 265 725 l 797 725 b 175 53 704 464 454 172 l 226 -12 b 682 372 369 63 532 201 b 968 19 789 283 915 124 "},"セ":{"ha":1064,"x_min":0,"x_max":0,"o":""},"ゼ":{"ha":0,"x_min":0,"x_max":0,"o":""},"ソ":{"ha":0,"x_min":0,"x_max":0,"o":"m 379 557 l 451 610 b 272 849 411 689 328 793 l 225 814 b 379 557 278 754 346 642 z m 1081 840 l 1000 872 b 404 -19 919 581 746 176 l 475 -86 b 1081 840 751 122 972 492 z "},"ゾ":{"ha":0,"x_min":0,"x_max":0,"o":"m 250 542 l 318 590 b 144 828 279 668 194 775 l 99 792 b 250 542 150 735 214 626 z m 922 799 l 849 829 b 272 -29 767 533 600 169 l 338 -93 b 922 799 614 104 815 450 "},"タ":{"ha":0,"x_min":0,"x_max":0,"o":"m 1097 721 l 1006 771 l 586 772 b 686 922 646 854 675 899 l 614 960 b 222 514 547 813 381 618 l 281 458 b 539 714 357 515 451 606 l 988 714 b 749 307 936 560 857 444 b 565 443 671 365 608 413 l 525 396 b 692 244 571 357 624 315 b 272 -54 543 103 396 1 l 332 -125 b 746 188 465 -56 599 43 b 869 24 800 117 843 63 l 949 97 b 806 256 918 138 869 189 b 1082 688 928 404 1017 549 z "},"ダ":{"ha":0,"x_min":0,"x_max":0,"o":"m 979 721 l 888 771 l 468 772 b 568 922 528 854 557 899 l 496 960 b 104 514 429 813 263 618 l 163 458 b 421 714 239 515 333 606 l 869 714 b 631 307 818 560 739 444 b 447 443 553 365 490 413 l 407 396 b 574 244 453 357 506 315 b 154 -54 425 103 278 1 l 214 -125 b 628 188 347 -56 481 43 b 751 24 682 117 725 63 l 831 97 b 688 256 800 138 751 189 b 964 688 810 404 899 549 "},"チ":{"ha":0,"x_min":0,"x_max":0,"o":"m 1131 469 l 1131 529 l 717 529 l 717 835 b 989 894 838 854 929 876 l 956 956 b 326 836 779 892 561 851 l 338 793 b 639 825 408 797 501 806 l 639 529 l 174 529 l 174 469 l 639 469 b 321 -89 639 235 539 28 l 374 -153 b 717 469 583 -21 717 231 z "},"ヂ":{"ha":0,"x_min":0,"x_max":0,"o":"m 1043 471 l 1043 531 l 636 531 l 636 838 b 904 894 753 854 850 879 l 874 956 b 244 839 694 894 485 853 l 254 794 b 557 826 326 800 424 807 l 557 531 l 100 531 l 100 471 l 558 471 b 240 -89 558 233 457 38 l 297 -153 b 638 471 499 -22 638 225 "},"ッ":{"ha":0,"x_min":0,"x_max":0,"o":"m 343 417 l 399 438 b 304 614 376 494 339 574 l 265 603 b 343 417 299 543 329 468 z m 1040 607 l 974 635 b 463 -43 894 399 731 100 l 514 -90 b 1040 607 757 71 949 329 z m 622 479 l 679 494 b 607 674 664 553 633 628 l 560 661 b 622 479 589 607 611 532 z "},"ツ":{"ha":0,"x_min":0,"x_max":0,"o":"m 286 542 l 360 572 b 233 811 336 654 283 753 l 183 789 b 286 542 231 708 271 617 z m 1122 801 l 1049 836 b 410 -8 950 550 757 165 l 474 -75 b 1122 801 765 115 1001 467 z m 621 622 l 692 640 b 594 876 668 724 631 817 l 540 865 b 621 622 579 786 606 700 z "},"ヅ":{"ha":0,"x_min":0,"x_max":0,"o":"m 183 531 l 250 561 b 128 797 222 639 171 735 l 78 778 b 183 531 129 696 164 606 z m 988 753 l 915 789 b 310 -15 813 507 657 158 l 374 -81 b 988 753 664 103 869 433 z m 506 611 l 575 631 b 482 863 553 708 514 801 l 425 849 b 506 611 465 776 489 689 "},"テ":{"ha":0,"x_min":0,"x_max":0,"o":"m 1114 543 l 1114 603 l 192 603 l 192 543 l 622 543 b 346 -75 622 279 571 57 l 397 -137 b 701 543 621 19 701 238 z m 939 836 l 939 901 l 360 901 l 360 836 z "},"デ":{"ha":0,"x_min":0,"x_max":0,"o":"m 1033 535 l 1033 594 l 117 594 l 117 535 l 547 535 b 267 -79 547 267 496 51 l 319 -143 b 624 535 542 17 624 231 z m 860 828 l 860 892 l 285 892 l 285 828 "},"ト":{"ha":0,"x_min":0,"x_max":0,"o":"m 847 342 l 886 411 b 504 574 797 483 643 546 l 504 919 l 418 919 l 418 -94 l 504 -94 l 504 542 b 847 342 650 476 776 407 z "},"ド":{"ha":0,"x_min":0,"x_max":0,"o":"m 778 342 l 817 413 b 442 575 731 482 574 547 l 442 921 l 358 921 l 358 -96 l 442 -96 l 442 542 b 778 342 585 479 707 404 "},"ナ":{"ha":0,"x_min":0,"x_max":0,"o":"m 1132 600 l 1132 661 l 699 661 l 699 936 l 624 936 l 624 661 l 172 661 l 172 600 l 624 600 b 344 -56 624 313 581 83 l 394 -114 b 699 600 624 49 699 267 z "},"ニ":{"ha":0,"x_min":0,"x_max":0,"o":"m 1093 67 l 1093 149 l 211 149 l 211 67 z m 958 713 l 958 793 l 343 793 l 343 713 z "},"ヌ":{"ha":0,"x_min":0,"x_max":0,"o":"m 1042 797 l 994 882 l 354 882 l 354 824 l 954 824 b 735 399 900 669 829 544 b 479 561 624 481 536 535 l 447 513 b 681 338 510 479 583 414 b 263 3 543 179 400 67 l 317 -64 b 742 282 461 13 601 122 b 957 36 840 182 911 96 l 1031 108 b 794 343 981 174 903 251 b 1042 797 911 496 990 649 z "},"ネ":{"ha":0,"x_min":0,"x_max":0,"o":"m 971 688 l 922 783 l 690 783 l 690 979 l 613 979 l 613 783 l 290 783 l 290 725 l 897 725 b 178 233 781 519 507 299 l 213 171 b 613 340 336 197 453 250 l 613 -144 l 690 -144 l 690 397 b 971 688 821 499 921 606 z m 1081 169 l 1126 222 b 876 397 1058 290 964 356 l 857 361 b 1081 169 925 321 1024 239 z "},"ノ":{"ha":0,"x_min":0,"x_max":0,"o":"m 1038 868 l 958 901 b 268 -7 863 615 614 179 l 338 -81 b 1038 868 629 113 918 533 z "},"ハ":{"ha":0,"x_min":0,"x_max":0,"o":"m 532 701 l 467 728 b 146 154 407 539 303 311 l 211 88 b 532 701 349 244 478 518 z m 1081 135 l 1160 171 b 872 756 1097 386 989 599 l 824 718 b 1081 135 942 542 1032 314 z "},"バ":{"ha":0,"x_min":0,"x_max":0,"o":"m 489 674 l 426 700 b 107 140 375 518 261 294 l 171 81 b 489 674 307 229 436 497 z m 1036 126 l 1119 160 b 828 725 1056 364 950 574 l 783 694 b 1036 126 899 519 989 299 "},"パ":{"ha":133,"x_min":0,"x_max":0,"o":"m 481 665 l 415 693 b 101 139 364 513 253 283 l 163 78 b 481 665 303 226 421 496 z m 1024 125 l 1104 157 b 819 718 1042 363 935 569 l 772 686 b 1024 125 892 514 981 296 z "},"ヒ":{"ha":0,"x_min":0,"x_max":0,"o":"m 1007 -54 l 1019 29 b 515 -6 857 -1 633 -4 b 372 126 406 -4 372 25 l 372 449 b 965 674 588 500 819 578 l 921 736 b 372 511 789 643 611 556 l 372 886 l 285 886 l 285 142 b 379 -51 285 58 289 -26 b 615 -67 418 -65 568 -67 b 1007 -54 721 -67 903 -65 z "},"ビ":{"ha":0,"x_min":0,"x_max":0,"o":"m 921 -60 b 935 24 925 -32 931 -3 b 439 -10 782 -6 553 -10 b 294 122 328 -10 294 21 l 294 428 b 881 651 507 472 739 561 b 839 714 867 671 853 694 b 294 489 706 621 531 535 l 294 881 l 210 881 l 210 136 b 303 -54 210 51 217 -36 b 536 -69 343 -72 494 -69 b 921 -60 643 -69 818 -67 "},"ピ":{"ha":150,"x_min":0,"x_max":0,"o":"m 906 -60 l 917 22 b 428 -14 765 -10 540 -12 b 283 119 317 -12 283 17 l 283 422 b 864 646 499 478 721 554 l 825 706 b 283 483 692 617 518 529 l 283 872 l 200 872 l 200 133 b 292 -57 200 51 208 -40 b 524 -72 335 -68 475 -72 b 906 -60 633 -72 801 -74 z "},"フ":{"ha":1072,"x_min":0,"x_max":0,"o":""},"ブ":{"ha":0,"x_min":0,"x_max":0,"o":""},"プ":{"ha":1136,"x_min":0,"x_max":0,"o":""},"ヘ":{"ha":0,"x_min":0,"x_max":0,"o":""},"ベ":{"ha":0,"x_min":0,"x_max":0,"o":""},"ペ":{"ha":-61,"x_min":0,"x_max":0,"o":""},"ホ":{"ha":0,"x_min":0,"x_max":0,"o":"m 413 400 l 365 426 b 160 142 319 329 242 218 l 217 90 b 413 400 294 174 372 297 z m 1096 636 l 1096 697 l 699 697 l 699 931 l 617 931 l 617 697 l 206 697 l 206 636 l 617 636 l 617 49 b 482 -43 617 -6 563 -47 l 507 -111 b 699 47 644 -107 699 -74 l 699 636 z m 1079 118 l 1146 168 b 939 447 1092 272 1010 381 l 894 414 b 1079 118 971 335 1039 218 z "},"ボ":{"ha":0,"x_min":0,"x_max":0,"o":"m 406 394 l 356 422 b 154 140 311 326 235 215 l 214 89 b 406 394 286 168 365 294 z m 1088 631 l 1088 693 l 689 693 l 689 929 l 607 929 l 607 692 l 197 692 l 197 631 l 607 631 l 607 47 b 475 -49 607 -7 556 -51 l 499 -115 b 689 44 635 -111 689 -75 l 689 631 z m 1069 115 l 1139 165 b 928 446 1085 271 1001 381 l 889 411 b 1069 115 961 333 1033 215 "},"ポ":{"ha":78,"x_min":0,"x_max":0,"o":"m 389 392 l 342 418 b 142 136 300 321 224 210 l 200 83 b 389 392 278 165 353 289 z m 1068 625 l 1068 685 l 671 685 l 671 921 l 593 921 l 593 683 l 188 683 l 188 625 l 593 625 l 593 42 b 461 -49 593 -10 546 -53 l 489 -115 b 671 40 617 -111 671 -75 l 671 625 z m 1051 114 l 1118 160 b 911 439 1067 265 978 372 l 871 407 b 1051 114 942 328 1011 211 z "},"マ":{"ha":0,"x_min":0,"x_max":0,"o":"m 1113 678 l 1058 763 l 193 763 l 193 701 l 1032 701 b 633 253 939 522 810 367 b 435 394 553 321 489 364 l 411 350 b 744 -14 543 268 663 129 l 817 43 b 692 197 786 81 749 126 b 1113 678 885 344 1031 513 z "},"ミ":{"ha":0,"x_min":0,"x_max":0,"o":"m 897 -67 l 943 14 b 388 229 792 115 550 199 l 363 169 b 897 -67 514 132 771 38 z m 769 379 l 811 454 b 411 593 710 521 529 581 l 385 539 b 769 379 521 511 679 440 z m 826 701 l 865 776 b 486 910 778 836 599 890 l 464 849 b 826 701 588 822 744 756 z "},"ム":{"ha":0,"x_min":0,"x_max":0,"o":"m 1097 -36 l 1171 6 b 911 407 1104 181 1018 297 l 878 372 b 1028 142 928 313 975 249 b 315 63 810 96 588 75 b 671 839 483 329 610 610 l 583 882 b 236 64 526 644 388 290 b 135 64 185 65 149 64 l 153 -28 b 1051 89 438 -26 789 11 b 1097 -36 1076 33 1092 -14 z "},"メ":{"ha":0,"x_min":0,"x_max":0,"o":"m 1071 842 l 997 885 b 768 496 950 786 878 653 b 535 639 669 567 596 613 l 508 596 b 725 440 572 557 640 510 b 235 39 571 254 418 110 l 297 -40 b 781 382 446 43 610 193 b 928 200 853 303 896 244 l 999 268 b 828 449 963 318 910 375 b 1071 842 940 596 1025 732 z "},"モ":{"ha":0,"x_min":0,"x_max":0,"o":"m 1118 444 l 1118 508 l 632 508 l 632 818 l 967 818 l 967 878 l 306 878 l 306 818 l 549 818 l 549 508 l 186 508 l 186 444 l 549 444 l 549 146 b 638 -46 549 60 556 -24 b 850 -65 678 -57 794 -65 b 1060 -56 921 -65 1014 -64 l 1072 18 b 760 -3 946 0 853 -8 b 632 132 638 3 632 32 l 632 444 z "},"ャ":{"ha":0,"x_min":0,"x_max":0,"o":"m 1019 608 l 553 501 l 504 738 l 449 724 l 496 488 l 269 433 l 279 383 l 507 438 l 615 -110 l 678 -93 l 563 454 l 985 554 b 824 283 932 417 883 343 l 858 254 b 1049 576 953 346 1013 451 z "},"ヤ":{"ha":0,"x_min":0,"x_max":0,"o":"m 1064 750 l 554 646 l 490 939 l 407 918 l 464 622 l 175 554 l 189 489 l 481 556 l 617 -124 l 706 -100 l 568 565 l 1049 681 b 854 376 978 519 933 450 l 899 333 b 1131 657 992 411 1085 539 z "},"ュ":{"ha":0,"x_min":0,"x_max":0,"o":"m 1057 -8 l 1057 39 l 839 39 l 886 571 l 386 571 l 386 518 l 810 518 l 769 39 l 247 39 l 247 -8 z "},"ユ":{"ha":0,"x_min":0,"x_max":0,"o":"m 1160 58 l 1160 126 l 889 126 l 946 782 l 311 782 l 311 717 l 844 717 l 797 126 l 146 126 l 146 58 z "},"ョ":{"ha":0,"x_min":0,"x_max":0,"o":"m 963 -64 l 963 610 l 356 610 l 356 565 l 888 565 l 888 331 l 376 331 l 376 279 l 888 279 l 888 39 l 343 39 l 343 -12 l 888 -12 l 888 -64 z "},"ヨ":{"ha":0,"x_min":0,"x_max":0,"o":"m 1038 -39 l 1038 807 l 282 807 l 282 743 l 946 743 l 946 457 l 306 457 l 306 392 l 946 392 l 946 96 l 267 96 l 267 29 l 946 29 l 946 -39 z "},"ラ":{"ha":0,"x_min":0,"x_max":0,"o":"m 1018 619 l 247 619 l 247 557 l 978 557 b 475 -56 893 289 728 68 l 522 -119 b 1079 561 806 33 992 261 z m 896 858 l 896 921 l 382 921 l 382 858 z "},"リ":{"ha":0,"x_min":0,"x_max":0,"o":"m 442 339 l 442 926 l 358 926 l 358 339 z m 946 578 l 946 931 l 861 931 l 861 578 b 538 -62 861 333 768 71 b 597 -117 558 -81 578 -99 b 946 578 813 38 946 283 z "}}}
